G04 #@! TF.GenerationSoftware,KiCad,Pcbnew,(6.0.7)*
G04 #@! TF.CreationDate,2023-09-02T21:04:06+09:00*
G04 #@! TF.ProjectId,MD_DRV8332,4d445f44-5256-4383-9333-322e6b696361,rev?*
G04 #@! TF.SameCoordinates,Original*
G04 #@! TF.FileFunction,Paste,Top*
G04 #@! TF.FilePolarity,Positive*
%FSLAX46Y46*%
G04 Gerber Fmt 4.6, Leading zero omitted, Abs format (unit mm)*
G04 Created by KiCad (PCBNEW (6.0.7)) date 2023-09-02 21:04:06*
%MOMM*%
%LPD*%
G01*
G04 APERTURE LIST*
G04 Aperture macros list*
%AMRoundRect*
0 Rectangle with rounded corners*
0 $1 Rounding radius*
0 $2 $3 $4 $5 $6 $7 $8 $9 X,Y pos of 4 corners*
0 Add a 4 corners polygon primitive as box body*
4,1,4,$2,$3,$4,$5,$6,$7,$8,$9,$2,$3,0*
0 Add four circle primitives for the rounded corners*
1,1,$1+$1,$2,$3*
1,1,$1+$1,$4,$5*
1,1,$1+$1,$6,$7*
1,1,$1+$1,$8,$9*
0 Add four rect primitives between the rounded corners*
20,1,$1+$1,$2,$3,$4,$5,0*
20,1,$1+$1,$4,$5,$6,$7,0*
20,1,$1+$1,$6,$7,$8,$9,0*
20,1,$1+$1,$8,$9,$2,$3,0*%
G04 Aperture macros list end*
%ADD10RoundRect,0.237500X-0.237500X0.300000X-0.237500X-0.300000X0.237500X-0.300000X0.237500X0.300000X0*%
%ADD11RoundRect,0.237500X-0.237500X0.250000X-0.237500X-0.250000X0.237500X-0.250000X0.237500X0.250000X0*%
%ADD12RoundRect,0.237500X0.300000X0.237500X-0.300000X0.237500X-0.300000X-0.237500X0.300000X-0.237500X0*%
%ADD13RoundRect,0.237500X-0.250000X-0.237500X0.250000X-0.237500X0.250000X0.237500X-0.250000X0.237500X0*%
%ADD14RoundRect,0.237500X0.344715X-0.008839X-0.008839X0.344715X-0.344715X0.008839X0.008839X-0.344715X0*%
%ADD15RoundRect,0.237500X0.008839X0.344715X-0.344715X-0.008839X-0.008839X-0.344715X0.344715X0.008839X0*%
%ADD16RoundRect,0.237500X0.237500X-0.287500X0.237500X0.287500X-0.237500X0.287500X-0.237500X-0.287500X0*%
%ADD17RoundRect,0.237500X0.287500X0.237500X-0.287500X0.237500X-0.287500X-0.237500X0.287500X-0.237500X0*%
%ADD18RoundRect,0.237500X-0.300000X-0.237500X0.300000X-0.237500X0.300000X0.237500X-0.300000X0.237500X0*%
%ADD19RoundRect,0.237500X0.044194X0.380070X-0.380070X-0.044194X-0.044194X-0.380070X0.380070X0.044194X0*%
%ADD20RoundRect,0.237500X-0.380070X0.044194X0.044194X-0.380070X0.380070X-0.044194X-0.044194X0.380070X0*%
%ADD21O,2.552000X0.364000*%
%ADD22RoundRect,0.075000X0.441942X-0.548008X0.548008X-0.441942X-0.441942X0.548008X-0.548008X0.441942X0*%
%ADD23RoundRect,0.075000X-0.441942X-0.548008X0.548008X0.441942X0.441942X0.548008X-0.548008X-0.441942X0*%
G04 APERTURE END LIST*
D10*
X146050000Y-127407500D03*
X146050000Y-129132500D03*
D11*
X146050000Y-123547500D03*
X146050000Y-125372500D03*
X146050000Y-119893826D03*
X146050000Y-121718826D03*
D12*
X149558661Y-115283230D03*
X151283661Y-115283230D03*
D13*
X114670853Y-135517413D03*
X116495853Y-135517413D03*
X114657500Y-137160000D03*
X116482500Y-137160000D03*
D11*
X176530000Y-140415000D03*
X176530000Y-142240000D03*
X173990000Y-140415000D03*
X173990000Y-142240000D03*
X171450000Y-140415000D03*
X171450000Y-142240000D03*
D14*
X121295235Y-132725235D03*
X120004765Y-131434765D03*
D15*
X119485521Y-119323989D03*
X118195051Y-120614459D03*
D13*
X138787500Y-148590000D03*
X140612500Y-148590000D03*
X138787500Y-145415000D03*
X140612500Y-145415000D03*
X138787500Y-142240000D03*
X140612500Y-142240000D03*
X138787500Y-139065000D03*
X140612500Y-139065000D03*
X138787500Y-135890000D03*
X140612500Y-135890000D03*
X110834146Y-121063985D03*
X112659146Y-121063985D03*
X110847500Y-119380000D03*
X112672500Y-119380000D03*
D16*
X176568445Y-138459197D03*
X176568445Y-136709197D03*
X173932331Y-138574534D03*
X173932331Y-136824534D03*
X171450000Y-138520000D03*
X171450000Y-136770000D03*
D17*
X137160000Y-148590000D03*
X135410000Y-148590000D03*
X137160000Y-145415000D03*
X135410000Y-145415000D03*
X137160000Y-142240000D03*
X135410000Y-142240000D03*
X137160000Y-139065000D03*
X135410000Y-139065000D03*
X137160000Y-135890000D03*
X135410000Y-135890000D03*
D18*
X166370000Y-119380000D03*
X168095000Y-119380000D03*
X166370000Y-124128081D03*
X168095000Y-124128081D03*
X168095000Y-129368775D03*
X166370000Y-129368775D03*
D12*
X151189618Y-133763173D03*
X149464618Y-133763173D03*
D18*
X164206019Y-133787309D03*
X165931019Y-133787309D03*
X164076443Y-115319434D03*
X165801443Y-115319434D03*
D12*
X151202500Y-132080000D03*
X149477500Y-132080000D03*
X149571500Y-116840000D03*
X151296500Y-116840000D03*
D18*
X164237500Y-132080000D03*
X165962500Y-132080000D03*
X164015568Y-116840000D03*
X165740568Y-116840000D03*
D19*
X135780968Y-126912325D03*
X134561208Y-128132085D03*
X131423027Y-132577957D03*
X130203267Y-133797717D03*
X118526686Y-124751687D03*
X117306926Y-125971447D03*
D20*
X129199612Y-115138506D03*
X130419372Y-116358266D03*
D10*
X135890000Y-123597500D03*
X135890000Y-125322500D03*
D21*
X150904000Y-118935000D03*
X150904000Y-119585000D03*
X150904000Y-120235000D03*
X150904000Y-120885000D03*
X150904000Y-121535000D03*
X150904000Y-122185000D03*
X150904000Y-122835000D03*
X150904000Y-123485000D03*
X150904000Y-124135000D03*
X150904000Y-124785000D03*
X150904000Y-125435000D03*
X150904000Y-126085000D03*
X150904000Y-126735000D03*
X150904000Y-127385000D03*
X150904000Y-128035000D03*
X150904000Y-128685000D03*
X150904000Y-129335000D03*
X150904000Y-129985000D03*
X164056000Y-129985000D03*
X164056000Y-129335000D03*
X164056000Y-128685000D03*
X164056000Y-128035000D03*
X164056000Y-127385000D03*
X164056000Y-126735000D03*
X164056000Y-126085000D03*
X164056000Y-125435000D03*
X164056000Y-124785000D03*
X164056000Y-124135000D03*
X164056000Y-123485000D03*
X164056000Y-122835000D03*
X164056000Y-122185000D03*
X164056000Y-121535000D03*
X164056000Y-120885000D03*
X164056000Y-120235000D03*
X164056000Y-119585000D03*
X164056000Y-118935000D03*
D22*
X120335519Y-123098819D03*
X120689072Y-122745266D03*
X121042625Y-122391713D03*
X121396179Y-122038159D03*
X121749732Y-121684606D03*
X122103286Y-121331052D03*
X122456839Y-120977499D03*
X122810392Y-120623946D03*
X123163946Y-120270392D03*
X123517499Y-119916839D03*
X123871052Y-119563286D03*
X124224606Y-119209732D03*
X124578159Y-118856179D03*
X124931713Y-118502625D03*
X125285266Y-118149072D03*
X125638819Y-117795519D03*
D23*
X128361181Y-117795519D03*
X128714734Y-118149072D03*
X129068287Y-118502625D03*
X129421841Y-118856179D03*
X129775394Y-119209732D03*
X130128948Y-119563286D03*
X130482501Y-119916839D03*
X130836054Y-120270392D03*
X131189608Y-120623946D03*
X131543161Y-120977499D03*
X131896714Y-121331052D03*
X132250268Y-121684606D03*
X132603821Y-122038159D03*
X132957375Y-122391713D03*
X133310928Y-122745266D03*
X133664481Y-123098819D03*
D22*
X133664481Y-125821181D03*
X133310928Y-126174734D03*
X132957375Y-126528287D03*
X132603821Y-126881841D03*
X132250268Y-127235394D03*
X131896714Y-127588948D03*
X131543161Y-127942501D03*
X131189608Y-128296054D03*
X130836054Y-128649608D03*
X130482501Y-129003161D03*
X130128948Y-129356714D03*
X129775394Y-129710268D03*
X129421841Y-130063821D03*
X129068287Y-130417375D03*
X128714734Y-130770928D03*
X128361181Y-131124481D03*
D23*
X125638819Y-131124481D03*
X125285266Y-130770928D03*
X124931713Y-130417375D03*
X124578159Y-130063821D03*
X124224606Y-129710268D03*
X123871052Y-129356714D03*
X123517499Y-129003161D03*
X123163946Y-128649608D03*
X122810392Y-128296054D03*
X122456839Y-127942501D03*
X122103286Y-127588948D03*
X121749732Y-127235394D03*
X121396179Y-126881841D03*
X121042625Y-126528287D03*
X120689072Y-126174734D03*
X120335519Y-125821181D03*
M02*
