M48
; DRILL file {KiCad (6.0.7)} date Sat Sep  2 21:04:21 2023
; FORMAT={-:-/ absolute / inch / decimal}
; #@! TF.CreationDate,2023-09-02T21:04:21+09:00
; #@! TF.GenerationSoftware,Kicad,Pcbnew,(6.0.7)
; #@! TF.FileFunction,Plated,1,2,PTH
FMAT,2
INCH
; #@! TA.AperFunction,Plated,PTH,ViaDrill
T1C0.0157
; #@! TA.AperFunction,Plated,PTH,ComponentDrill
T2C0.0300
; #@! TA.AperFunction,Plated,PTH,ComponentDrill
T3C0.0315
; #@! TA.AperFunction,Plated,PTH,ComponentDrill
T4C0.0335
; #@! TA.AperFunction,Plated,PTH,ComponentDrill
T5C0.0394
; #@! TA.AperFunction,Plated,PTH,ComponentDrill
T6C0.0787
%
G90
G05
T1
X3.9733Y-5.5898
X3.9782Y-4.8722
X3.9793Y-3.9824
X3.9795Y-4.4652
X3.9831Y-5.2072
X3.987Y-5.8571
X4.0797Y-5.7206
X4.1384Y-5.3025
X4.1506Y-5.5311
X4.1543Y-5.1289
X4.1543Y-5.6436
X4.23Y-4.3136
X4.23Y-4.5776
X4.2337Y-4.8478
X4.2472Y-5.6509
X4.2496Y-5.4382
X4.2533Y-3.975
X4.3401Y-4.9541
X4.3682Y-5.8648
X4.3787Y-5.1823
X4.3828Y-5.4932
X4.3877Y-5.5971
X4.422Y-4.1364
X4.4494Y-4.9999
X4.4508Y-4.8464
X4.4672Y-5.6521
X4.4676Y-4.965
X4.4895Y-5.1041
X4.5033Y-4.9485
X4.5332Y-4.2488
X4.5393Y-5.4541
X4.5498Y-4.5003
X4.5687Y-5.5543
X4.5687Y-5.7389
X4.6184Y-4.9595
X4.6276Y-5.0744
X4.6478Y-4.8068
X4.6713Y-5.4553
X4.6848Y-3.9774
X4.6897Y-4.151
X4.7152Y-4.8956
X4.7289Y-5.2817
X4.7554Y-4.7053
X4.7848Y-4.6721
X4.7964Y-5.1279
X4.8057Y-5.2557
X4.8126Y-4.4991
X4.8315Y-5.3099
X4.8449Y-4.294
X4.862Y-5.8685
X4.872Y-5.2215
X4.8884Y-5.0043
X4.9Y-4.85
X4.95Y-4.75
X4.95Y-4.9
X4.95Y-4.95
X4.95Y-5.0
X4.9586Y-5.2328
X5.0Y-5.6
X5.005Y-4.3099
X5.0232Y-5.1824
X5.0307Y-3.9762
X5.0561Y-4.7356
X5.0613Y-4.4786
X5.0894Y-5.2231
X5.1444Y-5.7059
X5.1449Y-4.3476
X5.1542Y-5.459
X5.1561Y-4.6224
X5.1842Y-4.1274
X5.1942Y-4.8811
X5.2Y-5.7
X5.25Y-4.7
X5.25Y-5.65
X5.2581Y-5.8697
X5.263Y-5.7206
X5.2728Y-4.2219
X5.274Y-4.409
X5.2749Y-4.7552
X5.293Y-3.9808
X5.3Y-5.55
X5.3265Y-5.6607
X5.35Y-5.45
X5.3702Y-5.0547
X5.3718Y-4.2073
X5.3925Y-4.5813
X5.3974Y-5.2927
X5.4011Y-5.1876
X5.4045Y-4.8212
X5.4289Y-4.7148
X5.4311Y-4.0969
X5.4366Y-5.7915
X5.4629Y-3.9844
X5.5534Y-4.2155
X5.5563Y-4.4175
X5.5768Y-4.9911
X5.5832Y-5.4113
X5.5918Y-5.6656
X5.5967Y-5.8624
X5.6194Y-4.2766
X5.6233Y-4.9043
X5.6426Y-3.9808
X5.6691Y-4.9705
X5.6798Y-4.5801
X5.6881Y-4.7173
X5.6976Y-4.2045
X5.7098Y-4.0223
X5.7525Y-4.8616
X5.8058Y-4.8333
X5.8106Y-5.5653
X5.8192Y-5.8624
X5.8293Y-5.3034
X5.8305Y-4.4953
X5.8314Y-5.1619
X5.833Y-4.7413
X5.8522Y-4.651
X5.8599Y-5.1019
X5.8712Y-4.0028
X5.8742Y-4.3209
X5.9157Y-5.3233
X6.0001Y-4.4481
X6.0074Y-4.6388
X6.0135Y-5.1656
X6.016Y-5.2854
X6.0558Y-4.1678
X6.0594Y-4.0309
X6.0685Y-5.1033
X6.1Y-5.45
X6.15Y-5.75
X6.2037Y-4.3573
X6.2831Y-3.982
X6.3399Y-5.1045
X6.3993Y-4.5651
X6.4169Y-5.3221
X6.4206Y-5.6106
X6.497Y-4.4856
X6.5Y-4.8
X6.5007Y-4.1812
X6.5379Y-5.8648
X6.5396Y-4.9896
X6.5466Y-4.9429
X6.5704Y-4.6433
X6.5917Y-5.2341
X6.6Y-4.8
X6.6104Y-4.9896
X6.6706Y-3.9783
X6.675Y-4.775
X6.6956Y-5.4859
X6.6963Y-4.5064
X6.6968Y-5.3135
X6.7Y-5.0
X6.75Y-5.35
X6.7965Y-5.6466
X6.7989Y-5.4233
X6.8092Y-5.3685
X6.8393Y-4.4098
X6.8479Y-4.1886
X6.85Y-4.75
X6.85Y-5.05
X6.9016Y-5.4111
X6.9016Y-5.6474
X6.95Y-4.75
X6.95Y-5.05
X7.0059Y-5.4983
X7.0291Y-5.8611
X7.0348Y-3.9886
X7.0447Y-4.422
X7.0465Y-5.3478
X7.05Y-4.75
X7.05Y-5.05
T2
X4.622Y-5.5114
X4.622Y-5.6886
X4.878Y-5.5114
X4.878Y-5.6886
T3
X6.0Y-4.1
X6.0787Y-4.1
T4
X4.0744Y-4.9555
X4.0744Y-5.0539
X4.0744Y-5.1524
X4.0744Y-5.2508
X4.0744Y-5.3492
X4.0744Y-5.4476
X4.0744Y-5.5461
X4.0744Y-5.6445
X4.3244Y-5.2531
X4.3244Y-5.3516
X4.3244Y-5.45
X4.3244Y-5.5484
X4.3244Y-5.6469
X5.4047Y-4.35
X5.5031Y-4.35
X5.6016Y-4.35
X5.7Y-4.35
T5
X4.3743Y-4.2
X4.3743Y-4.3
X4.3743Y-4.4
X4.3743Y-4.5
X4.3743Y-4.6
X4.4743Y-4.2
X4.4743Y-4.3
X4.4743Y-4.4
X4.4743Y-4.5
X4.4743Y-4.6
T6
X5.3Y-4.1
X5.55Y-4.1
X5.8Y-4.1
X6.9Y-4.6
X6.9Y-4.9
X6.9Y-5.2
T0
M30
