G04 #@! TF.GenerationSoftware,KiCad,Pcbnew,(6.0.7)*
G04 #@! TF.CreationDate,2023-09-02T21:04:06+09:00*
G04 #@! TF.ProjectId,MD_DRV8332,4d445f44-5256-4383-9333-322e6b696361,rev?*
G04 #@! TF.SameCoordinates,Original*
G04 #@! TF.FileFunction,Copper,L2,Bot*
G04 #@! TF.FilePolarity,Positive*
%FSLAX46Y46*%
G04 Gerber Fmt 4.6, Leading zero omitted, Abs format (unit mm)*
G04 Created by KiCad (PCBNEW (6.0.7)) date 2023-09-02 21:04:06*
%MOMM*%
%LPD*%
G01*
G04 APERTURE LIST*
G04 Aperture macros list*
%AMRoundRect*
0 Rectangle with rounded corners*
0 $1 Rounding radius*
0 $2 $3 $4 $5 $6 $7 $8 $9 X,Y pos of 4 corners*
0 Add a 4 corners polygon primitive as box body*
4,1,4,$2,$3,$4,$5,$6,$7,$8,$9,$2,$3,0*
0 Add four circle primitives for the rounded corners*
1,1,$1+$1,$2,$3*
1,1,$1+$1,$4,$5*
1,1,$1+$1,$6,$7*
1,1,$1+$1,$8,$9*
0 Add four rect primitives between the rounded corners*
20,1,$1+$1,$2,$3,$4,$5,0*
20,1,$1+$1,$4,$5,$6,$7,0*
20,1,$1+$1,$6,$7,$8,$9,0*
20,1,$1+$1,$8,$9,$2,$3,0*%
G04 Aperture macros list end*
G04 #@! TA.AperFunction,ComponentPad*
%ADD10C,1.524000*%
G04 #@! TD*
G04 #@! TA.AperFunction,ComponentPad*
%ADD11RoundRect,0.250000X-0.675000X0.600000X-0.675000X-0.600000X0.675000X-0.600000X0.675000X0.600000X0*%
G04 #@! TD*
G04 #@! TA.AperFunction,ComponentPad*
%ADD12O,1.850000X1.700000*%
G04 #@! TD*
G04 #@! TA.AperFunction,ComponentPad*
%ADD13C,4.000000*%
G04 #@! TD*
G04 #@! TA.AperFunction,ComponentPad*
%ADD14RoundRect,0.250000X0.600000X0.675000X-0.600000X0.675000X-0.600000X-0.675000X0.600000X-0.675000X0*%
G04 #@! TD*
G04 #@! TA.AperFunction,ComponentPad*
%ADD15O,1.700000X1.850000*%
G04 #@! TD*
G04 #@! TA.AperFunction,ComponentPad*
%ADD16R,1.600000X1.600000*%
G04 #@! TD*
G04 #@! TA.AperFunction,ComponentPad*
%ADD17C,1.600000*%
G04 #@! TD*
G04 #@! TA.AperFunction,ComponentPad*
%ADD18RoundRect,0.250000X0.600000X0.600000X-0.600000X0.600000X-0.600000X-0.600000X0.600000X-0.600000X0*%
G04 #@! TD*
G04 #@! TA.AperFunction,ComponentPad*
%ADD19C,1.700000*%
G04 #@! TD*
G04 #@! TA.AperFunction,ComponentPad*
%ADD20R,4.000000X4.000000*%
G04 #@! TD*
G04 #@! TA.AperFunction,ViaPad*
%ADD21C,0.800000*%
G04 #@! TD*
G04 #@! TA.AperFunction,Conductor*
%ADD22C,0.250000*%
G04 #@! TD*
G04 #@! TA.AperFunction,Conductor*
%ADD23C,0.300000*%
G04 #@! TD*
G04 APERTURE END LIST*
D10*
X123900000Y-144490000D03*
X117400000Y-144490000D03*
X123900000Y-139990000D03*
X117400000Y-139990000D03*
D11*
X109840000Y-133430000D03*
D12*
X109840000Y-135930000D03*
X109840000Y-138430000D03*
X109840000Y-140930000D03*
X109840000Y-143430000D03*
D13*
X175260000Y-132080000D03*
D11*
X103490000Y-125870000D03*
D12*
X103490000Y-128370000D03*
X103490000Y-130870000D03*
X103490000Y-133370000D03*
X103490000Y-135870000D03*
X103490000Y-138370000D03*
X103490000Y-140870000D03*
X103490000Y-143370000D03*
D14*
X144780000Y-110490000D03*
D15*
X142280000Y-110490000D03*
X139780000Y-110490000D03*
X137280000Y-110490000D03*
D13*
X147320000Y-104140000D03*
D16*
X152400000Y-104140000D03*
D17*
X154400000Y-104140000D03*
D18*
X113647500Y-116840000D03*
D19*
X111107500Y-116840000D03*
X113647500Y-114300000D03*
X111107500Y-114300000D03*
X113647500Y-111760000D03*
X111107500Y-111760000D03*
X113647500Y-109220000D03*
X111107500Y-109220000D03*
X113647500Y-106680000D03*
X111107500Y-106680000D03*
D13*
X175260000Y-116840000D03*
X175260000Y-124460000D03*
D20*
X140970000Y-104140000D03*
D13*
X134620000Y-104140000D03*
D21*
X172631194Y-143423192D03*
X175301398Y-143443891D03*
X177950903Y-139655927D03*
X175301398Y-137441107D03*
X172693292Y-137751596D03*
X172954591Y-136359183D03*
X148065173Y-134707138D03*
X148094224Y-114181812D03*
X176530000Y-128270000D03*
X173990000Y-128270000D03*
X176530000Y-120650000D03*
X173990000Y-120650000D03*
X169545000Y-121285000D03*
X167640000Y-121920000D03*
X165100000Y-121920000D03*
X170180000Y-127000000D03*
X167905000Y-126735000D03*
X166105000Y-126735000D03*
X166282746Y-125550160D03*
X117306926Y-125971447D03*
X114033583Y-129643496D03*
X111218484Y-131630624D03*
X121828003Y-130247483D03*
X124164719Y-127110396D03*
X127000000Y-142240000D03*
X156210000Y-146050000D03*
X154940000Y-138430000D03*
X130680802Y-110428908D03*
X131933286Y-123979755D03*
X128424762Y-120284938D03*
X137273694Y-122458360D03*
X141651587Y-126774155D03*
X133982513Y-120781720D03*
X136404326Y-128388697D03*
X142831445Y-124569684D03*
X144477036Y-119819205D03*
X137894672Y-119757107D03*
X147466749Y-122766815D03*
X146112500Y-123485000D03*
X148645097Y-118135040D03*
X152588305Y-117824551D03*
X152402012Y-112980925D03*
X149203977Y-109751841D03*
X144267204Y-116334205D03*
X133958975Y-111987361D03*
X136970716Y-116365253D03*
X141131267Y-112204703D03*
X136442885Y-106864295D03*
X133927926Y-107236881D03*
X128556469Y-113757147D03*
X123060816Y-109068766D03*
X119117608Y-105436046D03*
X115143351Y-107919957D03*
X127128220Y-109472401D03*
X127780247Y-100996056D03*
X118993412Y-101027105D03*
X108033156Y-100965007D03*
X112317902Y-105063459D03*
X107443227Y-116272107D03*
X107443227Y-109565548D03*
X101078206Y-113415609D03*
X107536374Y-123133910D03*
X105518196Y-130275154D03*
X110237627Y-125835163D03*
X105114561Y-134684095D03*
X100922962Y-141980583D03*
X101171353Y-132262282D03*
X101047157Y-123754888D03*
X105425050Y-140490237D03*
X107877912Y-143533027D03*
X105518196Y-143346734D03*
X107940009Y-138130521D03*
X111324338Y-139527721D03*
X111448533Y-142166876D03*
X115298595Y-138534157D03*
X122719278Y-134870389D03*
X110951751Y-148966582D03*
X118651875Y-138565206D03*
X113466711Y-143564076D03*
X116043768Y-141080165D03*
X116043768Y-145768547D03*
X103624214Y-145302814D03*
X123495501Y-149059729D03*
X130667793Y-144930227D03*
X130916184Y-138658352D03*
X129270593Y-132665918D03*
X125948362Y-132914309D03*
X133555339Y-149090778D03*
X137094912Y-134435704D03*
X137188059Y-131765500D03*
X141814342Y-137447446D03*
X142031685Y-143905614D03*
X135294077Y-143781418D03*
X142155880Y-148904484D03*
X138088476Y-147103649D03*
X133679535Y-145302814D03*
X147806777Y-148904484D03*
X147589435Y-141359605D03*
X163082828Y-142508414D03*
X170068827Y-139341428D03*
X162989682Y-135180877D03*
X152805647Y-134249411D03*
X150259639Y-135211926D03*
X148117266Y-131113474D03*
X152743550Y-131206620D03*
X154140750Y-129623127D03*
X161033602Y-129654176D03*
X167429672Y-132945358D03*
X170099876Y-134963535D03*
X166063521Y-148966582D03*
X178979857Y-135832904D03*
X179070000Y-128270000D03*
X179070000Y-120650000D03*
X173718552Y-112009397D03*
X170085832Y-114462259D03*
X166887797Y-117939734D03*
X165024864Y-113934428D03*
X162540953Y-115952605D03*
X157573132Y-110674295D03*
X165118011Y-106203255D03*
X173935894Y-106389549D03*
X178934764Y-112319886D03*
X169433806Y-101049141D03*
X159591309Y-101142287D03*
X153816217Y-105861718D03*
X153909363Y-102384243D03*
X149127835Y-101670118D03*
X145029382Y-102166900D03*
X144718893Y-106793184D03*
X142731765Y-108625068D03*
X141055125Y-107072624D03*
X143321694Y-101111238D03*
X138757508Y-101204385D03*
X137950237Y-104060882D03*
X134441713Y-101111238D03*
X131678362Y-104837105D03*
X122239501Y-114275965D03*
X115563991Y-114307014D03*
X113049736Y-123098003D03*
X118054801Y-122091727D03*
X178539164Y-148872444D03*
X101270148Y-148770284D03*
X101073836Y-101151961D03*
X178683168Y-101309764D03*
X119766831Y-124349158D03*
X124460000Y-123190000D03*
X125730000Y-127000000D03*
X132080000Y-144780000D03*
X125730000Y-125730000D03*
X133350000Y-143510000D03*
X125730000Y-124460000D03*
X134620000Y-140970000D03*
X135890000Y-138430000D03*
X125730000Y-120650000D03*
X122063861Y-133493861D03*
X121533613Y-118671179D03*
X120787098Y-119514751D03*
X123748742Y-132624944D03*
X113015971Y-126997673D03*
X127588922Y-131632622D03*
X113476909Y-126110801D03*
X117541101Y-128889640D03*
X114384033Y-125691122D03*
X130964591Y-117408816D03*
X120115138Y-134154500D03*
X143995891Y-126249698D03*
X148159345Y-120429914D03*
X133350000Y-119380000D03*
X148840925Y-129588271D03*
X171450000Y-135890000D03*
D22*
X172432954Y-135837546D02*
X172432954Y-127287046D01*
X172954591Y-136359183D02*
X172432954Y-135837546D01*
X120925989Y-123190000D02*
X124460000Y-123190000D01*
X119766831Y-124349158D02*
X120925989Y-123190000D01*
X132080000Y-144780000D02*
X132080000Y-132080000D01*
X132080000Y-132080000D02*
X127000000Y-127000000D01*
X127000000Y-127000000D02*
X125730000Y-127000000D01*
X133350000Y-133350000D02*
X133350000Y-132080000D01*
X127000000Y-125730000D02*
X125730000Y-125730000D01*
X133350000Y-143510000D02*
X133350000Y-133350000D01*
X133350000Y-132080000D02*
X127000000Y-125730000D01*
X127000000Y-124460000D02*
X125730000Y-124460000D01*
X128270000Y-125730000D02*
X127000000Y-124460000D01*
X134620000Y-140970000D02*
X134620000Y-132080000D01*
X134620000Y-132080000D02*
X128270000Y-125730000D01*
X135890000Y-130810000D02*
X125730000Y-120650000D01*
X135890000Y-138430000D02*
X135890000Y-130810000D01*
X118226594Y-132208296D02*
X123332094Y-132208296D01*
X113015971Y-126997673D02*
X118226594Y-132208296D01*
X122000000Y-133430000D02*
X122063861Y-133493861D01*
X109840000Y-133430000D02*
X122000000Y-133430000D01*
X117400000Y-136869638D02*
X120115138Y-134154500D01*
X117400000Y-139990000D02*
X117400000Y-136869638D01*
X123332094Y-132208296D02*
X123748742Y-132624944D01*
X119224942Y-118671179D02*
X121533613Y-118671179D01*
X108151501Y-129744620D02*
X119224942Y-118671179D01*
X103490000Y-140795000D02*
X103490000Y-140870000D01*
X106680000Y-137605000D02*
X103490000Y-140795000D01*
X106680000Y-131883112D02*
X106680000Y-137605000D01*
X119442432Y-119120680D02*
X106680000Y-131883112D01*
X120787098Y-119514751D02*
X120784751Y-119514751D01*
X106210371Y-131685750D02*
X108151501Y-129744620D01*
X106210371Y-134574447D02*
X106210371Y-131685750D01*
X106210371Y-135649629D02*
X106210371Y-134574447D01*
X120784751Y-119514751D02*
X120390680Y-119120680D01*
X103490000Y-138370000D02*
X106210371Y-135649629D01*
X120390680Y-119120680D02*
X119442432Y-119120680D01*
X114384033Y-125814033D02*
X114384033Y-125691122D01*
X117459640Y-128889640D02*
X114384033Y-125814033D01*
X117541101Y-128889640D02*
X117459640Y-128889640D01*
X118998730Y-131632622D02*
X113476909Y-126110801D01*
X127588922Y-131632622D02*
X118998730Y-131632622D01*
X112282500Y-115475000D02*
X129030775Y-115475000D01*
X129030775Y-115475000D02*
X130964591Y-117408816D01*
X111107500Y-114300000D02*
X112282500Y-115475000D01*
X117400000Y-139990000D02*
X117400000Y-144490000D01*
D23*
X143995891Y-122704109D02*
X143995891Y-126249698D01*
X146270086Y-120429914D02*
X143995891Y-122704109D01*
X148159345Y-120429914D02*
X146270086Y-120429914D01*
D22*
X135890000Y-119380000D02*
X133350000Y-119380000D01*
X146050000Y-129540000D02*
X135890000Y-119380000D01*
X148840925Y-129588271D02*
X146098271Y-129588271D01*
X146098271Y-129588271D02*
X146050000Y-129540000D01*
D23*
X172432954Y-127287046D02*
X175260000Y-124460000D01*
X171450000Y-120650000D02*
X171450000Y-135890000D01*
X175260000Y-116840000D02*
X171450000Y-120650000D01*
G04 #@! TA.AperFunction,Conductor*
G36*
X179433621Y-100528502D02*
G01*
X179480114Y-100582158D01*
X179491500Y-100634500D01*
X179491500Y-149365500D01*
X179471498Y-149433621D01*
X179417842Y-149480114D01*
X179365500Y-149491500D01*
X100634500Y-149491500D01*
X100566379Y-149471498D01*
X100519886Y-149417842D01*
X100508500Y-149365500D01*
X100508500Y-143305774D01*
X102053102Y-143305774D01*
X102053302Y-143311103D01*
X102053302Y-143311105D01*
X102057398Y-143420209D01*
X102061751Y-143536158D01*
X102109093Y-143761791D01*
X102111051Y-143766750D01*
X102111052Y-143766752D01*
X102153909Y-143875271D01*
X102193776Y-143976221D01*
X102196543Y-143980780D01*
X102196544Y-143980783D01*
X102255219Y-144077476D01*
X102313377Y-144173317D01*
X102316874Y-144177347D01*
X102455503Y-144337103D01*
X102464477Y-144347445D01*
X102468608Y-144350832D01*
X102638627Y-144490240D01*
X102638633Y-144490244D01*
X102642755Y-144493624D01*
X102647391Y-144496263D01*
X102647394Y-144496265D01*
X102756422Y-144558327D01*
X102843114Y-144607675D01*
X103059825Y-144686337D01*
X103065074Y-144687286D01*
X103065077Y-144687287D01*
X103282608Y-144726623D01*
X103282615Y-144726624D01*
X103286692Y-144727361D01*
X103304414Y-144728197D01*
X103309356Y-144728430D01*
X103309363Y-144728430D01*
X103310844Y-144728500D01*
X103622890Y-144728500D01*
X103689809Y-144722822D01*
X103789409Y-144714371D01*
X103789413Y-144714370D01*
X103794720Y-144713920D01*
X103799875Y-144712582D01*
X103799881Y-144712581D01*
X104012703Y-144657343D01*
X104012707Y-144657342D01*
X104017872Y-144656001D01*
X104022738Y-144653809D01*
X104022741Y-144653808D01*
X104169629Y-144587640D01*
X104228075Y-144561312D01*
X104419319Y-144432559D01*
X104586135Y-144273424D01*
X104608730Y-144243056D01*
X104664010Y-144168757D01*
X104723754Y-144088458D01*
X104738587Y-144059285D01*
X104825822Y-143887704D01*
X104828240Y-143882949D01*
X104837750Y-143852324D01*
X104895024Y-143667871D01*
X104896607Y-143662773D01*
X104906143Y-143590827D01*
X104926198Y-143439511D01*
X104926198Y-143439506D01*
X104926898Y-143434226D01*
X104924328Y-143365774D01*
X108403102Y-143365774D01*
X108411751Y-143596158D01*
X108459093Y-143821791D01*
X108461051Y-143826750D01*
X108461052Y-143826752D01*
X108484956Y-143887279D01*
X108543776Y-144036221D01*
X108546543Y-144040780D01*
X108546544Y-144040783D01*
X108633423Y-144183955D01*
X108663377Y-144233317D01*
X108666874Y-144237347D01*
X108810378Y-144402721D01*
X108814477Y-144407445D01*
X108845106Y-144432559D01*
X108988627Y-144550240D01*
X108988633Y-144550244D01*
X108992755Y-144553624D01*
X108997391Y-144556263D01*
X108997394Y-144556265D01*
X109083066Y-144605032D01*
X109193114Y-144667675D01*
X109409825Y-144746337D01*
X109415074Y-144747286D01*
X109415077Y-144747287D01*
X109632608Y-144786623D01*
X109632615Y-144786624D01*
X109636692Y-144787361D01*
X109654414Y-144788197D01*
X109659356Y-144788430D01*
X109659363Y-144788430D01*
X109660844Y-144788500D01*
X109972890Y-144788500D01*
X110039809Y-144782822D01*
X110139409Y-144774371D01*
X110139413Y-144774370D01*
X110144720Y-144773920D01*
X110149875Y-144772582D01*
X110149881Y-144772581D01*
X110362703Y-144717343D01*
X110362707Y-144717342D01*
X110367872Y-144716001D01*
X110372738Y-144713809D01*
X110372741Y-144713808D01*
X110573202Y-144623507D01*
X110578075Y-144621312D01*
X110769319Y-144492559D01*
X110936135Y-144333424D01*
X111073754Y-144148458D01*
X111085447Y-144125461D01*
X111159004Y-143980783D01*
X111178240Y-143942949D01*
X111198454Y-143877852D01*
X111245024Y-143727871D01*
X111246607Y-143722773D01*
X111250505Y-143693365D01*
X111276198Y-143499511D01*
X111276198Y-143499506D01*
X111276898Y-143494226D01*
X111274646Y-143434226D01*
X111269625Y-143300489D01*
X111268249Y-143263842D01*
X111220907Y-143038209D01*
X111195177Y-142973056D01*
X111138185Y-142828744D01*
X111138184Y-142828742D01*
X111136224Y-142823779D01*
X111016623Y-142626683D01*
X110929755Y-142526576D01*
X110869023Y-142456588D01*
X110869021Y-142456586D01*
X110865523Y-142452555D01*
X110823970Y-142418484D01*
X110691373Y-142309760D01*
X110691367Y-142309756D01*
X110687245Y-142306376D01*
X110682602Y-142303733D01*
X110655265Y-142288171D01*
X110605959Y-142237088D01*
X110592098Y-142167458D01*
X110618082Y-142101387D01*
X110647232Y-142074149D01*
X110764578Y-141995148D01*
X110772870Y-141988481D01*
X110931900Y-141836772D01*
X110938941Y-141828814D01*
X111070141Y-141652475D01*
X111075745Y-141643438D01*
X111175357Y-141447516D01*
X111179357Y-141437665D01*
X111244534Y-141227760D01*
X111246817Y-141217376D01*
X111248861Y-141201957D01*
X111246665Y-141187793D01*
X111233478Y-141184000D01*
X108448808Y-141184000D01*
X108435277Y-141187973D01*
X108433752Y-141198580D01*
X108458477Y-141316421D01*
X108461537Y-141326617D01*
X108542263Y-141531029D01*
X108546994Y-141540561D01*
X108661016Y-141728462D01*
X108667280Y-141737052D01*
X108811327Y-141903052D01*
X108818958Y-141910472D01*
X108988911Y-142049826D01*
X108997674Y-142055848D01*
X109024711Y-142071238D01*
X109074018Y-142122320D01*
X109087880Y-142191951D01*
X109061897Y-142258022D01*
X109032747Y-142285261D01*
X109001384Y-142306376D01*
X108910681Y-142367441D01*
X108743865Y-142526576D01*
X108606246Y-142711542D01*
X108501760Y-142917051D01*
X108500178Y-142922145D01*
X108500177Y-142922148D01*
X108453607Y-143072129D01*
X108433393Y-143137227D01*
X108432692Y-143142516D01*
X108410348Y-143311105D01*
X108403102Y-143365774D01*
X104924328Y-143365774D01*
X104918249Y-143203842D01*
X104903327Y-143132721D01*
X104872002Y-142983428D01*
X104870907Y-142978209D01*
X104866936Y-142968153D01*
X104788185Y-142768744D01*
X104788184Y-142768742D01*
X104786224Y-142763779D01*
X104751928Y-142707260D01*
X104669390Y-142571243D01*
X104666623Y-142566683D01*
X104579755Y-142466576D01*
X104519023Y-142396588D01*
X104519021Y-142396586D01*
X104515523Y-142392555D01*
X104473970Y-142358484D01*
X104341373Y-142249760D01*
X104341367Y-142249756D01*
X104337245Y-142246376D01*
X104305750Y-142228448D01*
X104256445Y-142177368D01*
X104242583Y-142107738D01*
X104268566Y-142041667D01*
X104297716Y-142014427D01*
X104336255Y-141988481D01*
X104419319Y-141932559D01*
X104477426Y-141877128D01*
X104512769Y-141843412D01*
X104586135Y-141773424D01*
X104723754Y-141588458D01*
X104752953Y-141531029D01*
X104825822Y-141387704D01*
X104828240Y-141382949D01*
X104864321Y-141266752D01*
X104895024Y-141167871D01*
X104896607Y-141162773D01*
X104911716Y-141048777D01*
X104926198Y-140939511D01*
X104926198Y-140939506D01*
X104926898Y-140934226D01*
X104918249Y-140703842D01*
X104870907Y-140478209D01*
X104853656Y-140434526D01*
X104847238Y-140363823D01*
X104881753Y-140299151D01*
X107072247Y-138108657D01*
X107080537Y-138101113D01*
X107087018Y-138097000D01*
X107133659Y-138047332D01*
X107136413Y-138044491D01*
X107156134Y-138024770D01*
X107158612Y-138021575D01*
X107166318Y-138012553D01*
X107191158Y-137986101D01*
X107196586Y-137980321D01*
X107206346Y-137962568D01*
X107217199Y-137946045D01*
X107224753Y-137936306D01*
X107229613Y-137930041D01*
X107247176Y-137889457D01*
X107252383Y-137878827D01*
X107273695Y-137840060D01*
X107275666Y-137832383D01*
X107275668Y-137832378D01*
X107278732Y-137820442D01*
X107285138Y-137801730D01*
X107290033Y-137790419D01*
X107293181Y-137783145D01*
X107294421Y-137775317D01*
X107294423Y-137775310D01*
X107300099Y-137739476D01*
X107302505Y-137727856D01*
X107311528Y-137692711D01*
X107311528Y-137692710D01*
X107313500Y-137685030D01*
X107313500Y-137664776D01*
X107315051Y-137645065D01*
X107316980Y-137632886D01*
X107318220Y-137625057D01*
X107314059Y-137581038D01*
X107313500Y-137569181D01*
X107313500Y-132197706D01*
X107333502Y-132129585D01*
X107350405Y-132108611D01*
X112031784Y-127427232D01*
X112094096Y-127393206D01*
X112164911Y-127398271D01*
X112221747Y-127440818D01*
X112229998Y-127453327D01*
X112276931Y-127534617D01*
X112281349Y-127539524D01*
X112281350Y-127539525D01*
X112383975Y-127653502D01*
X112404718Y-127676539D01*
X112559219Y-127788791D01*
X112565247Y-127791475D01*
X112565249Y-127791476D01*
X112570476Y-127793803D01*
X112733683Y-127866467D01*
X112827083Y-127886320D01*
X112914027Y-127904801D01*
X112914032Y-127904801D01*
X112920484Y-127906173D01*
X112976377Y-127906173D01*
X113044498Y-127926175D01*
X113065472Y-127943078D01*
X117703799Y-132581405D01*
X117737825Y-132643717D01*
X117732760Y-132714532D01*
X117690213Y-132771368D01*
X117623693Y-132796179D01*
X117614704Y-132796500D01*
X111388856Y-132796500D01*
X111320735Y-132776498D01*
X111274242Y-132722842D01*
X111263529Y-132683504D01*
X111262526Y-132673834D01*
X111226778Y-132566683D01*
X111208868Y-132513002D01*
X111206550Y-132506054D01*
X111113478Y-132355652D01*
X110988303Y-132230695D01*
X110979994Y-132225573D01*
X110843968Y-132141725D01*
X110843966Y-132141724D01*
X110837738Y-132137885D01*
X110677254Y-132084655D01*
X110676389Y-132084368D01*
X110676387Y-132084368D01*
X110669861Y-132082203D01*
X110663025Y-132081503D01*
X110663022Y-132081502D01*
X110619969Y-132077091D01*
X110565400Y-132071500D01*
X109114600Y-132071500D01*
X109111354Y-132071837D01*
X109111350Y-132071837D01*
X109015692Y-132081762D01*
X109015688Y-132081763D01*
X109008834Y-132082474D01*
X109002298Y-132084655D01*
X109002296Y-132084655D01*
X108930492Y-132108611D01*
X108841054Y-132138450D01*
X108690652Y-132231522D01*
X108565695Y-132356697D01*
X108561855Y-132362927D01*
X108561854Y-132362928D01*
X108478144Y-132498731D01*
X108472885Y-132507262D01*
X108470581Y-132514209D01*
X108423453Y-132656297D01*
X108417203Y-132675139D01*
X108406500Y-132779600D01*
X108406500Y-134080400D01*
X108406837Y-134083646D01*
X108406837Y-134083650D01*
X108416487Y-134176651D01*
X108417474Y-134186166D01*
X108419655Y-134192702D01*
X108419655Y-134192704D01*
X108463728Y-134324806D01*
X108473450Y-134353946D01*
X108566522Y-134504348D01*
X108691697Y-134629305D01*
X108837340Y-134719081D01*
X108884832Y-134771852D01*
X108896256Y-134841924D01*
X108867982Y-134907048D01*
X108858195Y-134917510D01*
X108743865Y-135026576D01*
X108606246Y-135211542D01*
X108501760Y-135417051D01*
X108500178Y-135422145D01*
X108500177Y-135422148D01*
X108453663Y-135571946D01*
X108433393Y-135637227D01*
X108432692Y-135642516D01*
X108409523Y-135817331D01*
X108403102Y-135865774D01*
X108411751Y-136096158D01*
X108459093Y-136321791D01*
X108461051Y-136326750D01*
X108461052Y-136326752D01*
X108529972Y-136501266D01*
X108543776Y-136536221D01*
X108546543Y-136540780D01*
X108546544Y-136540783D01*
X108631702Y-136681118D01*
X108663377Y-136733317D01*
X108666874Y-136737347D01*
X108808915Y-136901035D01*
X108814477Y-136907445D01*
X108818608Y-136910832D01*
X108988627Y-137050240D01*
X108988633Y-137050244D01*
X108992755Y-137053624D01*
X109024250Y-137071552D01*
X109073555Y-137122632D01*
X109087417Y-137192262D01*
X109061434Y-137258333D01*
X109032284Y-137285573D01*
X108910681Y-137367441D01*
X108743865Y-137526576D01*
X108606246Y-137711542D01*
X108603830Y-137716293D01*
X108603828Y-137716297D01*
X108587822Y-137747779D01*
X108501760Y-137917051D01*
X108500178Y-137922145D01*
X108500177Y-137922148D01*
X108461749Y-138045905D01*
X108433393Y-138137227D01*
X108432692Y-138142516D01*
X108410348Y-138311105D01*
X108403102Y-138365774D01*
X108411751Y-138596158D01*
X108459093Y-138821791D01*
X108461051Y-138826750D01*
X108461052Y-138826752D01*
X108536154Y-139016920D01*
X108543776Y-139036221D01*
X108546543Y-139040780D01*
X108546544Y-139040783D01*
X108636045Y-139188276D01*
X108663377Y-139233317D01*
X108666874Y-139237347D01*
X108766646Y-139352324D01*
X108814477Y-139407445D01*
X108818608Y-139410832D01*
X108988627Y-139550240D01*
X108988633Y-139550244D01*
X108992755Y-139553624D01*
X108997398Y-139556267D01*
X109024735Y-139571829D01*
X109074041Y-139622912D01*
X109087902Y-139692542D01*
X109061918Y-139758613D01*
X109032768Y-139785851D01*
X108915422Y-139864852D01*
X108907130Y-139871519D01*
X108748100Y-140023228D01*
X108741059Y-140031186D01*
X108609859Y-140207525D01*
X108604255Y-140216562D01*
X108504643Y-140412484D01*
X108500643Y-140422335D01*
X108435466Y-140632240D01*
X108433183Y-140642624D01*
X108431139Y-140658043D01*
X108433335Y-140672207D01*
X108446522Y-140676000D01*
X111231192Y-140676000D01*
X111244723Y-140672027D01*
X111246248Y-140661420D01*
X111221523Y-140543579D01*
X111218463Y-140533383D01*
X111137737Y-140328971D01*
X111133006Y-140319439D01*
X111018984Y-140131538D01*
X111012720Y-140122948D01*
X110868673Y-139956948D01*
X110861042Y-139949528D01*
X110691089Y-139810174D01*
X110682326Y-139804152D01*
X110655289Y-139788762D01*
X110605982Y-139737680D01*
X110592120Y-139668049D01*
X110618103Y-139601978D01*
X110647253Y-139574739D01*
X110700532Y-139538869D01*
X110769319Y-139492559D01*
X110936135Y-139333424D01*
X110964084Y-139295860D01*
X111070568Y-139152740D01*
X111073754Y-139148458D01*
X111091910Y-139112749D01*
X111140631Y-139016920D01*
X111178240Y-138942949D01*
X111196198Y-138885117D01*
X111245024Y-138727871D01*
X111246607Y-138722773D01*
X111261108Y-138613365D01*
X111276198Y-138499511D01*
X111276198Y-138499506D01*
X111276898Y-138494226D01*
X111274646Y-138434226D01*
X111268449Y-138269173D01*
X111268249Y-138263842D01*
X111220907Y-138038209D01*
X111215600Y-138024770D01*
X111138185Y-137828744D01*
X111138184Y-137828742D01*
X111136224Y-137823779D01*
X111122845Y-137801730D01*
X111019390Y-137631243D01*
X111016623Y-137626683D01*
X110977015Y-137581039D01*
X110869023Y-137456588D01*
X110869021Y-137456586D01*
X110865523Y-137452555D01*
X110776426Y-137379500D01*
X110691373Y-137309760D01*
X110691367Y-137309756D01*
X110687245Y-137306376D01*
X110655750Y-137288448D01*
X110606445Y-137237368D01*
X110592583Y-137167738D01*
X110618566Y-137101667D01*
X110647716Y-137074427D01*
X110683642Y-137050240D01*
X110769319Y-136992559D01*
X110936135Y-136833424D01*
X110946287Y-136819780D01*
X111070568Y-136652740D01*
X111073754Y-136648458D01*
X111076909Y-136642254D01*
X111159004Y-136480783D01*
X111178240Y-136442949D01*
X111182660Y-136428717D01*
X111245024Y-136227871D01*
X111246607Y-136222773D01*
X111254532Y-136162977D01*
X111276198Y-135999511D01*
X111276198Y-135999506D01*
X111276898Y-135994226D01*
X111276436Y-135981904D01*
X111268449Y-135769173D01*
X111268249Y-135763842D01*
X111220907Y-135538209D01*
X111218948Y-135533248D01*
X111138185Y-135328744D01*
X111138184Y-135328742D01*
X111136224Y-135323779D01*
X111111699Y-135283362D01*
X111019390Y-135131243D01*
X111016623Y-135126683D01*
X110961061Y-135062653D01*
X110869023Y-134956588D01*
X110869021Y-134956586D01*
X110865523Y-134952555D01*
X110829880Y-134923330D01*
X110789886Y-134864671D01*
X110787954Y-134793701D01*
X110824698Y-134732952D01*
X110843468Y-134718752D01*
X110983120Y-134632332D01*
X110989348Y-134628478D01*
X111114305Y-134503303D01*
X111156076Y-134435539D01*
X111203275Y-134358968D01*
X111203276Y-134358966D01*
X111207115Y-134352738D01*
X111262797Y-134184861D01*
X111263498Y-134178020D01*
X111263499Y-134178015D01*
X111263639Y-134176651D01*
X111263960Y-134175864D01*
X111264941Y-134171290D01*
X111265757Y-134171465D01*
X111290483Y-134110925D01*
X111348600Y-134070146D01*
X111388982Y-134063500D01*
X119006044Y-134063500D01*
X119074165Y-134083502D01*
X119120658Y-134137158D01*
X119130762Y-134207432D01*
X119101268Y-134272012D01*
X119095140Y-134278594D01*
X118049954Y-135323779D01*
X117007747Y-136365986D01*
X116999461Y-136373526D01*
X116992982Y-136377638D01*
X116987557Y-136383415D01*
X116946357Y-136427289D01*
X116943602Y-136430131D01*
X116923865Y-136449868D01*
X116921385Y-136453065D01*
X116913682Y-136462085D01*
X116883414Y-136494317D01*
X116879595Y-136501263D01*
X116879593Y-136501266D01*
X116873652Y-136512072D01*
X116862801Y-136528591D01*
X116850386Y-136544597D01*
X116847241Y-136551866D01*
X116847238Y-136551870D01*
X116832826Y-136585175D01*
X116827609Y-136595825D01*
X116806305Y-136634578D01*
X116804334Y-136642253D01*
X116804334Y-136642254D01*
X116801267Y-136654200D01*
X116794863Y-136672904D01*
X116791309Y-136681118D01*
X116786819Y-136691493D01*
X116785580Y-136699316D01*
X116785577Y-136699326D01*
X116779901Y-136735162D01*
X116777495Y-136746782D01*
X116774411Y-136758794D01*
X116766500Y-136789608D01*
X116766500Y-136809862D01*
X116764949Y-136829572D01*
X116761780Y-136849581D01*
X116762526Y-136857473D01*
X116765941Y-136893599D01*
X116766500Y-136905457D01*
X116766500Y-138816996D01*
X116746498Y-138885117D01*
X116712771Y-138920209D01*
X116584730Y-139009864D01*
X116584727Y-139009866D01*
X116580219Y-139013023D01*
X116423023Y-139170219D01*
X116419866Y-139174727D01*
X116419864Y-139174730D01*
X116301752Y-139343412D01*
X116295512Y-139352324D01*
X116293189Y-139357306D01*
X116293186Y-139357311D01*
X116228392Y-139496262D01*
X116201560Y-139553804D01*
X116200138Y-139559112D01*
X116200137Y-139559114D01*
X116196730Y-139571829D01*
X116144022Y-139768537D01*
X116124647Y-139990000D01*
X116144022Y-140211463D01*
X116172883Y-140319174D01*
X116183033Y-140357051D01*
X116201560Y-140426196D01*
X116203882Y-140431177D01*
X116203883Y-140431178D01*
X116293186Y-140622689D01*
X116293189Y-140622694D01*
X116295512Y-140627676D01*
X116298668Y-140632183D01*
X116298669Y-140632185D01*
X116416517Y-140800489D01*
X116423023Y-140809781D01*
X116580219Y-140966977D01*
X116584727Y-140970134D01*
X116584730Y-140970136D01*
X116712771Y-141059791D01*
X116757099Y-141115248D01*
X116766500Y-141163004D01*
X116766500Y-143316996D01*
X116746498Y-143385117D01*
X116712771Y-143420209D01*
X116584730Y-143509864D01*
X116584727Y-143509866D01*
X116580219Y-143513023D01*
X116423023Y-143670219D01*
X116419866Y-143674727D01*
X116419864Y-143674730D01*
X116298669Y-143847815D01*
X116295512Y-143852324D01*
X116293189Y-143857306D01*
X116293186Y-143857311D01*
X116235610Y-143980783D01*
X116201560Y-144053804D01*
X116200138Y-144059112D01*
X116200137Y-144059114D01*
X116192274Y-144088458D01*
X116144022Y-144268537D01*
X116124647Y-144490000D01*
X116144022Y-144711463D01*
X116201560Y-144926196D01*
X116203882Y-144931177D01*
X116203883Y-144931178D01*
X116293186Y-145122689D01*
X116293189Y-145122694D01*
X116295512Y-145127676D01*
X116298668Y-145132183D01*
X116298669Y-145132185D01*
X116335107Y-145184223D01*
X116423023Y-145309781D01*
X116580219Y-145466977D01*
X116584727Y-145470134D01*
X116584730Y-145470136D01*
X116660495Y-145523187D01*
X116762323Y-145594488D01*
X116767305Y-145596811D01*
X116767310Y-145596814D01*
X116957810Y-145685645D01*
X116963804Y-145688440D01*
X116969112Y-145689862D01*
X116969114Y-145689863D01*
X117034949Y-145707503D01*
X117178537Y-145745978D01*
X117400000Y-145765353D01*
X117621463Y-145745978D01*
X117765051Y-145707503D01*
X117830886Y-145689863D01*
X117830888Y-145689862D01*
X117836196Y-145688440D01*
X117842190Y-145685645D01*
X118032690Y-145596814D01*
X118032695Y-145596811D01*
X118037677Y-145594488D01*
X118102959Y-145548777D01*
X123205777Y-145548777D01*
X123215074Y-145560793D01*
X123258069Y-145590898D01*
X123267555Y-145596376D01*
X123458993Y-145685645D01*
X123469285Y-145689391D01*
X123673309Y-145744059D01*
X123684104Y-145745962D01*
X123894525Y-145764372D01*
X123905475Y-145764372D01*
X124115896Y-145745962D01*
X124126691Y-145744059D01*
X124330715Y-145689391D01*
X124341007Y-145685645D01*
X124532445Y-145596376D01*
X124541931Y-145590898D01*
X124585764Y-145560207D01*
X124594139Y-145549729D01*
X124587071Y-145536281D01*
X123912812Y-144862022D01*
X123898868Y-144854408D01*
X123897035Y-144854539D01*
X123890420Y-144858790D01*
X123212207Y-145537003D01*
X123205777Y-145548777D01*
X118102959Y-145548777D01*
X118139505Y-145523187D01*
X118215270Y-145470136D01*
X118215273Y-145470134D01*
X118219781Y-145466977D01*
X118376977Y-145309781D01*
X118464894Y-145184223D01*
X118501331Y-145132185D01*
X118501332Y-145132183D01*
X118504488Y-145127676D01*
X118506811Y-145122694D01*
X118506814Y-145122689D01*
X118596117Y-144931178D01*
X118596118Y-144931177D01*
X118598440Y-144926196D01*
X118655978Y-144711463D01*
X118674874Y-144495475D01*
X122625628Y-144495475D01*
X122644038Y-144705896D01*
X122645941Y-144716691D01*
X122700609Y-144920715D01*
X122704355Y-144931007D01*
X122793623Y-145122441D01*
X122799103Y-145131932D01*
X122829794Y-145175765D01*
X122840271Y-145184140D01*
X122853718Y-145177072D01*
X123527978Y-144502812D01*
X123534356Y-144491132D01*
X124264408Y-144491132D01*
X124264539Y-144492965D01*
X124268790Y-144499580D01*
X124947003Y-145177793D01*
X124958777Y-145184223D01*
X124970793Y-145174926D01*
X125000897Y-145131932D01*
X125006377Y-145122441D01*
X125095645Y-144931007D01*
X125099391Y-144920715D01*
X125154059Y-144716691D01*
X125155962Y-144705896D01*
X125174372Y-144495475D01*
X125174372Y-144484525D01*
X125155962Y-144274104D01*
X125154059Y-144263309D01*
X125099391Y-144059285D01*
X125095645Y-144048993D01*
X125006377Y-143857559D01*
X125000897Y-143848068D01*
X124970206Y-143804235D01*
X124959729Y-143795860D01*
X124946282Y-143802928D01*
X124272022Y-144477188D01*
X124264408Y-144491132D01*
X123534356Y-144491132D01*
X123535592Y-144488868D01*
X123535461Y-144487035D01*
X123531210Y-144480420D01*
X122852997Y-143802207D01*
X122841223Y-143795777D01*
X122829207Y-143805074D01*
X122799103Y-143848068D01*
X122793623Y-143857559D01*
X122704355Y-144048993D01*
X122700609Y-144059285D01*
X122645941Y-144263309D01*
X122644038Y-144274104D01*
X122625628Y-144484525D01*
X122625628Y-144495475D01*
X118674874Y-144495475D01*
X118675353Y-144490000D01*
X118655978Y-144268537D01*
X118607726Y-144088458D01*
X118599863Y-144059114D01*
X118599862Y-144059112D01*
X118598440Y-144053804D01*
X118564390Y-143980783D01*
X118506814Y-143857311D01*
X118506811Y-143857306D01*
X118504488Y-143852324D01*
X118501331Y-143847815D01*
X118380136Y-143674730D01*
X118380134Y-143674727D01*
X118376977Y-143670219D01*
X118219781Y-143513023D01*
X118215273Y-143509866D01*
X118215270Y-143509864D01*
X118134275Y-143453151D01*
X118101599Y-143430271D01*
X123205860Y-143430271D01*
X123212928Y-143443718D01*
X123887188Y-144117978D01*
X123901132Y-144125592D01*
X123902965Y-144125461D01*
X123909580Y-144121210D01*
X124587793Y-143442997D01*
X124594223Y-143431223D01*
X124584926Y-143419207D01*
X124541931Y-143389102D01*
X124532445Y-143383624D01*
X124341007Y-143294355D01*
X124330715Y-143290609D01*
X124126691Y-143235941D01*
X124115896Y-143234038D01*
X123905475Y-143215628D01*
X123894525Y-143215628D01*
X123684104Y-143234038D01*
X123673309Y-143235941D01*
X123469285Y-143290609D01*
X123458993Y-143294355D01*
X123267559Y-143383623D01*
X123258068Y-143389103D01*
X123214235Y-143419794D01*
X123205860Y-143430271D01*
X118101599Y-143430271D01*
X118087229Y-143420209D01*
X118042901Y-143364752D01*
X118033500Y-143316996D01*
X118033500Y-141163004D01*
X118053502Y-141094883D01*
X118087229Y-141059791D01*
X118102959Y-141048777D01*
X123205777Y-141048777D01*
X123215074Y-141060793D01*
X123258069Y-141090898D01*
X123267555Y-141096376D01*
X123458993Y-141185645D01*
X123469285Y-141189391D01*
X123673309Y-141244059D01*
X123684104Y-141245962D01*
X123894525Y-141264372D01*
X123905475Y-141264372D01*
X124115896Y-141245962D01*
X124126691Y-141244059D01*
X124330715Y-141189391D01*
X124341007Y-141185645D01*
X124532445Y-141096376D01*
X124541931Y-141090898D01*
X124585764Y-141060207D01*
X124594139Y-141049729D01*
X124587071Y-141036281D01*
X123912812Y-140362022D01*
X123898868Y-140354408D01*
X123897035Y-140354539D01*
X123890420Y-140358790D01*
X123212207Y-141037003D01*
X123205777Y-141048777D01*
X118102959Y-141048777D01*
X118215270Y-140970136D01*
X118215273Y-140970134D01*
X118219781Y-140966977D01*
X118376977Y-140809781D01*
X118383484Y-140800489D01*
X118501331Y-140632185D01*
X118501332Y-140632183D01*
X118504488Y-140627676D01*
X118506811Y-140622694D01*
X118506814Y-140622689D01*
X118596117Y-140431178D01*
X118596118Y-140431177D01*
X118598440Y-140426196D01*
X118616968Y-140357051D01*
X118627117Y-140319174D01*
X118655978Y-140211463D01*
X118674874Y-139995475D01*
X122625628Y-139995475D01*
X122644038Y-140205896D01*
X122645941Y-140216691D01*
X122700609Y-140420715D01*
X122704355Y-140431007D01*
X122793623Y-140622441D01*
X122799103Y-140631932D01*
X122829794Y-140675765D01*
X122840271Y-140684140D01*
X122853718Y-140677072D01*
X123527978Y-140002812D01*
X123534356Y-139991132D01*
X124264408Y-139991132D01*
X124264539Y-139992965D01*
X124268790Y-139999580D01*
X124947003Y-140677793D01*
X124958777Y-140684223D01*
X124970793Y-140674926D01*
X125000897Y-140631932D01*
X125006377Y-140622441D01*
X125095645Y-140431007D01*
X125099391Y-140420715D01*
X125154059Y-140216691D01*
X125155962Y-140205896D01*
X125174372Y-139995475D01*
X125174372Y-139984525D01*
X125155962Y-139774104D01*
X125154059Y-139763309D01*
X125099391Y-139559285D01*
X125095645Y-139548993D01*
X125006377Y-139357559D01*
X125000897Y-139348068D01*
X124970206Y-139304235D01*
X124959729Y-139295860D01*
X124946282Y-139302928D01*
X124272022Y-139977188D01*
X124264408Y-139991132D01*
X123534356Y-139991132D01*
X123535592Y-139988868D01*
X123535461Y-139987035D01*
X123531210Y-139980420D01*
X122852997Y-139302207D01*
X122841223Y-139295777D01*
X122829207Y-139305074D01*
X122799103Y-139348068D01*
X122793623Y-139357559D01*
X122704355Y-139548993D01*
X122700609Y-139559285D01*
X122645941Y-139763309D01*
X122644038Y-139774104D01*
X122625628Y-139984525D01*
X122625628Y-139995475D01*
X118674874Y-139995475D01*
X118675353Y-139990000D01*
X118655978Y-139768537D01*
X118603270Y-139571829D01*
X118599863Y-139559114D01*
X118599862Y-139559112D01*
X118598440Y-139553804D01*
X118571608Y-139496262D01*
X118506814Y-139357311D01*
X118506811Y-139357306D01*
X118504488Y-139352324D01*
X118498248Y-139343412D01*
X118380136Y-139174730D01*
X118380134Y-139174727D01*
X118376977Y-139170219D01*
X118219781Y-139013023D01*
X118215273Y-139009866D01*
X118215270Y-139009864D01*
X118126496Y-138947704D01*
X118101599Y-138930271D01*
X123205860Y-138930271D01*
X123212928Y-138943718D01*
X123887188Y-139617978D01*
X123901132Y-139625592D01*
X123902965Y-139625461D01*
X123909580Y-139621210D01*
X124587793Y-138942997D01*
X124594223Y-138931223D01*
X124584926Y-138919207D01*
X124541931Y-138889102D01*
X124532445Y-138883624D01*
X124341007Y-138794355D01*
X124330715Y-138790609D01*
X124126691Y-138735941D01*
X124115896Y-138734038D01*
X123905475Y-138715628D01*
X123894525Y-138715628D01*
X123684104Y-138734038D01*
X123673309Y-138735941D01*
X123469285Y-138790609D01*
X123458993Y-138794355D01*
X123267559Y-138883623D01*
X123258068Y-138889103D01*
X123214235Y-138919794D01*
X123205860Y-138930271D01*
X118101599Y-138930271D01*
X118087229Y-138920209D01*
X118042901Y-138864752D01*
X118033500Y-138816996D01*
X118033500Y-137184232D01*
X118053502Y-137116111D01*
X118070405Y-137095137D01*
X120065638Y-135099905D01*
X120127950Y-135065879D01*
X120154733Y-135063000D01*
X120210625Y-135063000D01*
X120217077Y-135061628D01*
X120217082Y-135061628D01*
X120304025Y-135043147D01*
X120397426Y-135023294D01*
X120515209Y-134970854D01*
X120565860Y-134948303D01*
X120565862Y-134948302D01*
X120571890Y-134945618D01*
X120726391Y-134833366D01*
X120752417Y-134804461D01*
X120849759Y-134696352D01*
X120849760Y-134696351D01*
X120854178Y-134691444D01*
X120949665Y-134526056D01*
X121008680Y-134344428D01*
X121014646Y-134287664D01*
X121026348Y-134176329D01*
X121053361Y-134110673D01*
X121111583Y-134070043D01*
X121151658Y-134063500D01*
X121298162Y-134063500D01*
X121366283Y-134083502D01*
X121391793Y-134105185D01*
X121452608Y-134172727D01*
X121500375Y-134207432D01*
X121596269Y-134277103D01*
X121607109Y-134284979D01*
X121613137Y-134287663D01*
X121613139Y-134287664D01*
X121775542Y-134359970D01*
X121781573Y-134362655D01*
X121874973Y-134382508D01*
X121961917Y-134400989D01*
X121961922Y-134400989D01*
X121968374Y-134402361D01*
X122159348Y-134402361D01*
X122165800Y-134400989D01*
X122165805Y-134400989D01*
X122252749Y-134382508D01*
X122346149Y-134362655D01*
X122352180Y-134359970D01*
X122514583Y-134287664D01*
X122514585Y-134287663D01*
X122520613Y-134284979D01*
X122531454Y-134277103D01*
X122627347Y-134207432D01*
X122675114Y-134172727D01*
X122691526Y-134154500D01*
X122798482Y-134035713D01*
X122798483Y-134035712D01*
X122802901Y-134030805D01*
X122898388Y-133865417D01*
X122957403Y-133683789D01*
X122961408Y-133645689D01*
X122976675Y-133500426D01*
X122977365Y-133493861D01*
X122976675Y-133487294D01*
X122972082Y-133443591D01*
X122984855Y-133373753D01*
X123033357Y-133321907D01*
X123102190Y-133304513D01*
X123171452Y-133328486D01*
X123291990Y-133416062D01*
X123298018Y-133418746D01*
X123298020Y-133418747D01*
X123353821Y-133443591D01*
X123466454Y-133493738D01*
X123559854Y-133513591D01*
X123646798Y-133532072D01*
X123646803Y-133532072D01*
X123653255Y-133533444D01*
X123844229Y-133533444D01*
X123850681Y-133532072D01*
X123850686Y-133532072D01*
X123937630Y-133513591D01*
X124031030Y-133493738D01*
X124143663Y-133443591D01*
X124199464Y-133418747D01*
X124199466Y-133418746D01*
X124205494Y-133416062D01*
X124359995Y-133303810D01*
X124364417Y-133298899D01*
X124483363Y-133166796D01*
X124483364Y-133166795D01*
X124487782Y-133161888D01*
X124583269Y-132996500D01*
X124642284Y-132814872D01*
X124646178Y-132777829D01*
X124661556Y-132631509D01*
X124662246Y-132624944D01*
X124653292Y-132539750D01*
X124642974Y-132441579D01*
X124642974Y-132441577D01*
X124642284Y-132435016D01*
X124640244Y-132428739D01*
X124638871Y-132422278D01*
X124640736Y-132421882D01*
X124638971Y-132360090D01*
X124675634Y-132299292D01*
X124739346Y-132267967D01*
X124760831Y-132266122D01*
X126880722Y-132266122D01*
X126948843Y-132286124D01*
X126968069Y-132302465D01*
X126968342Y-132302162D01*
X126973254Y-132306585D01*
X126977669Y-132311488D01*
X126999251Y-132327168D01*
X127098006Y-132398918D01*
X127132170Y-132423740D01*
X127138198Y-132426424D01*
X127138200Y-132426425D01*
X127237990Y-132470854D01*
X127306634Y-132501416D01*
X127400034Y-132521269D01*
X127486978Y-132539750D01*
X127486983Y-132539750D01*
X127493435Y-132541122D01*
X127684409Y-132541122D01*
X127690861Y-132539750D01*
X127690866Y-132539750D01*
X127777810Y-132521269D01*
X127871210Y-132501416D01*
X127939854Y-132470854D01*
X128039644Y-132426425D01*
X128039646Y-132426424D01*
X128045674Y-132423740D01*
X128079839Y-132398918D01*
X128129374Y-132362928D01*
X128200175Y-132311488D01*
X128223013Y-132286124D01*
X128323543Y-132174474D01*
X128323544Y-132174473D01*
X128327962Y-132169566D01*
X128386236Y-132068632D01*
X128420145Y-132009901D01*
X128420146Y-132009900D01*
X128423449Y-132004178D01*
X128482464Y-131822550D01*
X128488925Y-131761082D01*
X128501736Y-131639187D01*
X128502426Y-131632622D01*
X128497371Y-131584527D01*
X128483154Y-131449257D01*
X128483154Y-131449255D01*
X128482464Y-131442694D01*
X128423449Y-131261066D01*
X128327962Y-131095678D01*
X128200175Y-130953756D01*
X128088635Y-130872717D01*
X128051016Y-130845385D01*
X128051015Y-130845384D01*
X128045674Y-130841504D01*
X128039646Y-130838820D01*
X128039644Y-130838819D01*
X127877241Y-130766513D01*
X127877240Y-130766513D01*
X127871210Y-130763828D01*
X127777810Y-130743975D01*
X127690866Y-130725494D01*
X127690861Y-130725494D01*
X127684409Y-130724122D01*
X127493435Y-130724122D01*
X127486983Y-130725494D01*
X127486978Y-130725494D01*
X127400034Y-130743975D01*
X127306634Y-130763828D01*
X127300604Y-130766513D01*
X127300603Y-130766513D01*
X127138200Y-130838819D01*
X127138198Y-130838820D01*
X127132170Y-130841504D01*
X127126829Y-130845384D01*
X127126828Y-130845385D01*
X127089209Y-130872717D01*
X126977669Y-130953756D01*
X126973254Y-130958659D01*
X126968342Y-130963082D01*
X126967217Y-130961833D01*
X126913908Y-130994673D01*
X126880722Y-130999122D01*
X119313324Y-130999122D01*
X119245203Y-130979120D01*
X119224229Y-130962217D01*
X118070266Y-129808254D01*
X118036240Y-129745942D01*
X118041305Y-129675127D01*
X118085299Y-129617224D01*
X118152354Y-129568506D01*
X118157643Y-129562632D01*
X118275722Y-129431492D01*
X118275723Y-129431491D01*
X118280141Y-129426584D01*
X118375628Y-129261196D01*
X118434643Y-129079568D01*
X118452012Y-128914316D01*
X118453915Y-128896205D01*
X118454605Y-128889640D01*
X118437003Y-128722162D01*
X118435333Y-128706275D01*
X118435333Y-128706273D01*
X118434643Y-128699712D01*
X118375628Y-128518084D01*
X118280141Y-128352696D01*
X118152354Y-128210774D01*
X117997853Y-128098522D01*
X117991825Y-128095838D01*
X117991823Y-128095837D01*
X117829420Y-128023531D01*
X117829419Y-128023531D01*
X117823389Y-128020846D01*
X117729988Y-128000993D01*
X117643045Y-127982512D01*
X117643040Y-127982512D01*
X117636588Y-127981140D01*
X117499234Y-127981140D01*
X117431113Y-127961138D01*
X117410139Y-127944235D01*
X115326671Y-125860766D01*
X115292645Y-125798454D01*
X115290456Y-125758502D01*
X115296847Y-125697689D01*
X115296847Y-125697687D01*
X115297537Y-125691122D01*
X115290409Y-125623305D01*
X115278265Y-125507757D01*
X115278265Y-125507755D01*
X115277575Y-125501194D01*
X115218560Y-125319566D01*
X115123073Y-125154178D01*
X115082134Y-125108710D01*
X114999708Y-125017167D01*
X114999707Y-125017166D01*
X114995286Y-125012256D01*
X114840785Y-124900004D01*
X114834757Y-124897320D01*
X114834755Y-124897319D01*
X114813298Y-124887766D01*
X114759202Y-124841786D01*
X114738553Y-124773859D01*
X114757905Y-124705550D01*
X114775452Y-124683564D01*
X115109858Y-124349158D01*
X118853327Y-124349158D01*
X118854017Y-124355723D01*
X118871493Y-124521995D01*
X118873289Y-124539086D01*
X118932304Y-124720714D01*
X119027791Y-124886102D01*
X119032209Y-124891009D01*
X119032210Y-124891010D01*
X119141380Y-125012256D01*
X119155578Y-125028024D01*
X119310079Y-125140276D01*
X119316107Y-125142960D01*
X119316109Y-125142961D01*
X119354146Y-125159896D01*
X119484543Y-125217952D01*
X119577944Y-125237805D01*
X119664887Y-125256286D01*
X119664892Y-125256286D01*
X119671344Y-125257658D01*
X119862318Y-125257658D01*
X119868770Y-125256286D01*
X119868775Y-125256286D01*
X119955718Y-125237805D01*
X120049119Y-125217952D01*
X120179516Y-125159896D01*
X120217553Y-125142961D01*
X120217555Y-125142960D01*
X120223583Y-125140276D01*
X120378084Y-125028024D01*
X120392282Y-125012256D01*
X120501452Y-124891010D01*
X120501453Y-124891009D01*
X120505871Y-124886102D01*
X120601358Y-124720714D01*
X120660373Y-124539086D01*
X120662170Y-124521995D01*
X120677738Y-124373866D01*
X120704751Y-124308209D01*
X120713953Y-124297940D01*
X121151490Y-123860404D01*
X121213802Y-123826379D01*
X121240585Y-123823500D01*
X123751800Y-123823500D01*
X123819921Y-123843502D01*
X123839147Y-123859843D01*
X123839420Y-123859540D01*
X123844332Y-123863963D01*
X123848747Y-123868866D01*
X123854086Y-123872745D01*
X123993011Y-123973680D01*
X124003248Y-123981118D01*
X124009276Y-123983802D01*
X124009278Y-123983803D01*
X124152473Y-124047557D01*
X124177712Y-124058794D01*
X124271112Y-124078647D01*
X124358056Y-124097128D01*
X124358061Y-124097128D01*
X124364513Y-124098500D01*
X124555487Y-124098500D01*
X124561939Y-124097128D01*
X124561944Y-124097128D01*
X124703716Y-124066993D01*
X124774507Y-124072395D01*
X124831139Y-124115212D01*
X124855633Y-124181850D01*
X124849746Y-124229176D01*
X124836458Y-124270072D01*
X124816496Y-124460000D01*
X124817186Y-124466565D01*
X124829399Y-124582761D01*
X124836458Y-124649928D01*
X124895473Y-124831556D01*
X124990960Y-124996944D01*
X125003338Y-125010691D01*
X125034054Y-125074697D01*
X125025290Y-125145150D01*
X125003339Y-125179307D01*
X124990960Y-125193056D01*
X124895473Y-125358444D01*
X124836458Y-125540072D01*
X124835768Y-125546633D01*
X124835768Y-125546635D01*
X124819892Y-125697689D01*
X124816496Y-125730000D01*
X124817186Y-125736565D01*
X124823892Y-125800365D01*
X124836458Y-125919928D01*
X124895473Y-126101556D01*
X124898776Y-126107278D01*
X124898777Y-126107279D01*
X124911015Y-126128475D01*
X124990960Y-126266944D01*
X125003338Y-126280691D01*
X125034054Y-126344697D01*
X125025290Y-126415150D01*
X125003339Y-126449307D01*
X124990960Y-126463056D01*
X124987659Y-126468774D01*
X124900807Y-126619206D01*
X124895473Y-126628444D01*
X124836458Y-126810072D01*
X124835768Y-126816633D01*
X124835768Y-126816635D01*
X124832215Y-126850443D01*
X124816496Y-127000000D01*
X124817186Y-127006565D01*
X124835277Y-127178688D01*
X124836458Y-127189928D01*
X124895473Y-127371556D01*
X124990960Y-127536944D01*
X125118747Y-127678866D01*
X125273248Y-127791118D01*
X125279276Y-127793802D01*
X125279278Y-127793803D01*
X125441681Y-127866109D01*
X125447712Y-127868794D01*
X125541112Y-127888647D01*
X125628056Y-127907128D01*
X125628061Y-127907128D01*
X125634513Y-127908500D01*
X125825487Y-127908500D01*
X125831939Y-127907128D01*
X125831944Y-127907128D01*
X125918888Y-127888647D01*
X126012288Y-127868794D01*
X126018319Y-127866109D01*
X126180722Y-127793803D01*
X126180724Y-127793802D01*
X126186752Y-127791118D01*
X126341253Y-127678866D01*
X126345668Y-127673963D01*
X126350580Y-127669540D01*
X126351705Y-127670789D01*
X126405014Y-127637949D01*
X126438200Y-127633500D01*
X126685406Y-127633500D01*
X126753527Y-127653502D01*
X126774501Y-127670405D01*
X131409595Y-132305500D01*
X131443621Y-132367812D01*
X131446500Y-132394595D01*
X131446500Y-144077476D01*
X131426498Y-144145597D01*
X131414142Y-144161779D01*
X131340960Y-144243056D01*
X131245473Y-144408444D01*
X131186458Y-144590072D01*
X131185768Y-144596633D01*
X131185768Y-144596635D01*
X131172008Y-144727556D01*
X131166496Y-144780000D01*
X131167186Y-144786565D01*
X131181862Y-144926196D01*
X131186458Y-144969928D01*
X131245473Y-145151556D01*
X131340960Y-145316944D01*
X131468747Y-145458866D01*
X131623248Y-145571118D01*
X131629276Y-145573802D01*
X131629278Y-145573803D01*
X131680962Y-145596814D01*
X131797712Y-145648794D01*
X131891113Y-145668647D01*
X131978056Y-145687128D01*
X131978061Y-145687128D01*
X131984513Y-145688500D01*
X132175487Y-145688500D01*
X132181939Y-145687128D01*
X132181944Y-145687128D01*
X132268887Y-145668647D01*
X132362288Y-145648794D01*
X132479038Y-145596814D01*
X132530722Y-145573803D01*
X132530724Y-145573802D01*
X132536752Y-145571118D01*
X132691253Y-145458866D01*
X132819040Y-145316944D01*
X132914527Y-145151556D01*
X132973542Y-144969928D01*
X132978139Y-144926196D01*
X132992814Y-144786565D01*
X132993504Y-144780000D01*
X132987992Y-144727556D01*
X132974232Y-144596635D01*
X132974232Y-144596633D01*
X132973542Y-144590072D01*
X132960254Y-144549176D01*
X132958226Y-144478209D01*
X132994889Y-144417411D01*
X133058601Y-144386085D01*
X133106284Y-144386993D01*
X133248056Y-144417128D01*
X133248061Y-144417128D01*
X133254513Y-144418500D01*
X133445487Y-144418500D01*
X133451939Y-144417128D01*
X133451944Y-144417128D01*
X133538887Y-144398647D01*
X133632288Y-144378794D01*
X133695092Y-144350832D01*
X133800722Y-144303803D01*
X133800724Y-144303802D01*
X133806752Y-144301118D01*
X133843934Y-144274104D01*
X133886667Y-144243056D01*
X133961253Y-144188866D01*
X133993781Y-144152740D01*
X134084621Y-144051852D01*
X134084622Y-144051851D01*
X134089040Y-144046944D01*
X134152024Y-143937852D01*
X134181223Y-143887279D01*
X134181224Y-143887278D01*
X134184527Y-143881556D01*
X134243542Y-143699928D01*
X134246191Y-143674730D01*
X134262814Y-143516565D01*
X134263504Y-143510000D01*
X134250420Y-143385512D01*
X134244232Y-143326635D01*
X134244232Y-143326633D01*
X134243542Y-143320072D01*
X134184527Y-143138444D01*
X134089040Y-142973056D01*
X134015863Y-142891785D01*
X133985147Y-142827779D01*
X133983500Y-142807476D01*
X133983500Y-141874782D01*
X134003502Y-141806661D01*
X134057158Y-141760168D01*
X134127432Y-141750064D01*
X134162730Y-141762282D01*
X134163248Y-141761118D01*
X134337712Y-141838794D01*
X134431112Y-141858647D01*
X134518056Y-141877128D01*
X134518061Y-141877128D01*
X134524513Y-141878500D01*
X134715487Y-141878500D01*
X134721939Y-141877128D01*
X134721944Y-141877128D01*
X134808888Y-141858647D01*
X134902288Y-141838794D01*
X134924704Y-141828814D01*
X135070722Y-141763803D01*
X135070724Y-141763802D01*
X135076752Y-141761118D01*
X135091967Y-141750064D01*
X135203875Y-141668757D01*
X135231253Y-141648866D01*
X135235675Y-141643955D01*
X135354621Y-141511852D01*
X135354622Y-141511851D01*
X135359040Y-141506944D01*
X135430629Y-141382949D01*
X135451223Y-141347279D01*
X135451224Y-141347278D01*
X135454527Y-141341556D01*
X135513542Y-141159928D01*
X135520379Y-141094883D01*
X135532814Y-140976565D01*
X135533504Y-140970000D01*
X135516665Y-140809781D01*
X135514232Y-140786635D01*
X135514232Y-140786633D01*
X135513542Y-140780072D01*
X135454527Y-140598444D01*
X135359040Y-140433056D01*
X135285863Y-140351785D01*
X135255147Y-140287779D01*
X135253500Y-140267476D01*
X135253500Y-139334782D01*
X135273502Y-139266661D01*
X135327158Y-139220168D01*
X135397432Y-139210064D01*
X135432730Y-139222282D01*
X135433248Y-139221118D01*
X135600936Y-139295777D01*
X135607712Y-139298794D01*
X135701112Y-139318647D01*
X135788056Y-139337128D01*
X135788061Y-139337128D01*
X135794513Y-139338500D01*
X135985487Y-139338500D01*
X135991939Y-139337128D01*
X135991944Y-139337128D01*
X136078888Y-139318647D01*
X136172288Y-139298794D01*
X136178878Y-139295860D01*
X136340722Y-139223803D01*
X136340724Y-139223802D01*
X136346752Y-139221118D01*
X136361967Y-139210064D01*
X136440866Y-139152740D01*
X136501253Y-139108866D01*
X136571133Y-139031256D01*
X136624621Y-138971852D01*
X136624622Y-138971851D01*
X136629040Y-138966944D01*
X136715613Y-138816996D01*
X136721223Y-138807279D01*
X136721224Y-138807278D01*
X136724527Y-138801556D01*
X136783542Y-138619928D01*
X136792347Y-138536158D01*
X136802814Y-138436565D01*
X136803504Y-138430000D01*
X136791008Y-138311105D01*
X136784232Y-138246635D01*
X136784232Y-138246633D01*
X136783542Y-138240072D01*
X136724527Y-138058444D01*
X136715858Y-138043428D01*
X136678203Y-137978209D01*
X136629040Y-137893056D01*
X136555863Y-137811785D01*
X136525147Y-137747779D01*
X136523500Y-137727476D01*
X136523500Y-135890000D01*
X170536496Y-135890000D01*
X170537186Y-135896565D01*
X170551858Y-136036158D01*
X170556458Y-136079928D01*
X170615473Y-136261556D01*
X170710960Y-136426944D01*
X170715378Y-136431851D01*
X170715379Y-136431852D01*
X170823444Y-136551870D01*
X170838747Y-136568866D01*
X170875868Y-136595836D01*
X170976235Y-136668757D01*
X170993248Y-136681118D01*
X170999276Y-136683802D01*
X170999278Y-136683803D01*
X171100247Y-136728757D01*
X171167712Y-136758794D01*
X171261113Y-136778647D01*
X171348056Y-136797128D01*
X171348061Y-136797128D01*
X171354513Y-136798500D01*
X171545487Y-136798500D01*
X171551939Y-136797128D01*
X171551944Y-136797128D01*
X171638887Y-136778647D01*
X171732288Y-136758794D01*
X171799753Y-136728757D01*
X171900722Y-136683803D01*
X171900724Y-136683802D01*
X171906752Y-136681118D01*
X171925978Y-136667149D01*
X171992844Y-136643291D01*
X172061996Y-136659370D01*
X172111477Y-136710283D01*
X172114986Y-136718583D01*
X172115338Y-136718426D01*
X172118022Y-136724454D01*
X172120064Y-136730739D01*
X172123367Y-136736461D01*
X172123368Y-136736462D01*
X172137054Y-136760166D01*
X172215551Y-136896127D01*
X172219969Y-136901034D01*
X172219970Y-136901035D01*
X172305062Y-136995539D01*
X172343338Y-137038049D01*
X172389448Y-137071550D01*
X172473011Y-137132262D01*
X172497839Y-137150301D01*
X172503867Y-137152985D01*
X172503869Y-137152986D01*
X172605721Y-137198333D01*
X172672303Y-137227977D01*
X172765703Y-137247830D01*
X172852647Y-137266311D01*
X172852652Y-137266311D01*
X172859104Y-137267683D01*
X173050078Y-137267683D01*
X173056530Y-137266311D01*
X173056535Y-137266311D01*
X173143479Y-137247830D01*
X173236879Y-137227977D01*
X173303461Y-137198333D01*
X173405313Y-137152986D01*
X173405315Y-137152985D01*
X173411343Y-137150301D01*
X173436172Y-137132262D01*
X173519734Y-137071550D01*
X173565844Y-137038049D01*
X173604120Y-136995539D01*
X173689212Y-136901035D01*
X173689213Y-136901034D01*
X173693631Y-136896127D01*
X173772128Y-136760166D01*
X173785814Y-136736462D01*
X173785815Y-136736461D01*
X173789118Y-136730739D01*
X173848133Y-136549111D01*
X173849009Y-136540783D01*
X173867405Y-136365748D01*
X173868095Y-136359183D01*
X173864165Y-136321791D01*
X173848823Y-136175818D01*
X173848823Y-136175816D01*
X173848133Y-136169255D01*
X173789118Y-135987627D01*
X173693631Y-135822239D01*
X173583632Y-135700072D01*
X173570266Y-135685228D01*
X173570265Y-135685227D01*
X173565844Y-135680317D01*
X173431233Y-135582516D01*
X173416685Y-135571946D01*
X173416684Y-135571945D01*
X173411343Y-135568065D01*
X173405315Y-135565381D01*
X173405313Y-135565380D01*
X173242910Y-135493074D01*
X173242909Y-135493074D01*
X173236879Y-135490389D01*
X173166256Y-135475378D01*
X173103784Y-135441650D01*
X173069462Y-135379500D01*
X173066454Y-135352131D01*
X173066454Y-133713810D01*
X173086456Y-133645689D01*
X173140112Y-133599196D01*
X173210386Y-133589092D01*
X173274966Y-133618586D01*
X173289538Y-133633494D01*
X173425234Y-133797521D01*
X173425240Y-133797527D01*
X173427767Y-133800582D01*
X173657860Y-134016654D01*
X173661062Y-134018981D01*
X173661064Y-134018982D01*
X173713631Y-134057174D01*
X173913221Y-134202184D01*
X173916690Y-134204091D01*
X173916693Y-134204093D01*
X174176635Y-134346998D01*
X174189821Y-134354247D01*
X174193490Y-134355700D01*
X174193495Y-134355702D01*
X174479628Y-134468990D01*
X174483298Y-134470443D01*
X174789025Y-134548940D01*
X175102179Y-134588500D01*
X175417821Y-134588500D01*
X175730975Y-134548940D01*
X176036702Y-134470443D01*
X176040372Y-134468990D01*
X176326505Y-134355702D01*
X176326510Y-134355700D01*
X176330179Y-134354247D01*
X176343365Y-134346998D01*
X176603307Y-134204093D01*
X176603310Y-134204091D01*
X176606779Y-134202184D01*
X176806369Y-134057174D01*
X176858936Y-134018982D01*
X176858938Y-134018981D01*
X176862140Y-134016654D01*
X177092233Y-133800582D01*
X177293432Y-133557375D01*
X177462562Y-133290869D01*
X177464246Y-133287290D01*
X177464250Y-133287283D01*
X177595267Y-133008856D01*
X177595269Y-133008852D01*
X177596956Y-133005266D01*
X177694495Y-132705072D01*
X177753641Y-132395020D01*
X177773460Y-132080000D01*
X177753641Y-131764980D01*
X177694495Y-131454928D01*
X177605847Y-131182098D01*
X177598182Y-131158507D01*
X177598182Y-131158506D01*
X177596956Y-131154734D01*
X177582774Y-131124595D01*
X177464250Y-130872717D01*
X177464246Y-130872710D01*
X177462562Y-130869131D01*
X177293432Y-130602625D01*
X177092233Y-130359418D01*
X176862140Y-130143346D01*
X176847939Y-130133028D01*
X176756897Y-130066883D01*
X176606779Y-129957816D01*
X176495407Y-129896588D01*
X176333648Y-129807660D01*
X176333647Y-129807659D01*
X176330179Y-129805753D01*
X176326510Y-129804300D01*
X176326505Y-129804298D01*
X176040372Y-129691010D01*
X176040371Y-129691010D01*
X176036702Y-129689557D01*
X175730975Y-129611060D01*
X175417821Y-129571500D01*
X175102179Y-129571500D01*
X174789025Y-129611060D01*
X174483298Y-129689557D01*
X174479629Y-129691010D01*
X174479628Y-129691010D01*
X174193495Y-129804298D01*
X174193490Y-129804300D01*
X174189821Y-129805753D01*
X174186353Y-129807659D01*
X174186352Y-129807660D01*
X174024594Y-129896588D01*
X173913221Y-129957816D01*
X173763103Y-130066883D01*
X173672062Y-130133028D01*
X173657860Y-130143346D01*
X173427767Y-130359418D01*
X173425242Y-130362470D01*
X173425234Y-130362479D01*
X173289538Y-130526506D01*
X173230705Y-130566244D01*
X173159727Y-130567865D01*
X173099139Y-130530856D01*
X173068179Y-130466966D01*
X173066454Y-130446190D01*
X173066454Y-127636996D01*
X173086456Y-127568875D01*
X173103359Y-127547901D01*
X173946893Y-126704367D01*
X174009205Y-126670341D01*
X174080020Y-126675406D01*
X174096686Y-126683046D01*
X174189821Y-126734247D01*
X174483298Y-126850443D01*
X174789025Y-126928940D01*
X175102179Y-126968500D01*
X175417821Y-126968500D01*
X175730975Y-126928940D01*
X176036702Y-126850443D01*
X176122091Y-126816635D01*
X176326505Y-126735702D01*
X176326510Y-126735700D01*
X176330179Y-126734247D01*
X176511201Y-126634729D01*
X176603307Y-126584093D01*
X176603310Y-126584091D01*
X176606779Y-126582184D01*
X176862140Y-126396654D01*
X177092233Y-126180582D01*
X177137660Y-126125671D01*
X177290907Y-125940427D01*
X177293432Y-125937375D01*
X177442917Y-125701825D01*
X177460438Y-125674216D01*
X177460438Y-125674215D01*
X177462562Y-125670869D01*
X177464246Y-125667290D01*
X177464250Y-125667283D01*
X177595267Y-125388856D01*
X177595269Y-125388852D01*
X177596956Y-125385266D01*
X177694495Y-125085072D01*
X177753641Y-124775020D01*
X177773460Y-124460000D01*
X177753641Y-124144980D01*
X177694495Y-123834928D01*
X177596956Y-123534734D01*
X177553333Y-123442030D01*
X177464250Y-123252717D01*
X177464246Y-123252710D01*
X177462562Y-123249131D01*
X177293432Y-122982625D01*
X177152875Y-122812721D01*
X177094758Y-122742470D01*
X177094757Y-122742469D01*
X177092233Y-122739418D01*
X177071416Y-122719869D01*
X177040747Y-122691069D01*
X176862140Y-122523346D01*
X176846052Y-122511657D01*
X176785204Y-122467449D01*
X176606779Y-122337816D01*
X176563415Y-122313976D01*
X176333648Y-122187660D01*
X176333647Y-122187659D01*
X176330179Y-122185753D01*
X176326510Y-122184300D01*
X176326505Y-122184298D01*
X176040372Y-122071010D01*
X176040371Y-122071010D01*
X176036702Y-122069557D01*
X175730975Y-121991060D01*
X175417821Y-121951500D01*
X175102179Y-121951500D01*
X174789025Y-121991060D01*
X174483298Y-122069557D01*
X174479629Y-122071010D01*
X174479628Y-122071010D01*
X174193495Y-122184298D01*
X174193490Y-122184300D01*
X174189821Y-122185753D01*
X174186353Y-122187659D01*
X174186352Y-122187660D01*
X173956586Y-122313976D01*
X173913221Y-122337816D01*
X173734796Y-122467449D01*
X173673949Y-122511657D01*
X173657860Y-122523346D01*
X173479253Y-122691069D01*
X173448585Y-122719869D01*
X173427767Y-122739418D01*
X173425243Y-122742469D01*
X173425242Y-122742470D01*
X173367125Y-122812721D01*
X173226568Y-122982625D01*
X173057438Y-123249131D01*
X173055754Y-123252710D01*
X173055750Y-123252717D01*
X172966667Y-123442030D01*
X172923044Y-123534734D01*
X172825505Y-123834928D01*
X172766359Y-124144980D01*
X172746540Y-124460000D01*
X172766359Y-124775020D01*
X172825505Y-125085072D01*
X172923044Y-125385266D01*
X173039072Y-125631840D01*
X173049978Y-125701992D01*
X173021225Y-125766905D01*
X173014159Y-125774581D01*
X172323595Y-126465145D01*
X172261283Y-126499171D01*
X172190468Y-126494106D01*
X172133632Y-126451559D01*
X172108821Y-126385039D01*
X172108500Y-126376050D01*
X172108500Y-120974950D01*
X172128502Y-120906829D01*
X172145405Y-120885855D01*
X173946893Y-119084367D01*
X174009205Y-119050341D01*
X174080020Y-119055406D01*
X174096686Y-119063046D01*
X174189821Y-119114247D01*
X174483298Y-119230443D01*
X174789025Y-119308940D01*
X175102179Y-119348500D01*
X175417821Y-119348500D01*
X175730975Y-119308940D01*
X176036702Y-119230443D01*
X176122091Y-119196635D01*
X176326505Y-119115702D01*
X176326510Y-119115700D01*
X176330179Y-119114247D01*
X176460258Y-119042735D01*
X176603307Y-118964093D01*
X176603310Y-118964091D01*
X176606779Y-118962184D01*
X176843604Y-118790121D01*
X176858936Y-118778982D01*
X176858938Y-118778981D01*
X176862140Y-118776654D01*
X177092233Y-118560582D01*
X177293432Y-118317375D01*
X177462562Y-118050869D01*
X177464246Y-118047290D01*
X177464250Y-118047283D01*
X177595267Y-117768856D01*
X177595269Y-117768852D01*
X177596956Y-117765266D01*
X177694495Y-117465072D01*
X177753641Y-117155020D01*
X177773460Y-116840000D01*
X177753641Y-116524980D01*
X177694495Y-116214928D01*
X177596956Y-115914734D01*
X177552677Y-115820635D01*
X177464250Y-115632717D01*
X177464246Y-115632710D01*
X177462562Y-115629131D01*
X177293432Y-115362625D01*
X177092233Y-115119418D01*
X176862140Y-114903346D01*
X176606779Y-114717816D01*
X176588268Y-114707639D01*
X176333648Y-114567660D01*
X176333647Y-114567659D01*
X176330179Y-114565753D01*
X176326510Y-114564300D01*
X176326505Y-114564298D01*
X176040372Y-114451010D01*
X176040371Y-114451010D01*
X176036702Y-114449557D01*
X175730975Y-114371060D01*
X175417821Y-114331500D01*
X175102179Y-114331500D01*
X174789025Y-114371060D01*
X174483298Y-114449557D01*
X174479629Y-114451010D01*
X174479628Y-114451010D01*
X174193495Y-114564298D01*
X174193490Y-114564300D01*
X174189821Y-114565753D01*
X174186353Y-114567659D01*
X174186352Y-114567660D01*
X173931733Y-114707639D01*
X173913221Y-114717816D01*
X173657860Y-114903346D01*
X173427767Y-115119418D01*
X173226568Y-115362625D01*
X173057438Y-115629131D01*
X173055754Y-115632710D01*
X173055750Y-115632717D01*
X172967323Y-115820635D01*
X172923044Y-115914734D01*
X172825505Y-116214928D01*
X172766359Y-116524980D01*
X172746540Y-116840000D01*
X172766359Y-117155020D01*
X172825505Y-117465072D01*
X172923044Y-117765266D01*
X172924731Y-117768852D01*
X172924733Y-117768856D01*
X172927195Y-117774087D01*
X173039072Y-118011840D01*
X173049978Y-118081992D01*
X173021225Y-118146905D01*
X173014159Y-118154581D01*
X171042395Y-120126345D01*
X171033615Y-120134335D01*
X171033613Y-120134337D01*
X171026920Y-120138584D01*
X171021494Y-120144362D01*
X171021493Y-120144363D01*
X170978396Y-120190257D01*
X170975641Y-120193099D01*
X170955073Y-120213667D01*
X170952356Y-120217170D01*
X170944648Y-120226195D01*
X170913028Y-120259867D01*
X170909207Y-120266818D01*
X170909206Y-120266819D01*
X170902697Y-120278658D01*
X170891843Y-120295182D01*
X170884018Y-120305271D01*
X170878696Y-120312132D01*
X170875549Y-120319404D01*
X170875548Y-120319406D01*
X170860346Y-120354535D01*
X170855124Y-120365195D01*
X170844282Y-120384917D01*
X170832876Y-120405663D01*
X170827541Y-120426441D01*
X170821142Y-120445131D01*
X170812620Y-120464824D01*
X170811380Y-120472655D01*
X170805394Y-120510448D01*
X170802987Y-120522071D01*
X170791500Y-120566812D01*
X170791500Y-120588259D01*
X170789949Y-120607969D01*
X170786594Y-120629152D01*
X170787340Y-120637043D01*
X170790941Y-120675138D01*
X170791500Y-120686996D01*
X170791500Y-135215241D01*
X170771498Y-135283362D01*
X170759136Y-135299551D01*
X170732851Y-135328744D01*
X170710960Y-135353056D01*
X170671070Y-135422148D01*
X170631671Y-135490389D01*
X170615473Y-135518444D01*
X170556458Y-135700072D01*
X170555768Y-135706633D01*
X170555768Y-135706635D01*
X170549195Y-135769173D01*
X170536496Y-135890000D01*
X136523500Y-135890000D01*
X136523500Y-130888767D01*
X136524027Y-130877584D01*
X136525702Y-130870091D01*
X136523562Y-130802000D01*
X136523500Y-130798043D01*
X136523500Y-130770144D01*
X136522996Y-130766153D01*
X136522063Y-130754311D01*
X136521158Y-130725494D01*
X136520674Y-130710111D01*
X136518462Y-130702497D01*
X136518461Y-130702492D01*
X136515023Y-130690659D01*
X136511012Y-130671295D01*
X136509467Y-130659064D01*
X136508474Y-130651203D01*
X136505557Y-130643836D01*
X136505556Y-130643831D01*
X136492198Y-130610092D01*
X136488354Y-130598865D01*
X136478230Y-130564022D01*
X136476018Y-130556407D01*
X136465707Y-130538972D01*
X136457012Y-130521224D01*
X136449552Y-130502383D01*
X136423564Y-130466613D01*
X136417048Y-130456693D01*
X136398580Y-130425465D01*
X136398578Y-130425462D01*
X136394542Y-130418638D01*
X136380221Y-130404317D01*
X136367380Y-130389283D01*
X136362142Y-130382074D01*
X136355472Y-130372893D01*
X136321395Y-130344702D01*
X136312616Y-130336712D01*
X126677122Y-120701217D01*
X126643096Y-120638905D01*
X126640907Y-120625292D01*
X126639645Y-120613279D01*
X126623542Y-120460072D01*
X126564527Y-120278444D01*
X126550465Y-120254087D01*
X126515253Y-120193099D01*
X126469040Y-120113056D01*
X126423744Y-120062749D01*
X126345675Y-119976045D01*
X126345674Y-119976044D01*
X126341253Y-119971134D01*
X126186752Y-119858882D01*
X126180724Y-119856198D01*
X126180722Y-119856197D01*
X126018319Y-119783891D01*
X126018318Y-119783891D01*
X126012288Y-119781206D01*
X125898686Y-119757059D01*
X125831944Y-119742872D01*
X125831939Y-119742872D01*
X125825487Y-119741500D01*
X125634513Y-119741500D01*
X125628061Y-119742872D01*
X125628056Y-119742872D01*
X125561314Y-119757059D01*
X125447712Y-119781206D01*
X125441682Y-119783891D01*
X125441681Y-119783891D01*
X125279278Y-119856197D01*
X125279276Y-119856198D01*
X125273248Y-119858882D01*
X125118747Y-119971134D01*
X125114326Y-119976044D01*
X125114325Y-119976045D01*
X125036257Y-120062749D01*
X124990960Y-120113056D01*
X124944747Y-120193099D01*
X124909536Y-120254087D01*
X124895473Y-120278444D01*
X124836458Y-120460072D01*
X124816496Y-120650000D01*
X124836458Y-120839928D01*
X124895473Y-121021556D01*
X124990960Y-121186944D01*
X124995378Y-121191851D01*
X124995379Y-121191852D01*
X125089175Y-121296023D01*
X125118747Y-121328866D01*
X125273248Y-121441118D01*
X125279276Y-121443802D01*
X125279278Y-121443803D01*
X125441681Y-121516109D01*
X125447712Y-121518794D01*
X125541113Y-121538647D01*
X125628056Y-121557128D01*
X125628061Y-121557128D01*
X125634513Y-121558500D01*
X125690406Y-121558500D01*
X125758527Y-121578502D01*
X125779501Y-121595405D01*
X135219595Y-131035500D01*
X135253621Y-131097812D01*
X135256500Y-131124595D01*
X135256500Y-131516406D01*
X135236498Y-131584527D01*
X135182842Y-131631020D01*
X135112568Y-131641124D01*
X135047988Y-131611630D01*
X135041405Y-131605501D01*
X128689770Y-125253865D01*
X127503652Y-124067747D01*
X127496112Y-124059461D01*
X127492000Y-124052982D01*
X127442348Y-124006356D01*
X127439507Y-124003602D01*
X127419770Y-123983865D01*
X127416573Y-123981385D01*
X127407551Y-123973680D01*
X127381100Y-123948841D01*
X127375321Y-123943414D01*
X127368375Y-123939595D01*
X127368372Y-123939593D01*
X127357566Y-123933652D01*
X127341047Y-123922801D01*
X127340583Y-123922441D01*
X127325041Y-123910386D01*
X127317772Y-123907241D01*
X127317768Y-123907238D01*
X127284463Y-123892826D01*
X127273813Y-123887609D01*
X127235060Y-123866305D01*
X127215437Y-123861267D01*
X127196734Y-123854863D01*
X127185420Y-123849967D01*
X127185419Y-123849967D01*
X127178145Y-123846819D01*
X127170322Y-123845580D01*
X127170312Y-123845577D01*
X127134476Y-123839901D01*
X127122856Y-123837495D01*
X127087711Y-123828472D01*
X127087710Y-123828472D01*
X127080030Y-123826500D01*
X127059776Y-123826500D01*
X127040065Y-123824949D01*
X127027886Y-123823020D01*
X127020057Y-123821780D01*
X127012165Y-123822526D01*
X126976039Y-123825941D01*
X126964181Y-123826500D01*
X126438200Y-123826500D01*
X126370079Y-123806498D01*
X126350853Y-123790157D01*
X126350580Y-123790460D01*
X126345668Y-123786037D01*
X126341253Y-123781134D01*
X126186752Y-123668882D01*
X126180724Y-123666198D01*
X126180722Y-123666197D01*
X126018319Y-123593891D01*
X126018318Y-123593891D01*
X126012288Y-123591206D01*
X125918888Y-123571353D01*
X125831944Y-123552872D01*
X125831939Y-123552872D01*
X125825487Y-123551500D01*
X125634513Y-123551500D01*
X125628061Y-123552872D01*
X125628056Y-123552872D01*
X125486284Y-123583007D01*
X125415493Y-123577605D01*
X125358861Y-123534788D01*
X125334367Y-123468150D01*
X125340254Y-123420824D01*
X125351502Y-123386206D01*
X125353542Y-123379928D01*
X125373504Y-123190000D01*
X125353542Y-123000072D01*
X125294527Y-122818444D01*
X125199040Y-122653056D01*
X125189417Y-122642368D01*
X125075675Y-122516045D01*
X125075674Y-122516044D01*
X125071253Y-122511134D01*
X124972157Y-122439136D01*
X124922094Y-122402763D01*
X124922093Y-122402762D01*
X124916752Y-122398882D01*
X124910724Y-122396198D01*
X124910722Y-122396197D01*
X124748319Y-122323891D01*
X124748318Y-122323891D01*
X124742288Y-122321206D01*
X124648887Y-122301353D01*
X124561944Y-122282872D01*
X124561939Y-122282872D01*
X124555487Y-122281500D01*
X124364513Y-122281500D01*
X124358061Y-122282872D01*
X124358056Y-122282872D01*
X124271113Y-122301353D01*
X124177712Y-122321206D01*
X124171682Y-122323891D01*
X124171681Y-122323891D01*
X124009278Y-122396197D01*
X124009276Y-122396198D01*
X124003248Y-122398882D01*
X123997907Y-122402762D01*
X123997906Y-122402763D01*
X123929002Y-122452825D01*
X123848747Y-122511134D01*
X123844332Y-122516037D01*
X123839420Y-122520460D01*
X123838295Y-122519211D01*
X123784986Y-122552051D01*
X123751800Y-122556500D01*
X121004756Y-122556500D01*
X120993573Y-122555973D01*
X120986080Y-122554298D01*
X120978154Y-122554547D01*
X120978153Y-122554547D01*
X120917990Y-122556438D01*
X120914032Y-122556500D01*
X120886133Y-122556500D01*
X120882143Y-122557004D01*
X120870309Y-122557936D01*
X120826100Y-122559326D01*
X120818486Y-122561538D01*
X120818481Y-122561539D01*
X120806648Y-122564977D01*
X120787285Y-122568988D01*
X120767192Y-122571526D01*
X120759825Y-122574443D01*
X120759820Y-122574444D01*
X120726081Y-122587802D01*
X120714854Y-122591646D01*
X120672396Y-122603982D01*
X120665570Y-122608019D01*
X120654961Y-122614293D01*
X120637213Y-122622988D01*
X120618372Y-122630448D01*
X120611956Y-122635110D01*
X120611955Y-122635110D01*
X120582602Y-122656436D01*
X120572682Y-122662952D01*
X120541454Y-122681420D01*
X120541451Y-122681422D01*
X120534627Y-122685458D01*
X120520306Y-122699779D01*
X120505273Y-122712619D01*
X120488882Y-122724528D01*
X120483832Y-122730632D01*
X120483827Y-122730637D01*
X120460696Y-122758598D01*
X120452706Y-122767379D01*
X119816330Y-123403754D01*
X119754018Y-123437779D01*
X119727235Y-123440658D01*
X119671344Y-123440658D01*
X119664892Y-123442030D01*
X119664887Y-123442030D01*
X119577944Y-123460511D01*
X119484543Y-123480364D01*
X119478513Y-123483049D01*
X119478512Y-123483049D01*
X119316109Y-123555355D01*
X119316107Y-123555356D01*
X119310079Y-123558040D01*
X119304738Y-123561920D01*
X119304737Y-123561921D01*
X119254674Y-123598294D01*
X119155578Y-123670292D01*
X119151157Y-123675202D01*
X119151156Y-123675203D01*
X119055776Y-123781134D01*
X119027791Y-123812214D01*
X118982612Y-123890467D01*
X118954249Y-123939593D01*
X118932304Y-123977602D01*
X118873289Y-124159230D01*
X118872599Y-124165791D01*
X118872599Y-124165793D01*
X118865937Y-124229176D01*
X118853327Y-124349158D01*
X115109858Y-124349158D01*
X119667931Y-119791085D01*
X119730243Y-119757059D01*
X119757026Y-119754180D01*
X119818096Y-119754180D01*
X119886217Y-119774182D01*
X119932710Y-119827838D01*
X119937929Y-119841244D01*
X119952571Y-119886307D01*
X120048058Y-120051695D01*
X120052476Y-120056602D01*
X120052477Y-120056603D01*
X120152092Y-120167237D01*
X120175845Y-120193617D01*
X120267030Y-120259867D01*
X120315637Y-120295182D01*
X120330346Y-120305869D01*
X120336374Y-120308553D01*
X120336376Y-120308554D01*
X120439652Y-120354535D01*
X120504810Y-120383545D01*
X120576184Y-120398716D01*
X120685154Y-120421879D01*
X120685159Y-120421879D01*
X120691611Y-120423251D01*
X120882585Y-120423251D01*
X120889037Y-120421879D01*
X120889042Y-120421879D01*
X120998012Y-120398716D01*
X121069386Y-120383545D01*
X121134544Y-120354535D01*
X121237820Y-120308554D01*
X121237822Y-120308553D01*
X121243850Y-120305869D01*
X121258560Y-120295182D01*
X121307166Y-120259867D01*
X121398351Y-120193617D01*
X121422104Y-120167237D01*
X121521719Y-120056603D01*
X121521720Y-120056602D01*
X121526138Y-120051695D01*
X121621625Y-119886307D01*
X121656058Y-119780333D01*
X121678600Y-119710958D01*
X121678600Y-119710956D01*
X121680640Y-119704679D01*
X121685687Y-119656660D01*
X121712700Y-119591004D01*
X121770922Y-119550374D01*
X121784799Y-119546585D01*
X121809437Y-119541348D01*
X121809446Y-119541345D01*
X121815901Y-119539973D01*
X121854504Y-119522786D01*
X121984335Y-119464982D01*
X121984337Y-119464981D01*
X121990365Y-119462297D01*
X122103637Y-119380000D01*
X132436496Y-119380000D01*
X132437186Y-119386565D01*
X132454005Y-119546585D01*
X132456458Y-119569928D01*
X132515473Y-119751556D01*
X132518776Y-119757278D01*
X132518777Y-119757279D01*
X132534142Y-119783891D01*
X132610960Y-119916944D01*
X132615378Y-119921851D01*
X132615379Y-119921852D01*
X132734325Y-120053955D01*
X132738747Y-120058866D01*
X132893248Y-120171118D01*
X132899276Y-120173802D01*
X132899278Y-120173803D01*
X133061681Y-120246109D01*
X133067712Y-120248794D01*
X133161112Y-120268647D01*
X133248056Y-120287128D01*
X133248061Y-120287128D01*
X133254513Y-120288500D01*
X133445487Y-120288500D01*
X133451939Y-120287128D01*
X133451944Y-120287128D01*
X133538888Y-120268647D01*
X133632288Y-120248794D01*
X133638319Y-120246109D01*
X133800722Y-120173803D01*
X133800724Y-120173802D01*
X133806752Y-120171118D01*
X133868377Y-120126345D01*
X133953302Y-120064643D01*
X133961253Y-120058866D01*
X133965668Y-120053963D01*
X133970580Y-120049540D01*
X133971705Y-120050789D01*
X134025014Y-120017949D01*
X134058200Y-120013500D01*
X135575406Y-120013500D01*
X135643527Y-120033502D01*
X135664501Y-120050405D01*
X140631262Y-125017167D01*
X145594619Y-129980524D01*
X145602159Y-129988810D01*
X145606271Y-129995289D01*
X145612048Y-130000714D01*
X145655938Y-130041929D01*
X145658780Y-130044684D01*
X145678502Y-130064406D01*
X145681626Y-130066829D01*
X145681630Y-130066833D01*
X145681695Y-130066883D01*
X145690716Y-130074588D01*
X145722950Y-130104857D01*
X145729898Y-130108676D01*
X145729900Y-130108678D01*
X145740703Y-130114617D01*
X145757230Y-130125473D01*
X145766969Y-130133028D01*
X145766971Y-130133029D01*
X145773231Y-130137885D01*
X145813811Y-130155445D01*
X145824459Y-130160662D01*
X145863211Y-130181966D01*
X145870887Y-130183937D01*
X145870890Y-130183938D01*
X145882833Y-130187004D01*
X145901538Y-130193408D01*
X145920126Y-130201452D01*
X145927949Y-130202691D01*
X145927959Y-130202694D01*
X145963795Y-130208370D01*
X145975415Y-130210776D01*
X146010560Y-130219799D01*
X146018241Y-130221771D01*
X146038495Y-130221771D01*
X146058205Y-130223322D01*
X146078214Y-130226491D01*
X146086106Y-130225745D01*
X146122232Y-130222330D01*
X146134090Y-130221771D01*
X148132725Y-130221771D01*
X148200846Y-130241773D01*
X148220072Y-130258114D01*
X148220345Y-130257811D01*
X148225257Y-130262234D01*
X148229672Y-130267137D01*
X148251254Y-130282817D01*
X148353428Y-130357051D01*
X148384173Y-130379389D01*
X148390201Y-130382073D01*
X148390203Y-130382074D01*
X148534211Y-130446190D01*
X148558637Y-130457065D01*
X148634772Y-130473248D01*
X148738981Y-130495399D01*
X148738986Y-130495399D01*
X148745438Y-130496771D01*
X148936412Y-130496771D01*
X148942864Y-130495399D01*
X148942869Y-130495399D01*
X149047078Y-130473248D01*
X149123213Y-130457065D01*
X149147639Y-130446190D01*
X149291647Y-130382074D01*
X149291649Y-130382073D01*
X149297677Y-130379389D01*
X149328423Y-130357051D01*
X149356417Y-130336712D01*
X149452178Y-130267137D01*
X149488776Y-130226491D01*
X149575546Y-130130123D01*
X149575547Y-130130122D01*
X149579965Y-130125215D01*
X149669086Y-129970854D01*
X149672148Y-129965550D01*
X149672149Y-129965549D01*
X149675452Y-129959827D01*
X149734467Y-129778199D01*
X149754429Y-129588271D01*
X149752352Y-129568506D01*
X149735157Y-129404906D01*
X149735157Y-129404904D01*
X149734467Y-129398343D01*
X149675452Y-129216715D01*
X149579965Y-129051327D01*
X149452178Y-128909405D01*
X149297677Y-128797153D01*
X149291649Y-128794469D01*
X149291647Y-128794468D01*
X149129244Y-128722162D01*
X149129243Y-128722162D01*
X149123213Y-128719477D01*
X149029812Y-128699624D01*
X148942869Y-128681143D01*
X148942864Y-128681143D01*
X148936412Y-128679771D01*
X148745438Y-128679771D01*
X148738986Y-128681143D01*
X148738981Y-128681143D01*
X148652038Y-128699624D01*
X148558637Y-128719477D01*
X148552607Y-128722162D01*
X148552606Y-128722162D01*
X148390203Y-128794468D01*
X148390201Y-128794469D01*
X148384173Y-128797153D01*
X148229672Y-128909405D01*
X148225257Y-128914308D01*
X148220345Y-128918731D01*
X148219220Y-128917482D01*
X148165911Y-128950322D01*
X148132725Y-128954771D01*
X146412865Y-128954771D01*
X146344744Y-128934769D01*
X146323770Y-128917866D01*
X144553529Y-127147625D01*
X144519503Y-127085313D01*
X144524568Y-127014498D01*
X144568562Y-126956596D01*
X144607144Y-126928564D01*
X144676601Y-126851424D01*
X144730512Y-126791550D01*
X144730513Y-126791549D01*
X144734931Y-126786642D01*
X144822638Y-126634729D01*
X144827114Y-126626977D01*
X144827115Y-126626976D01*
X144830418Y-126621254D01*
X144889433Y-126439626D01*
X144893950Y-126396654D01*
X144908705Y-126256263D01*
X144909395Y-126249698D01*
X144896486Y-126126876D01*
X144890123Y-126066333D01*
X144890123Y-126066331D01*
X144889433Y-126059770D01*
X144830418Y-125878142D01*
X144734931Y-125712754D01*
X144730507Y-125707840D01*
X144686755Y-125659249D01*
X144656037Y-125595242D01*
X144654391Y-125574939D01*
X144654391Y-123029059D01*
X144674393Y-122960938D01*
X144691296Y-122939964D01*
X146505940Y-121125319D01*
X146568252Y-121091294D01*
X146595035Y-121088414D01*
X147479121Y-121088414D01*
X147547242Y-121108416D01*
X147553179Y-121112476D01*
X147702593Y-121221032D01*
X147708621Y-121223716D01*
X147708623Y-121223717D01*
X147871026Y-121296023D01*
X147877057Y-121298708D01*
X147970458Y-121318561D01*
X148057401Y-121337042D01*
X148057406Y-121337042D01*
X148063858Y-121338414D01*
X148254832Y-121338414D01*
X148261284Y-121337042D01*
X148261289Y-121337042D01*
X148348232Y-121318561D01*
X148441633Y-121298708D01*
X148447664Y-121296023D01*
X148610067Y-121223717D01*
X148610069Y-121223716D01*
X148616097Y-121221032D01*
X148770598Y-121108780D01*
X148775020Y-121103869D01*
X148893966Y-120971766D01*
X148893967Y-120971765D01*
X148898385Y-120966858D01*
X148993872Y-120801470D01*
X149052887Y-120619842D01*
X149056207Y-120588259D01*
X149072159Y-120436479D01*
X149072849Y-120429914D01*
X149072149Y-120423251D01*
X149053577Y-120246549D01*
X149053577Y-120246547D01*
X149052887Y-120239986D01*
X148993872Y-120058358D01*
X148898385Y-119892970D01*
X148865275Y-119856197D01*
X148775020Y-119755959D01*
X148775019Y-119755958D01*
X148770598Y-119751048D01*
X148616097Y-119638796D01*
X148610069Y-119636112D01*
X148610067Y-119636111D01*
X148447664Y-119563805D01*
X148447663Y-119563805D01*
X148441633Y-119561120D01*
X148329513Y-119537288D01*
X148261289Y-119522786D01*
X148261284Y-119522786D01*
X148254832Y-119521414D01*
X148063858Y-119521414D01*
X148057406Y-119522786D01*
X148057401Y-119522786D01*
X147989177Y-119537288D01*
X147877057Y-119561120D01*
X147871027Y-119563805D01*
X147871026Y-119563805D01*
X147708623Y-119636111D01*
X147708621Y-119636112D01*
X147702593Y-119638796D01*
X147553437Y-119747165D01*
X147553182Y-119747350D01*
X147486314Y-119771208D01*
X147479121Y-119771414D01*
X146352142Y-119771414D01*
X146340286Y-119770855D01*
X146340283Y-119770855D01*
X146332549Y-119769126D01*
X146277532Y-119770855D01*
X146261717Y-119771352D01*
X146257759Y-119771414D01*
X146228654Y-119771414D01*
X146224254Y-119771970D01*
X146212422Y-119772902D01*
X146166255Y-119774352D01*
X146145665Y-119780334D01*
X146126304Y-119784344D01*
X146119316Y-119785226D01*
X146112882Y-119786039D01*
X146112881Y-119786039D01*
X146105022Y-119787032D01*
X146097657Y-119789948D01*
X146097653Y-119789949D01*
X146062068Y-119804038D01*
X146050838Y-119807883D01*
X146006485Y-119820769D01*
X145999661Y-119824805D01*
X145988029Y-119831684D01*
X145970273Y-119840383D01*
X145950330Y-119848279D01*
X145924310Y-119867184D01*
X145912954Y-119875434D01*
X145903035Y-119881949D01*
X145870109Y-119901422D01*
X145870105Y-119901425D01*
X145863279Y-119905462D01*
X145848118Y-119920623D01*
X145833086Y-119933462D01*
X145815729Y-119946073D01*
X145798209Y-119967251D01*
X145786279Y-119981672D01*
X145778289Y-119990452D01*
X143588286Y-122180454D01*
X143579506Y-122188444D01*
X143579504Y-122188446D01*
X143572811Y-122192693D01*
X143567385Y-122198471D01*
X143567384Y-122198472D01*
X143524287Y-122244366D01*
X143521532Y-122247208D01*
X143500964Y-122267776D01*
X143498247Y-122271279D01*
X143490539Y-122280304D01*
X143458919Y-122313976D01*
X143455098Y-122320927D01*
X143455097Y-122320928D01*
X143448588Y-122332767D01*
X143437734Y-122349291D01*
X143429909Y-122359380D01*
X143424587Y-122366241D01*
X143421440Y-122373513D01*
X143421439Y-122373515D01*
X143406237Y-122408644D01*
X143401015Y-122419304D01*
X143378767Y-122459772D01*
X143373432Y-122480550D01*
X143367033Y-122499240D01*
X143358511Y-122518933D01*
X143352153Y-122559077D01*
X143351285Y-122564557D01*
X143348878Y-122576180D01*
X143337391Y-122620921D01*
X143337391Y-122642368D01*
X143335840Y-122662078D01*
X143332485Y-122683261D01*
X143335946Y-122719869D01*
X143336832Y-122729247D01*
X143337391Y-122741105D01*
X143337391Y-125574939D01*
X143317389Y-125643060D01*
X143305027Y-125659249D01*
X143280220Y-125686800D01*
X143219774Y-125724040D01*
X143148790Y-125722688D01*
X143097489Y-125691585D01*
X139779420Y-122373515D01*
X136393652Y-118987747D01*
X136386112Y-118979461D01*
X136382000Y-118972982D01*
X136332348Y-118926356D01*
X136329507Y-118923602D01*
X136309770Y-118903865D01*
X136306573Y-118901385D01*
X136297551Y-118893680D01*
X136271100Y-118868841D01*
X136265321Y-118863414D01*
X136258375Y-118859595D01*
X136258372Y-118859593D01*
X136247566Y-118853652D01*
X136231047Y-118842801D01*
X136225048Y-118838148D01*
X136215041Y-118830386D01*
X136207772Y-118827241D01*
X136207768Y-118827238D01*
X136174463Y-118812826D01*
X136163813Y-118807609D01*
X136125060Y-118786305D01*
X136105437Y-118781267D01*
X136086734Y-118774863D01*
X136075420Y-118769967D01*
X136075419Y-118769967D01*
X136068145Y-118766819D01*
X136060322Y-118765580D01*
X136060312Y-118765577D01*
X136024476Y-118759901D01*
X136012856Y-118757495D01*
X135977711Y-118748472D01*
X135977710Y-118748472D01*
X135970030Y-118746500D01*
X135949776Y-118746500D01*
X135930065Y-118744949D01*
X135917886Y-118743020D01*
X135910057Y-118741780D01*
X135902165Y-118742526D01*
X135866039Y-118745941D01*
X135854181Y-118746500D01*
X134058200Y-118746500D01*
X133990079Y-118726498D01*
X133970853Y-118710157D01*
X133970580Y-118710460D01*
X133965668Y-118706037D01*
X133961253Y-118701134D01*
X133806752Y-118588882D01*
X133800724Y-118586198D01*
X133800722Y-118586197D01*
X133638319Y-118513891D01*
X133638318Y-118513891D01*
X133632288Y-118511206D01*
X133522238Y-118487814D01*
X133451944Y-118472872D01*
X133451939Y-118472872D01*
X133445487Y-118471500D01*
X133254513Y-118471500D01*
X133248061Y-118472872D01*
X133248056Y-118472872D01*
X133177762Y-118487814D01*
X133067712Y-118511206D01*
X133061682Y-118513891D01*
X133061681Y-118513891D01*
X132899278Y-118586197D01*
X132899276Y-118586198D01*
X132893248Y-118588882D01*
X132738747Y-118701134D01*
X132734326Y-118706044D01*
X132734325Y-118706045D01*
X132625203Y-118827238D01*
X132610960Y-118843056D01*
X132515473Y-119008444D01*
X132456458Y-119190072D01*
X132455768Y-119196633D01*
X132455768Y-119196635D01*
X132439859Y-119348003D01*
X132436496Y-119380000D01*
X122103637Y-119380000D01*
X122144866Y-119350045D01*
X122272653Y-119208123D01*
X122356413Y-119063047D01*
X122364836Y-119048458D01*
X122364837Y-119048457D01*
X122368140Y-119042735D01*
X122427155Y-118861107D01*
X122429874Y-118835242D01*
X122446427Y-118677744D01*
X122447117Y-118671179D01*
X122430586Y-118513891D01*
X122427845Y-118487814D01*
X122427845Y-118487812D01*
X122427155Y-118481251D01*
X122368140Y-118299623D01*
X122272653Y-118134235D01*
X122266764Y-118127694D01*
X122149288Y-117997224D01*
X122149287Y-117997223D01*
X122144866Y-117992313D01*
X121990365Y-117880061D01*
X121984337Y-117877377D01*
X121984335Y-117877376D01*
X121821932Y-117805070D01*
X121821931Y-117805070D01*
X121815901Y-117802385D01*
X121712339Y-117780372D01*
X121635557Y-117764051D01*
X121635552Y-117764051D01*
X121629100Y-117762679D01*
X121438126Y-117762679D01*
X121431674Y-117764051D01*
X121431669Y-117764051D01*
X121354887Y-117780372D01*
X121251325Y-117802385D01*
X121245295Y-117805070D01*
X121245294Y-117805070D01*
X121082891Y-117877376D01*
X121082889Y-117877377D01*
X121076861Y-117880061D01*
X121071520Y-117883941D01*
X121071519Y-117883942D01*
X120986434Y-117945760D01*
X120922360Y-117992313D01*
X120917945Y-117997216D01*
X120913033Y-118001639D01*
X120911908Y-118000390D01*
X120858599Y-118033230D01*
X120825413Y-118037679D01*
X119303705Y-118037679D01*
X119292521Y-118037152D01*
X119285033Y-118035478D01*
X119277110Y-118035727D01*
X119216975Y-118037617D01*
X119213017Y-118037679D01*
X119185086Y-118037679D01*
X119181171Y-118038174D01*
X119181167Y-118038174D01*
X119181109Y-118038182D01*
X119181080Y-118038185D01*
X119169238Y-118039118D01*
X119125052Y-118040506D01*
X119115965Y-118043146D01*
X119105600Y-118046157D01*
X119086248Y-118050165D01*
X119074010Y-118051711D01*
X119074008Y-118051712D01*
X119066145Y-118052705D01*
X119025028Y-118068985D01*
X119013827Y-118072820D01*
X118971348Y-118085161D01*
X118964529Y-118089194D01*
X118964524Y-118089196D01*
X118953913Y-118095472D01*
X118936163Y-118104169D01*
X118917325Y-118111627D01*
X118910909Y-118116288D01*
X118910908Y-118116289D01*
X118881567Y-118137607D01*
X118871643Y-118144126D01*
X118840402Y-118162601D01*
X118840397Y-118162605D01*
X118833579Y-118166637D01*
X118819255Y-118180961D01*
X118804223Y-118193800D01*
X118787835Y-118205707D01*
X118759654Y-118239772D01*
X118751664Y-118248552D01*
X105818118Y-131182098D01*
X105809832Y-131189638D01*
X105803353Y-131193750D01*
X105797928Y-131199527D01*
X105756728Y-131243401D01*
X105753973Y-131246243D01*
X105734236Y-131265980D01*
X105731756Y-131269177D01*
X105724053Y-131278197D01*
X105693785Y-131310429D01*
X105689966Y-131317375D01*
X105689964Y-131317378D01*
X105684023Y-131328184D01*
X105673172Y-131344703D01*
X105660757Y-131360709D01*
X105657612Y-131367978D01*
X105657609Y-131367982D01*
X105643197Y-131401287D01*
X105637980Y-131411937D01*
X105616676Y-131450690D01*
X105614705Y-131458365D01*
X105614705Y-131458366D01*
X105611638Y-131470312D01*
X105605234Y-131489016D01*
X105597190Y-131507605D01*
X105595951Y-131515428D01*
X105595948Y-131515438D01*
X105590272Y-131551274D01*
X105587866Y-131562894D01*
X105578843Y-131598039D01*
X105576871Y-131605720D01*
X105576871Y-131625974D01*
X105575320Y-131645684D01*
X105572151Y-131665693D01*
X105572897Y-131673585D01*
X105576312Y-131709711D01*
X105576871Y-131721569D01*
X105576871Y-135335034D01*
X105556869Y-135403155D01*
X105539966Y-135424130D01*
X105134797Y-135829298D01*
X105072485Y-135863323D01*
X105001669Y-135858258D01*
X104944834Y-135815711D01*
X104919791Y-135744927D01*
X104918449Y-135709173D01*
X104918249Y-135703842D01*
X104870907Y-135478209D01*
X104849550Y-135424130D01*
X104788185Y-135268744D01*
X104788184Y-135268742D01*
X104786224Y-135263779D01*
X104756771Y-135215241D01*
X104669390Y-135071243D01*
X104666623Y-135066683D01*
X104579755Y-134966576D01*
X104519023Y-134896588D01*
X104519021Y-134896586D01*
X104515523Y-134892555D01*
X104443337Y-134833366D01*
X104341373Y-134749760D01*
X104341367Y-134749756D01*
X104337245Y-134746376D01*
X104305750Y-134728448D01*
X104256445Y-134677368D01*
X104242583Y-134607738D01*
X104268566Y-134541667D01*
X104297716Y-134514427D01*
X104333642Y-134490240D01*
X104419319Y-134432559D01*
X104586135Y-134273424D01*
X104723754Y-134088458D01*
X104729512Y-134077134D01*
X104825822Y-133887704D01*
X104828240Y-133882949D01*
X104835636Y-133859132D01*
X104895024Y-133667871D01*
X104896607Y-133662773D01*
X104900488Y-133633494D01*
X104926198Y-133439511D01*
X104926198Y-133439506D01*
X104926898Y-133434226D01*
X104926071Y-133412181D01*
X104921516Y-133290869D01*
X104918249Y-133203842D01*
X104870907Y-132978209D01*
X104868948Y-132973248D01*
X104788185Y-132768744D01*
X104788184Y-132768742D01*
X104786224Y-132763779D01*
X104748233Y-132701171D01*
X104690961Y-132606791D01*
X104666623Y-132566683D01*
X104611178Y-132502788D01*
X104519023Y-132396588D01*
X104519021Y-132396586D01*
X104515523Y-132392555D01*
X104450702Y-132339405D01*
X104341373Y-132249760D01*
X104341367Y-132249756D01*
X104337245Y-132246376D01*
X104305750Y-132228448D01*
X104256445Y-132177368D01*
X104242583Y-132107738D01*
X104268566Y-132041667D01*
X104297716Y-132014427D01*
X104391724Y-131951137D01*
X104419319Y-131932559D01*
X104586135Y-131773424D01*
X104723754Y-131588458D01*
X104736752Y-131562894D01*
X104778499Y-131480783D01*
X104828240Y-131382949D01*
X104832888Y-131367982D01*
X104895024Y-131167871D01*
X104896607Y-131162773D01*
X104908584Y-131072405D01*
X104926198Y-130939511D01*
X104926198Y-130939506D01*
X104926898Y-130934226D01*
X104918249Y-130703842D01*
X104870907Y-130478209D01*
X104866467Y-130466966D01*
X104788185Y-130268744D01*
X104788184Y-130268742D01*
X104786224Y-130263779D01*
X104782787Y-130258114D01*
X104669390Y-130071243D01*
X104666623Y-130066683D01*
X104599476Y-129989303D01*
X104519023Y-129896588D01*
X104519021Y-129896586D01*
X104515523Y-129892555D01*
X104473970Y-129858484D01*
X104341373Y-129749760D01*
X104341367Y-129749756D01*
X104337245Y-129746376D01*
X104305750Y-129728448D01*
X104256445Y-129677368D01*
X104242583Y-129607738D01*
X104268566Y-129541667D01*
X104297716Y-129514427D01*
X104333642Y-129490240D01*
X104419319Y-129432559D01*
X104425583Y-129426584D01*
X104582278Y-129277103D01*
X104586135Y-129273424D01*
X104723754Y-129088458D01*
X104742633Y-129051327D01*
X104801893Y-128934769D01*
X104828240Y-128882949D01*
X104853676Y-128801034D01*
X104895024Y-128667871D01*
X104896607Y-128662773D01*
X104897308Y-128657484D01*
X104926198Y-128439511D01*
X104926198Y-128439506D01*
X104926898Y-128434226D01*
X104918249Y-128203842D01*
X104870907Y-127978209D01*
X104868948Y-127973248D01*
X104788185Y-127768744D01*
X104788184Y-127768742D01*
X104786224Y-127763779D01*
X104734698Y-127678866D01*
X104669390Y-127571243D01*
X104666623Y-127566683D01*
X104579755Y-127466576D01*
X104519023Y-127396588D01*
X104519021Y-127396586D01*
X104515523Y-127392555D01*
X104479471Y-127362994D01*
X104439476Y-127304334D01*
X104437545Y-127233364D01*
X104474290Y-127172616D01*
X104493059Y-127158416D01*
X104632807Y-127071937D01*
X104644208Y-127062901D01*
X104758739Y-126948171D01*
X104767751Y-126936760D01*
X104852816Y-126798757D01*
X104858963Y-126785576D01*
X104910138Y-126631290D01*
X104913005Y-126617914D01*
X104922672Y-126523562D01*
X104923000Y-126517146D01*
X104923000Y-126142115D01*
X104918525Y-126126876D01*
X104917135Y-126125671D01*
X104909452Y-126124000D01*
X102075116Y-126124000D01*
X102059877Y-126128475D01*
X102058672Y-126129865D01*
X102057001Y-126137548D01*
X102057001Y-126517095D01*
X102057338Y-126523614D01*
X102067257Y-126619206D01*
X102070149Y-126632600D01*
X102121588Y-126786784D01*
X102127761Y-126799962D01*
X102213063Y-126937807D01*
X102222099Y-126949208D01*
X102336829Y-127063739D01*
X102348243Y-127072753D01*
X102487713Y-127158723D01*
X102535207Y-127211495D01*
X102546631Y-127281566D01*
X102518357Y-127346690D01*
X102508574Y-127357149D01*
X102393865Y-127466576D01*
X102256246Y-127651542D01*
X102253830Y-127656293D01*
X102253828Y-127656297D01*
X102204003Y-127754297D01*
X102151760Y-127857051D01*
X102150178Y-127862145D01*
X102150177Y-127862148D01*
X102101326Y-128019474D01*
X102083393Y-128077227D01*
X102082692Y-128082516D01*
X102066208Y-128206891D01*
X102053102Y-128305774D01*
X102053302Y-128311103D01*
X102053302Y-128311105D01*
X102055078Y-128358414D01*
X102061751Y-128536158D01*
X102109093Y-128761791D01*
X102111051Y-128766750D01*
X102111052Y-128766752D01*
X102170579Y-128917482D01*
X102193776Y-128976221D01*
X102196543Y-128980780D01*
X102196544Y-128980783D01*
X102242821Y-129057045D01*
X102313377Y-129173317D01*
X102316874Y-129177347D01*
X102403438Y-129277103D01*
X102464477Y-129347445D01*
X102468608Y-129350832D01*
X102638627Y-129490240D01*
X102638633Y-129490244D01*
X102642755Y-129493624D01*
X102674250Y-129511552D01*
X102723555Y-129562632D01*
X102737417Y-129632262D01*
X102711434Y-129698333D01*
X102682284Y-129725573D01*
X102560681Y-129807441D01*
X102393865Y-129966576D01*
X102390682Y-129970854D01*
X102337801Y-130041929D01*
X102256246Y-130151542D01*
X102253830Y-130156293D01*
X102253828Y-130156297D01*
X102219751Y-130223322D01*
X102151760Y-130357051D01*
X102150178Y-130362145D01*
X102150177Y-130362148D01*
X102108801Y-130495399D01*
X102083393Y-130577227D01*
X102082692Y-130582516D01*
X102053864Y-130800028D01*
X102053102Y-130805774D01*
X102053302Y-130811103D01*
X102053302Y-130811105D01*
X102055517Y-130870091D01*
X102061751Y-131036158D01*
X102109093Y-131261791D01*
X102111051Y-131266750D01*
X102111052Y-131266752D01*
X102186908Y-131458829D01*
X102193776Y-131476221D01*
X102196543Y-131480780D01*
X102196544Y-131480783D01*
X102284649Y-131625974D01*
X102313377Y-131673317D01*
X102316874Y-131677347D01*
X102423686Y-131800437D01*
X102464477Y-131847445D01*
X102468608Y-131850832D01*
X102638627Y-131990240D01*
X102638633Y-131990244D01*
X102642755Y-131993624D01*
X102674250Y-132011552D01*
X102723555Y-132062632D01*
X102737417Y-132132262D01*
X102711434Y-132198333D01*
X102682284Y-132225573D01*
X102560681Y-132307441D01*
X102556824Y-132311120D01*
X102556822Y-132311122D01*
X102505491Y-132360090D01*
X102393865Y-132466576D01*
X102256246Y-132651542D01*
X102253830Y-132656293D01*
X102253828Y-132656297D01*
X102239998Y-132683499D01*
X102151760Y-132857051D01*
X102150178Y-132862145D01*
X102150177Y-132862148D01*
X102105738Y-133005266D01*
X102083393Y-133077227D01*
X102082692Y-133082516D01*
X102054634Y-133294216D01*
X102053102Y-133305774D01*
X102061751Y-133536158D01*
X102109093Y-133761791D01*
X102111051Y-133766750D01*
X102111052Y-133766752D01*
X102125485Y-133803297D01*
X102193776Y-133976221D01*
X102196543Y-133980780D01*
X102196544Y-133980783D01*
X102226898Y-134030805D01*
X102313377Y-134173317D01*
X102316874Y-134177347D01*
X102403438Y-134277103D01*
X102464477Y-134347445D01*
X102480004Y-134360176D01*
X102638627Y-134490240D01*
X102638633Y-134490244D01*
X102642755Y-134493624D01*
X102674250Y-134511552D01*
X102723555Y-134562632D01*
X102737417Y-134632262D01*
X102711434Y-134698333D01*
X102682284Y-134725573D01*
X102560681Y-134807441D01*
X102556824Y-134811120D01*
X102556822Y-134811122D01*
X102500689Y-134864671D01*
X102393865Y-134966576D01*
X102256246Y-135151542D01*
X102253830Y-135156293D01*
X102253828Y-135156297D01*
X102225740Y-135211542D01*
X102151760Y-135357051D01*
X102150178Y-135362145D01*
X102150177Y-135362148D01*
X102093888Y-135543428D01*
X102083393Y-135577227D01*
X102082692Y-135582516D01*
X102058660Y-135763842D01*
X102053102Y-135805774D01*
X102053302Y-135811103D01*
X102053302Y-135811105D01*
X102056264Y-135890000D01*
X102061751Y-136036158D01*
X102109093Y-136261791D01*
X102111051Y-136266750D01*
X102111052Y-136266752D01*
X102186485Y-136457758D01*
X102193776Y-136476221D01*
X102196543Y-136480780D01*
X102196544Y-136480783D01*
X102238007Y-136549111D01*
X102313377Y-136673317D01*
X102316874Y-136677347D01*
X102455503Y-136837103D01*
X102464477Y-136847445D01*
X102468608Y-136850832D01*
X102638627Y-136990240D01*
X102638633Y-136990244D01*
X102642755Y-136993624D01*
X102674250Y-137011552D01*
X102723555Y-137062632D01*
X102737417Y-137132262D01*
X102711434Y-137198333D01*
X102682284Y-137225573D01*
X102560681Y-137307441D01*
X102393865Y-137466576D01*
X102256246Y-137651542D01*
X102253830Y-137656293D01*
X102253828Y-137656297D01*
X102225740Y-137711542D01*
X102151760Y-137857051D01*
X102150178Y-137862145D01*
X102150177Y-137862148D01*
X102093888Y-138043428D01*
X102083393Y-138077227D01*
X102082692Y-138082516D01*
X102058660Y-138263842D01*
X102053102Y-138305774D01*
X102053302Y-138311103D01*
X102053302Y-138311105D01*
X102055555Y-138371105D01*
X102061751Y-138536158D01*
X102062846Y-138541377D01*
X102080645Y-138626206D01*
X102109093Y-138761791D01*
X102111051Y-138766750D01*
X102111052Y-138766752D01*
X102171656Y-138920209D01*
X102193776Y-138976221D01*
X102313377Y-139173317D01*
X102316874Y-139177347D01*
X102455503Y-139337103D01*
X102464477Y-139347445D01*
X102476812Y-139357559D01*
X102638627Y-139490240D01*
X102638633Y-139490244D01*
X102642755Y-139493624D01*
X102674250Y-139511552D01*
X102723555Y-139562632D01*
X102737417Y-139632262D01*
X102711434Y-139698333D01*
X102682284Y-139725573D01*
X102560681Y-139807441D01*
X102393865Y-139966576D01*
X102390682Y-139970854D01*
X102378643Y-139987035D01*
X102256246Y-140151542D01*
X102253830Y-140156293D01*
X102253828Y-140156297D01*
X102223079Y-140216776D01*
X102151760Y-140357051D01*
X102150178Y-140362145D01*
X102150177Y-140362148D01*
X102097007Y-140533383D01*
X102083393Y-140577227D01*
X102082692Y-140582516D01*
X102055639Y-140786635D01*
X102053102Y-140805774D01*
X102061751Y-141036158D01*
X102109093Y-141261791D01*
X102111051Y-141266750D01*
X102111052Y-141266752D01*
X102130668Y-141316421D01*
X102193776Y-141476221D01*
X102196543Y-141480780D01*
X102196544Y-141480783D01*
X102258998Y-141583703D01*
X102313377Y-141673317D01*
X102316874Y-141677347D01*
X102458161Y-141840166D01*
X102464477Y-141847445D01*
X102468608Y-141850832D01*
X102638627Y-141990240D01*
X102638633Y-141990244D01*
X102642755Y-141993624D01*
X102674250Y-142011552D01*
X102723555Y-142062632D01*
X102737417Y-142132262D01*
X102711434Y-142198333D01*
X102682284Y-142225573D01*
X102560681Y-142307441D01*
X102393865Y-142466576D01*
X102256246Y-142651542D01*
X102253830Y-142656293D01*
X102253828Y-142656297D01*
X102225740Y-142711542D01*
X102151760Y-142857051D01*
X102150178Y-142862145D01*
X102150177Y-142862148D01*
X102093888Y-143043428D01*
X102083393Y-143077227D01*
X102082692Y-143082516D01*
X102055112Y-143290609D01*
X102053102Y-143305774D01*
X100508500Y-143305774D01*
X100508500Y-125597885D01*
X102057000Y-125597885D01*
X102061475Y-125613124D01*
X102062865Y-125614329D01*
X102070548Y-125616000D01*
X103217885Y-125616000D01*
X103233124Y-125611525D01*
X103234329Y-125610135D01*
X103236000Y-125602452D01*
X103236000Y-125597885D01*
X103744000Y-125597885D01*
X103748475Y-125613124D01*
X103749865Y-125614329D01*
X103757548Y-125616000D01*
X104904884Y-125616000D01*
X104920123Y-125611525D01*
X104921328Y-125610135D01*
X104922999Y-125602452D01*
X104922999Y-125222905D01*
X104922662Y-125216386D01*
X104912743Y-125120794D01*
X104909851Y-125107400D01*
X104858412Y-124953216D01*
X104852239Y-124940038D01*
X104766937Y-124802193D01*
X104757901Y-124790792D01*
X104643171Y-124676261D01*
X104631760Y-124667249D01*
X104493757Y-124582184D01*
X104480576Y-124576037D01*
X104326290Y-124524862D01*
X104312914Y-124521995D01*
X104218562Y-124512328D01*
X104212145Y-124512000D01*
X103762115Y-124512000D01*
X103746876Y-124516475D01*
X103745671Y-124517865D01*
X103744000Y-124525548D01*
X103744000Y-125597885D01*
X103236000Y-125597885D01*
X103236000Y-124530116D01*
X103231525Y-124514877D01*
X103230135Y-124513672D01*
X103222452Y-124512001D01*
X102767905Y-124512001D01*
X102761386Y-124512338D01*
X102665794Y-124522257D01*
X102652400Y-124525149D01*
X102498216Y-124576588D01*
X102485038Y-124582761D01*
X102347193Y-124668063D01*
X102335792Y-124677099D01*
X102221261Y-124791829D01*
X102212249Y-124803240D01*
X102127184Y-124941243D01*
X102121037Y-124954424D01*
X102069862Y-125108710D01*
X102066995Y-125122086D01*
X102057328Y-125216438D01*
X102057000Y-125222855D01*
X102057000Y-125597885D01*
X100508500Y-125597885D01*
X100508500Y-116806695D01*
X109744751Y-116806695D01*
X109745048Y-116811848D01*
X109745048Y-116811851D01*
X109757312Y-117024547D01*
X109757610Y-117029715D01*
X109758747Y-117034761D01*
X109758748Y-117034767D01*
X109782804Y-117141508D01*
X109806722Y-117247639D01*
X109890766Y-117454616D01*
X109914654Y-117493598D01*
X109982935Y-117605022D01*
X110007487Y-117645088D01*
X110153750Y-117813938D01*
X110325626Y-117956632D01*
X110518500Y-118069338D01*
X110523325Y-118071180D01*
X110523326Y-118071181D01*
X110586938Y-118095472D01*
X110727192Y-118149030D01*
X110732260Y-118150061D01*
X110732263Y-118150062D01*
X110839517Y-118171883D01*
X110946097Y-118193567D01*
X110951272Y-118193757D01*
X110951274Y-118193757D01*
X111164173Y-118201564D01*
X111164177Y-118201564D01*
X111169337Y-118201753D01*
X111174457Y-118201097D01*
X111174459Y-118201097D01*
X111385788Y-118174025D01*
X111385789Y-118174025D01*
X111390916Y-118173368D01*
X111395866Y-118171883D01*
X111599929Y-118110661D01*
X111599934Y-118110659D01*
X111604884Y-118109174D01*
X111805494Y-118010896D01*
X111987360Y-117881173D01*
X111991171Y-117877376D01*
X112094821Y-117774087D01*
X112145596Y-117723489D01*
X112146171Y-117724066D01*
X112201891Y-117687562D01*
X112272885Y-117686939D01*
X112332946Y-117724796D01*
X112352551Y-117754691D01*
X112353633Y-117757000D01*
X112355950Y-117763946D01*
X112449022Y-117914348D01*
X112574197Y-118039305D01*
X112580427Y-118043145D01*
X112580428Y-118043146D01*
X112717590Y-118127694D01*
X112724762Y-118132115D01*
X112778871Y-118150062D01*
X112886111Y-118185632D01*
X112886113Y-118185632D01*
X112892639Y-118187797D01*
X112899475Y-118188497D01*
X112899478Y-118188498D01*
X112938872Y-118192534D01*
X112997100Y-118198500D01*
X114297900Y-118198500D01*
X114301146Y-118198163D01*
X114301150Y-118198163D01*
X114396808Y-118188238D01*
X114396812Y-118188237D01*
X114403666Y-118187526D01*
X114410202Y-118185345D01*
X114410204Y-118185345D01*
X114553291Y-118137607D01*
X114571446Y-118131550D01*
X114721848Y-118038478D01*
X114846805Y-117913303D01*
X114864762Y-117884171D01*
X114935775Y-117768968D01*
X114935776Y-117768966D01*
X114939615Y-117762738D01*
X114995297Y-117594861D01*
X115006000Y-117490400D01*
X115006000Y-116234500D01*
X115026002Y-116166379D01*
X115079658Y-116119886D01*
X115132000Y-116108500D01*
X128716181Y-116108500D01*
X128784302Y-116128502D01*
X128805276Y-116145405D01*
X130017469Y-117357599D01*
X130051495Y-117419911D01*
X130053684Y-117433524D01*
X130061858Y-117511292D01*
X130071049Y-117598744D01*
X130130064Y-117780372D01*
X130225551Y-117945760D01*
X130229969Y-117950667D01*
X130229970Y-117950668D01*
X130348215Y-118081992D01*
X130353338Y-118087682D01*
X130431026Y-118144126D01*
X130499076Y-118193567D01*
X130507839Y-118199934D01*
X130513867Y-118202618D01*
X130513869Y-118202619D01*
X130597317Y-118239772D01*
X130682303Y-118277610D01*
X130758941Y-118293900D01*
X130862647Y-118315944D01*
X130862652Y-118315944D01*
X130869104Y-118317316D01*
X131060078Y-118317316D01*
X131066530Y-118315944D01*
X131066535Y-118315944D01*
X131170241Y-118293900D01*
X131246879Y-118277610D01*
X131331865Y-118239772D01*
X131415313Y-118202619D01*
X131415315Y-118202618D01*
X131421343Y-118199934D01*
X131430107Y-118193567D01*
X131498156Y-118144126D01*
X131575844Y-118087682D01*
X131580967Y-118081992D01*
X131699212Y-117950668D01*
X131699213Y-117950667D01*
X131703631Y-117945760D01*
X131799118Y-117780372D01*
X131858133Y-117598744D01*
X131867325Y-117511292D01*
X131877405Y-117415381D01*
X131878095Y-117408816D01*
X131858133Y-117218888D01*
X131799118Y-117037260D01*
X131703631Y-116871872D01*
X131674934Y-116840000D01*
X131580266Y-116734861D01*
X131580265Y-116734860D01*
X131575844Y-116729950D01*
X131421343Y-116617698D01*
X131415315Y-116615014D01*
X131415313Y-116615013D01*
X131252910Y-116542707D01*
X131252909Y-116542707D01*
X131246879Y-116540022D01*
X131153478Y-116520169D01*
X131066535Y-116501688D01*
X131066530Y-116501688D01*
X131060078Y-116500316D01*
X131004185Y-116500316D01*
X130936064Y-116480314D01*
X130915090Y-116463411D01*
X129534427Y-115082747D01*
X129526887Y-115074461D01*
X129522775Y-115067982D01*
X129473123Y-115021356D01*
X129470282Y-115018602D01*
X129450545Y-114998865D01*
X129447348Y-114996385D01*
X129438326Y-114988680D01*
X129411875Y-114963841D01*
X129406096Y-114958414D01*
X129399150Y-114954595D01*
X129399147Y-114954593D01*
X129388341Y-114948652D01*
X129371822Y-114937801D01*
X129371358Y-114937441D01*
X129355816Y-114925386D01*
X129348547Y-114922241D01*
X129348543Y-114922238D01*
X129315238Y-114907826D01*
X129304588Y-114902609D01*
X129265835Y-114881305D01*
X129246212Y-114876267D01*
X129227509Y-114869863D01*
X129216195Y-114864967D01*
X129216194Y-114864967D01*
X129208920Y-114861819D01*
X129201097Y-114860580D01*
X129201087Y-114860577D01*
X129165251Y-114854901D01*
X129153631Y-114852495D01*
X129118486Y-114843472D01*
X129118485Y-114843472D01*
X129110805Y-114841500D01*
X129090551Y-114841500D01*
X129070840Y-114839949D01*
X129058661Y-114838020D01*
X129050832Y-114836780D01*
X129042940Y-114837526D01*
X129006814Y-114840941D01*
X128994956Y-114841500D01*
X115072318Y-114841500D01*
X115004197Y-114821498D01*
X114957704Y-114767842D01*
X114947600Y-114697568D01*
X114951760Y-114678871D01*
X114977876Y-114592915D01*
X114980055Y-114582834D01*
X115008090Y-114369887D01*
X115008609Y-114363212D01*
X115010072Y-114303364D01*
X115009878Y-114296646D01*
X114992281Y-114082604D01*
X114990596Y-114072424D01*
X114938714Y-113865875D01*
X114935394Y-113856124D01*
X114850472Y-113660814D01*
X114845605Y-113651739D01*
X114780563Y-113551197D01*
X114769877Y-113541995D01*
X114760312Y-113546398D01*
X113736595Y-114570115D01*
X113674283Y-114604141D01*
X113603468Y-114599076D01*
X113558405Y-114570115D01*
X112537349Y-113549059D01*
X112525813Y-113542759D01*
X112513531Y-113552382D01*
X112480999Y-113600072D01*
X112426087Y-113645075D01*
X112355563Y-113653246D01*
X112291816Y-113621992D01*
X112271118Y-113597508D01*
X112190322Y-113472617D01*
X112190320Y-113472614D01*
X112187514Y-113468277D01*
X112037170Y-113303051D01*
X112033119Y-113299852D01*
X112033115Y-113299848D01*
X111865914Y-113167800D01*
X111865910Y-113167798D01*
X111861859Y-113164598D01*
X111820553Y-113141796D01*
X111770584Y-113091364D01*
X111755812Y-113021921D01*
X111780928Y-112955516D01*
X111808280Y-112928909D01*
X111852103Y-112897650D01*
X111987360Y-112801173D01*
X112145596Y-112643489D01*
X112205094Y-112560689D01*
X112275953Y-112462077D01*
X112277276Y-112463028D01*
X112324145Y-112419857D01*
X112394080Y-112407625D01*
X112459526Y-112435144D01*
X112487375Y-112466994D01*
X112547487Y-112565088D01*
X112693750Y-112733938D01*
X112865626Y-112876632D01*
X112938945Y-112919476D01*
X112939455Y-112919774D01*
X112988179Y-112971412D01*
X113001250Y-113041195D01*
X112974519Y-113106967D01*
X112934062Y-113140327D01*
X112925960Y-113144544D01*
X112917234Y-113150039D01*
X112897177Y-113165099D01*
X112888723Y-113176427D01*
X112895468Y-113188758D01*
X113634688Y-113927978D01*
X113648632Y-113935592D01*
X113650465Y-113935461D01*
X113657080Y-113931210D01*
X114400889Y-113187401D01*
X114407910Y-113174544D01*
X114401111Y-113165213D01*
X114397059Y-113162521D01*
X114360102Y-113142120D01*
X114310131Y-113091687D01*
X114295359Y-113022245D01*
X114320475Y-112955839D01*
X114347827Y-112929232D01*
X114371297Y-112912491D01*
X114527360Y-112801173D01*
X114685596Y-112643489D01*
X114745094Y-112560689D01*
X114812935Y-112466277D01*
X114815953Y-112462077D01*
X114836820Y-112419857D01*
X114912636Y-112266453D01*
X114912637Y-112266451D01*
X114914930Y-112261811D01*
X114979870Y-112048069D01*
X115009029Y-111826590D01*
X115009111Y-111823240D01*
X115010574Y-111763365D01*
X115010574Y-111763361D01*
X115010656Y-111760000D01*
X114992352Y-111537361D01*
X114937931Y-111320702D01*
X114848854Y-111115840D01*
X114727514Y-110928277D01*
X114577170Y-110763051D01*
X114573551Y-110760193D01*
X135933652Y-110760193D01*
X135936124Y-110789324D01*
X135937915Y-110799798D01*
X135993130Y-111012535D01*
X135996665Y-111022575D01*
X136086937Y-111222970D01*
X136092106Y-111232256D01*
X136214850Y-111414575D01*
X136221519Y-111422870D01*
X136373228Y-111581900D01*
X136381186Y-111588941D01*
X136557525Y-111720141D01*
X136566562Y-111725745D01*
X136762484Y-111825357D01*
X136772335Y-111829357D01*
X136982240Y-111894534D01*
X136992624Y-111896817D01*
X137008043Y-111898861D01*
X137022207Y-111896665D01*
X137026000Y-111883478D01*
X137026000Y-111881192D01*
X137534000Y-111881192D01*
X137537973Y-111894723D01*
X137548580Y-111896248D01*
X137666421Y-111871523D01*
X137676617Y-111868463D01*
X137881029Y-111787737D01*
X137890561Y-111783006D01*
X138078462Y-111668984D01*
X138087052Y-111662720D01*
X138253052Y-111518673D01*
X138260472Y-111511042D01*
X138399826Y-111341089D01*
X138405850Y-111332323D01*
X138421517Y-111304801D01*
X138472600Y-111255496D01*
X138542230Y-111241635D01*
X138608301Y-111267619D01*
X138635538Y-111296768D01*
X138714850Y-111414575D01*
X138721519Y-111422870D01*
X138873228Y-111581900D01*
X138881186Y-111588941D01*
X139057525Y-111720141D01*
X139066562Y-111725745D01*
X139262484Y-111825357D01*
X139272335Y-111829357D01*
X139482240Y-111894534D01*
X139492624Y-111896817D01*
X139508043Y-111898861D01*
X139522207Y-111896665D01*
X139526000Y-111883478D01*
X139526000Y-111881192D01*
X140034000Y-111881192D01*
X140037973Y-111894723D01*
X140048580Y-111896248D01*
X140166421Y-111871523D01*
X140176617Y-111868463D01*
X140381029Y-111787737D01*
X140390561Y-111783006D01*
X140578462Y-111668984D01*
X140587052Y-111662720D01*
X140753052Y-111518673D01*
X140760472Y-111511042D01*
X140899826Y-111341089D01*
X140905848Y-111332326D01*
X140921238Y-111305289D01*
X140972320Y-111255982D01*
X141041951Y-111242120D01*
X141108022Y-111268103D01*
X141135261Y-111297253D01*
X141164773Y-111341089D01*
X141217441Y-111419319D01*
X141221120Y-111423176D01*
X141221122Y-111423178D01*
X141282710Y-111487738D01*
X141376576Y-111586135D01*
X141561542Y-111723754D01*
X141566293Y-111726170D01*
X141566297Y-111726172D01*
X141639451Y-111763365D01*
X141767051Y-111828240D01*
X141772145Y-111829822D01*
X141772148Y-111829823D01*
X141937583Y-111881192D01*
X141987227Y-111896607D01*
X141992516Y-111897308D01*
X142210489Y-111926198D01*
X142210494Y-111926198D01*
X142215774Y-111926898D01*
X142221103Y-111926698D01*
X142221105Y-111926698D01*
X142330966Y-111922574D01*
X142446158Y-111918249D01*
X142468802Y-111913498D01*
X142666572Y-111872002D01*
X142671791Y-111870907D01*
X142676750Y-111868949D01*
X142676752Y-111868948D01*
X142881256Y-111788185D01*
X142881258Y-111788184D01*
X142886221Y-111786224D01*
X142891525Y-111783006D01*
X143078757Y-111669390D01*
X143078756Y-111669390D01*
X143083317Y-111666623D01*
X143123134Y-111632072D01*
X143253412Y-111519023D01*
X143253414Y-111519021D01*
X143257445Y-111515523D01*
X143286670Y-111479880D01*
X143345329Y-111439886D01*
X143416299Y-111437954D01*
X143477048Y-111474698D01*
X143491248Y-111493468D01*
X143507062Y-111519023D01*
X143581522Y-111639348D01*
X143706697Y-111764305D01*
X143712927Y-111768145D01*
X143712928Y-111768146D01*
X143850090Y-111852694D01*
X143857262Y-111857115D01*
X143892938Y-111868948D01*
X144018611Y-111910632D01*
X144018613Y-111910632D01*
X144025139Y-111912797D01*
X144031975Y-111913497D01*
X144031978Y-111913498D01*
X144067663Y-111917154D01*
X144129600Y-111923500D01*
X145430400Y-111923500D01*
X145433646Y-111923163D01*
X145433650Y-111923163D01*
X145529308Y-111913238D01*
X145529312Y-111913237D01*
X145536166Y-111912526D01*
X145542702Y-111910345D01*
X145542704Y-111910345D01*
X145674806Y-111866272D01*
X145703946Y-111856550D01*
X145854348Y-111763478D01*
X145979305Y-111638303D01*
X146011462Y-111586135D01*
X146068275Y-111493968D01*
X146068276Y-111493966D01*
X146072115Y-111487738D01*
X146127797Y-111319861D01*
X146130114Y-111297253D01*
X146138172Y-111218598D01*
X146138500Y-111215400D01*
X146138500Y-109764600D01*
X146134292Y-109724041D01*
X146128238Y-109665692D01*
X146128237Y-109665688D01*
X146127526Y-109658834D01*
X146120785Y-109638627D01*
X146073868Y-109498002D01*
X146071550Y-109491054D01*
X145978478Y-109340652D01*
X145853303Y-109215695D01*
X145822965Y-109196994D01*
X145708968Y-109126725D01*
X145708966Y-109126724D01*
X145702738Y-109122885D01*
X145589353Y-109085277D01*
X145541389Y-109069368D01*
X145541387Y-109069368D01*
X145534861Y-109067203D01*
X145528025Y-109066503D01*
X145528022Y-109066502D01*
X145484969Y-109062091D01*
X145430400Y-109056500D01*
X144129600Y-109056500D01*
X144126354Y-109056837D01*
X144126350Y-109056837D01*
X144030692Y-109066762D01*
X144030688Y-109066763D01*
X144023834Y-109067474D01*
X144017298Y-109069655D01*
X144017296Y-109069655D01*
X143885194Y-109113728D01*
X143856054Y-109123450D01*
X143705652Y-109216522D01*
X143580695Y-109341697D01*
X143507170Y-109460977D01*
X143490920Y-109487339D01*
X143438148Y-109534832D01*
X143368076Y-109546256D01*
X143302952Y-109517982D01*
X143292490Y-109508195D01*
X143247446Y-109460977D01*
X143183424Y-109393865D01*
X142998458Y-109256246D01*
X142993707Y-109253830D01*
X142993703Y-109253828D01*
X142875588Y-109193776D01*
X142792949Y-109151760D01*
X142787855Y-109150178D01*
X142787852Y-109150177D01*
X142577871Y-109084976D01*
X142572773Y-109083393D01*
X142567484Y-109082692D01*
X142349511Y-109053802D01*
X142349506Y-109053802D01*
X142344226Y-109053102D01*
X142338897Y-109053302D01*
X142338895Y-109053302D01*
X142229034Y-109057427D01*
X142113842Y-109061751D01*
X142108623Y-109062846D01*
X142086566Y-109067474D01*
X141888209Y-109109093D01*
X141883250Y-109111051D01*
X141883248Y-109111052D01*
X141678744Y-109191815D01*
X141678742Y-109191816D01*
X141673779Y-109193776D01*
X141669220Y-109196543D01*
X141669217Y-109196544D01*
X141574113Y-109254255D01*
X141476683Y-109313377D01*
X141472653Y-109316874D01*
X141379484Y-109397722D01*
X141302555Y-109464477D01*
X141283809Y-109487339D01*
X141159760Y-109638627D01*
X141159756Y-109638633D01*
X141156376Y-109642755D01*
X141153733Y-109647398D01*
X141138171Y-109674735D01*
X141087088Y-109724041D01*
X141017458Y-109737902D01*
X140951387Y-109711918D01*
X140924149Y-109682768D01*
X140845148Y-109565422D01*
X140838481Y-109557130D01*
X140686772Y-109398100D01*
X140678814Y-109391059D01*
X140502475Y-109259859D01*
X140493438Y-109254255D01*
X140297516Y-109154643D01*
X140287665Y-109150643D01*
X140077760Y-109085466D01*
X140067376Y-109083183D01*
X140051957Y-109081139D01*
X140037793Y-109083335D01*
X140034000Y-109096522D01*
X140034000Y-111881192D01*
X139526000Y-111881192D01*
X139526000Y-110762115D01*
X139521525Y-110746876D01*
X139520135Y-110745671D01*
X139512452Y-110744000D01*
X137552115Y-110744000D01*
X137536876Y-110748475D01*
X137535671Y-110749865D01*
X137534000Y-110757548D01*
X137534000Y-111881192D01*
X137026000Y-111881192D01*
X137026000Y-110762115D01*
X137021525Y-110746876D01*
X137020135Y-110745671D01*
X137012452Y-110744000D01*
X135950393Y-110744000D01*
X135935715Y-110748310D01*
X135933652Y-110760193D01*
X114573551Y-110760193D01*
X114573119Y-110759852D01*
X114573115Y-110759848D01*
X114405914Y-110627800D01*
X114405910Y-110627798D01*
X114401859Y-110624598D01*
X114360553Y-110601796D01*
X114310584Y-110551364D01*
X114295812Y-110481921D01*
X114320928Y-110415516D01*
X114348280Y-110388909D01*
X114392103Y-110357650D01*
X114527360Y-110261173D01*
X114570510Y-110218174D01*
X135935537Y-110218174D01*
X135936955Y-110231413D01*
X135951594Y-110236000D01*
X137007885Y-110236000D01*
X137023124Y-110231525D01*
X137024329Y-110230135D01*
X137026000Y-110222452D01*
X137026000Y-110217885D01*
X137534000Y-110217885D01*
X137538475Y-110233124D01*
X137539865Y-110234329D01*
X137547548Y-110236000D01*
X139507885Y-110236000D01*
X139523124Y-110231525D01*
X139524329Y-110230135D01*
X139526000Y-110222452D01*
X139526000Y-109098808D01*
X139522027Y-109085277D01*
X139511420Y-109083752D01*
X139393579Y-109108477D01*
X139383383Y-109111537D01*
X139178971Y-109192263D01*
X139169439Y-109196994D01*
X138981538Y-109311016D01*
X138972948Y-109317280D01*
X138806948Y-109461327D01*
X138799528Y-109468958D01*
X138660174Y-109638911D01*
X138654150Y-109647677D01*
X138638483Y-109675199D01*
X138587400Y-109724504D01*
X138517770Y-109738365D01*
X138451699Y-109712381D01*
X138424462Y-109683232D01*
X138345150Y-109565425D01*
X138338481Y-109557130D01*
X138186772Y-109398100D01*
X138178814Y-109391059D01*
X138002475Y-109259859D01*
X137993438Y-109254255D01*
X137797516Y-109154643D01*
X137787665Y-109150643D01*
X137577760Y-109085466D01*
X137567376Y-109083183D01*
X137551957Y-109081139D01*
X137537793Y-109083335D01*
X137534000Y-109096522D01*
X137534000Y-110217885D01*
X137026000Y-110217885D01*
X137026000Y-109098808D01*
X137022027Y-109085277D01*
X137011420Y-109083752D01*
X136893579Y-109108477D01*
X136883383Y-109111537D01*
X136678971Y-109192263D01*
X136669439Y-109196994D01*
X136481538Y-109311016D01*
X136472948Y-109317280D01*
X136306948Y-109461327D01*
X136299528Y-109468958D01*
X136160174Y-109638911D01*
X136154150Y-109647678D01*
X136045424Y-109838682D01*
X136040959Y-109848346D01*
X135965969Y-110054941D01*
X135963198Y-110065208D01*
X135935537Y-110218174D01*
X114570510Y-110218174D01*
X114685596Y-110103489D01*
X114745094Y-110020689D01*
X114812935Y-109926277D01*
X114815953Y-109922077D01*
X114836820Y-109879857D01*
X114912636Y-109726453D01*
X114912637Y-109726451D01*
X114914930Y-109721811D01*
X114979870Y-109508069D01*
X115009029Y-109286590D01*
X115009693Y-109259432D01*
X115010574Y-109223365D01*
X115010574Y-109223361D01*
X115010656Y-109220000D01*
X114992352Y-108997361D01*
X114937931Y-108780702D01*
X114848854Y-108575840D01*
X114727514Y-108388277D01*
X114577170Y-108223051D01*
X114573119Y-108219852D01*
X114573115Y-108219848D01*
X114405914Y-108087800D01*
X114405910Y-108087798D01*
X114401859Y-108084598D01*
X114360553Y-108061796D01*
X114310584Y-108011364D01*
X114295812Y-107941921D01*
X114320928Y-107875516D01*
X114348280Y-107848909D01*
X114392103Y-107817650D01*
X114527360Y-107721173D01*
X114685596Y-107563489D01*
X114745094Y-107480689D01*
X114812935Y-107386277D01*
X114815953Y-107382077D01*
X114836820Y-107339857D01*
X114912636Y-107186453D01*
X114912637Y-107186451D01*
X114914930Y-107181811D01*
X114979870Y-106968069D01*
X115009029Y-106746590D01*
X115010656Y-106680000D01*
X114992352Y-106457361D01*
X114937931Y-106240702D01*
X114848854Y-106035840D01*
X114737231Y-105863297D01*
X114730322Y-105852617D01*
X114730320Y-105852614D01*
X114727514Y-105848277D01*
X114577170Y-105683051D01*
X114573119Y-105679852D01*
X114573115Y-105679848D01*
X114405914Y-105547800D01*
X114405910Y-105547798D01*
X114401859Y-105544598D01*
X114206289Y-105436638D01*
X114201420Y-105434914D01*
X114201416Y-105434912D01*
X114000587Y-105363795D01*
X114000583Y-105363794D01*
X113995712Y-105362069D01*
X113990619Y-105361162D01*
X113990616Y-105361161D01*
X113780873Y-105323800D01*
X113780867Y-105323799D01*
X113775784Y-105322894D01*
X113701952Y-105321992D01*
X113557581Y-105320228D01*
X113557579Y-105320228D01*
X113552411Y-105320165D01*
X113331591Y-105353955D01*
X113119256Y-105423357D01*
X112921107Y-105526507D01*
X112916974Y-105529610D01*
X112916971Y-105529612D01*
X112892747Y-105547800D01*
X112742465Y-105660635D01*
X112588129Y-105822138D01*
X112480701Y-105979621D01*
X112425793Y-106024621D01*
X112355268Y-106032792D01*
X112291521Y-106001538D01*
X112270824Y-105977054D01*
X112190322Y-105852617D01*
X112190320Y-105852614D01*
X112187514Y-105848277D01*
X112037170Y-105683051D01*
X112033119Y-105679852D01*
X112033115Y-105679848D01*
X111865914Y-105547800D01*
X111865910Y-105547798D01*
X111861859Y-105544598D01*
X111666289Y-105436638D01*
X111661420Y-105434914D01*
X111661416Y-105434912D01*
X111460587Y-105363795D01*
X111460583Y-105363794D01*
X111455712Y-105362069D01*
X111450619Y-105361162D01*
X111450616Y-105361161D01*
X111240873Y-105323800D01*
X111240867Y-105323799D01*
X111235784Y-105322894D01*
X111161952Y-105321992D01*
X111017581Y-105320228D01*
X111017579Y-105320228D01*
X111012411Y-105320165D01*
X110791591Y-105353955D01*
X110579256Y-105423357D01*
X110381107Y-105526507D01*
X110376974Y-105529610D01*
X110376971Y-105529612D01*
X110352747Y-105547800D01*
X110202465Y-105660635D01*
X110048129Y-105822138D01*
X109922243Y-106006680D01*
X109906503Y-106040590D01*
X109839624Y-106184669D01*
X109828188Y-106209305D01*
X109768489Y-106424570D01*
X109744751Y-106646695D01*
X109745048Y-106651848D01*
X109745048Y-106651851D01*
X109750511Y-106746590D01*
X109757610Y-106869715D01*
X109758747Y-106874761D01*
X109758748Y-106874767D01*
X109778619Y-106962939D01*
X109806722Y-107087639D01*
X109890766Y-107294616D01*
X109941519Y-107377438D01*
X110004791Y-107480688D01*
X110007487Y-107485088D01*
X110153750Y-107653938D01*
X110325626Y-107796632D01*
X110396095Y-107837811D01*
X110398945Y-107839476D01*
X110447669Y-107891114D01*
X110460740Y-107960897D01*
X110434009Y-108026669D01*
X110393555Y-108060027D01*
X110381107Y-108066507D01*
X110376974Y-108069610D01*
X110376971Y-108069612D01*
X110352747Y-108087800D01*
X110202465Y-108200635D01*
X110048129Y-108362138D01*
X109922243Y-108546680D01*
X109828188Y-108749305D01*
X109768489Y-108964570D01*
X109744751Y-109186695D01*
X109745048Y-109191848D01*
X109745048Y-109191851D01*
X109756940Y-109398100D01*
X109757610Y-109409715D01*
X109758747Y-109414761D01*
X109758748Y-109414767D01*
X109775941Y-109491054D01*
X109806722Y-109627639D01*
X109890766Y-109834616D01*
X109941519Y-109917438D01*
X110004791Y-110020688D01*
X110007487Y-110025088D01*
X110153750Y-110193938D01*
X110325626Y-110336632D01*
X110396095Y-110377811D01*
X110398945Y-110379476D01*
X110447669Y-110431114D01*
X110460740Y-110500897D01*
X110434009Y-110566669D01*
X110393555Y-110600027D01*
X110381107Y-110606507D01*
X110376974Y-110609610D01*
X110376971Y-110609612D01*
X110352747Y-110627800D01*
X110202465Y-110740635D01*
X110048129Y-110902138D01*
X109922243Y-111086680D01*
X109906503Y-111120590D01*
X109838030Y-111268103D01*
X109828188Y-111289305D01*
X109768489Y-111504570D01*
X109744751Y-111726695D01*
X109745048Y-111731848D01*
X109745048Y-111731851D01*
X109755466Y-111912526D01*
X109757610Y-111949715D01*
X109758747Y-111954761D01*
X109758748Y-111954767D01*
X109778619Y-112042939D01*
X109806722Y-112167639D01*
X109890766Y-112374616D01*
X109941519Y-112457438D01*
X110004791Y-112560688D01*
X110007487Y-112565088D01*
X110153750Y-112733938D01*
X110325626Y-112876632D01*
X110396095Y-112917811D01*
X110398945Y-112919476D01*
X110447669Y-112971114D01*
X110460740Y-113040897D01*
X110434009Y-113106669D01*
X110393555Y-113140027D01*
X110381107Y-113146507D01*
X110376974Y-113149610D01*
X110376971Y-113149612D01*
X110206600Y-113277530D01*
X110202465Y-113280635D01*
X110048129Y-113442138D01*
X109922243Y-113626680D01*
X109828188Y-113829305D01*
X109768489Y-114044570D01*
X109744751Y-114266695D01*
X109745048Y-114271848D01*
X109745048Y-114271851D01*
X109755378Y-114451010D01*
X109757610Y-114489715D01*
X109758747Y-114494761D01*
X109758748Y-114494767D01*
X109779775Y-114588069D01*
X109806722Y-114707639D01*
X109831168Y-114767842D01*
X109887291Y-114906057D01*
X109890766Y-114914616D01*
X109893465Y-114919020D01*
X109989970Y-115076502D01*
X110007487Y-115105088D01*
X110153750Y-115273938D01*
X110325626Y-115416632D01*
X110396095Y-115457811D01*
X110398945Y-115459476D01*
X110447669Y-115511114D01*
X110460740Y-115580897D01*
X110434009Y-115646669D01*
X110393555Y-115680027D01*
X110381107Y-115686507D01*
X110376974Y-115689610D01*
X110376971Y-115689612D01*
X110206600Y-115817530D01*
X110202465Y-115820635D01*
X110198893Y-115824373D01*
X110115973Y-115911144D01*
X110048129Y-115982138D01*
X109922243Y-116166680D01*
X109828188Y-116369305D01*
X109768489Y-116584570D01*
X109744751Y-116806695D01*
X100508500Y-116806695D01*
X100508500Y-104140000D01*
X132106540Y-104140000D01*
X132126359Y-104455020D01*
X132185505Y-104765072D01*
X132186732Y-104768848D01*
X132280591Y-105057715D01*
X132283044Y-105065266D01*
X132284731Y-105068852D01*
X132284733Y-105068856D01*
X132415750Y-105347283D01*
X132415754Y-105347290D01*
X132417438Y-105350869D01*
X132419562Y-105354215D01*
X132419562Y-105354216D01*
X132424546Y-105362069D01*
X132586568Y-105617375D01*
X132687168Y-105738979D01*
X132759492Y-105826403D01*
X132787767Y-105860582D01*
X133017860Y-106076654D01*
X133273221Y-106262184D01*
X133276690Y-106264091D01*
X133276693Y-106264093D01*
X133546352Y-106412340D01*
X133549821Y-106414247D01*
X133553490Y-106415700D01*
X133553495Y-106415702D01*
X133658714Y-106457361D01*
X133843298Y-106530443D01*
X134149025Y-106608940D01*
X134462179Y-106648500D01*
X134777821Y-106648500D01*
X135090975Y-106608940D01*
X135396702Y-106530443D01*
X135581286Y-106457361D01*
X135686505Y-106415702D01*
X135686510Y-106415700D01*
X135690179Y-106414247D01*
X135693648Y-106412340D01*
X135963307Y-106264093D01*
X135963310Y-106264091D01*
X135966779Y-106262184D01*
X136073470Y-106184669D01*
X138462001Y-106184669D01*
X138462371Y-106191490D01*
X138467895Y-106242352D01*
X138471521Y-106257604D01*
X138516676Y-106378054D01*
X138525214Y-106393649D01*
X138601715Y-106495724D01*
X138614276Y-106508285D01*
X138716351Y-106584786D01*
X138731946Y-106593324D01*
X138852394Y-106638478D01*
X138867649Y-106642105D01*
X138918514Y-106647631D01*
X138925328Y-106648000D01*
X140697885Y-106648000D01*
X140713124Y-106643525D01*
X140714329Y-106642135D01*
X140716000Y-106634452D01*
X140716000Y-106629884D01*
X141224000Y-106629884D01*
X141228475Y-106645123D01*
X141229865Y-106646328D01*
X141237548Y-106647999D01*
X143014669Y-106647999D01*
X143021490Y-106647629D01*
X143072352Y-106642105D01*
X143087604Y-106638479D01*
X143208054Y-106593324D01*
X143223649Y-106584786D01*
X143325724Y-106508285D01*
X143338285Y-106495724D01*
X143414786Y-106393649D01*
X143423324Y-106378054D01*
X143468478Y-106257606D01*
X143472105Y-106242351D01*
X143477631Y-106191486D01*
X143478000Y-106184672D01*
X143478000Y-104412115D01*
X143473525Y-104396876D01*
X143472135Y-104395671D01*
X143464452Y-104394000D01*
X141242115Y-104394000D01*
X141226876Y-104398475D01*
X141225671Y-104399865D01*
X141224000Y-104407548D01*
X141224000Y-106629884D01*
X140716000Y-106629884D01*
X140716000Y-104412115D01*
X140711525Y-104396876D01*
X140710135Y-104395671D01*
X140702452Y-104394000D01*
X138480116Y-104394000D01*
X138464877Y-104398475D01*
X138463672Y-104399865D01*
X138462001Y-104407548D01*
X138462001Y-106184669D01*
X136073470Y-106184669D01*
X136222140Y-106076654D01*
X136452233Y-105860582D01*
X136480509Y-105826403D01*
X136552832Y-105738979D01*
X136653432Y-105617375D01*
X136815454Y-105362069D01*
X136820438Y-105354216D01*
X136820438Y-105354215D01*
X136822562Y-105350869D01*
X136824246Y-105347290D01*
X136824250Y-105347283D01*
X136955267Y-105068856D01*
X136955269Y-105068852D01*
X136956956Y-105065266D01*
X136959410Y-105057715D01*
X137053268Y-104768848D01*
X137054495Y-104765072D01*
X137113641Y-104455020D01*
X137133460Y-104140000D01*
X144806540Y-104140000D01*
X144826359Y-104455020D01*
X144885505Y-104765072D01*
X144886732Y-104768848D01*
X144980591Y-105057715D01*
X144983044Y-105065266D01*
X144984731Y-105068852D01*
X144984733Y-105068856D01*
X145115750Y-105347283D01*
X145115754Y-105347290D01*
X145117438Y-105350869D01*
X145119562Y-105354215D01*
X145119562Y-105354216D01*
X145124546Y-105362069D01*
X145286568Y-105617375D01*
X145387168Y-105738979D01*
X145459492Y-105826403D01*
X145487767Y-105860582D01*
X145717860Y-106076654D01*
X145973221Y-106262184D01*
X145976690Y-106264091D01*
X145976693Y-106264093D01*
X146246352Y-106412340D01*
X146249821Y-106414247D01*
X146253490Y-106415700D01*
X146253495Y-106415702D01*
X146358714Y-106457361D01*
X146543298Y-106530443D01*
X146849025Y-106608940D01*
X147162179Y-106648500D01*
X147477821Y-106648500D01*
X147790975Y-106608940D01*
X148096702Y-106530443D01*
X148281286Y-106457361D01*
X148386505Y-106415702D01*
X148386510Y-106415700D01*
X148390179Y-106414247D01*
X148393648Y-106412340D01*
X148663307Y-106264093D01*
X148663310Y-106264091D01*
X148666779Y-106262184D01*
X148922140Y-106076654D01*
X149152233Y-105860582D01*
X149180509Y-105826403D01*
X149252832Y-105738979D01*
X149353432Y-105617375D01*
X149515454Y-105362069D01*
X149520438Y-105354216D01*
X149520438Y-105354215D01*
X149522562Y-105350869D01*
X149524246Y-105347290D01*
X149524250Y-105347283D01*
X149655267Y-105068856D01*
X149655269Y-105068852D01*
X149656956Y-105065266D01*
X149659410Y-105057715D01*
X149682018Y-104988134D01*
X151091500Y-104988134D01*
X151098255Y-105050316D01*
X151149385Y-105186705D01*
X151236739Y-105303261D01*
X151353295Y-105390615D01*
X151489684Y-105441745D01*
X151551866Y-105448500D01*
X153248134Y-105448500D01*
X153310316Y-105441745D01*
X153446705Y-105390615D01*
X153537149Y-105322831D01*
X153556078Y-105308645D01*
X153556081Y-105308642D01*
X153563261Y-105303261D01*
X153568642Y-105296081D01*
X153574993Y-105289730D01*
X153577135Y-105291872D01*
X153621846Y-105258436D01*
X153692664Y-105253406D01*
X153734035Y-105271523D01*
X153734232Y-105271182D01*
X153737298Y-105272952D01*
X153738090Y-105273299D01*
X153738989Y-105273929D01*
X153748489Y-105279414D01*
X153945947Y-105371490D01*
X153956239Y-105375236D01*
X154166688Y-105431625D01*
X154177481Y-105433528D01*
X154394525Y-105452517D01*
X154405475Y-105452517D01*
X154622519Y-105433528D01*
X154633312Y-105431625D01*
X154843761Y-105375236D01*
X154854053Y-105371490D01*
X155051511Y-105279414D01*
X155061006Y-105273931D01*
X155113048Y-105237491D01*
X155121424Y-105227012D01*
X155114356Y-105213566D01*
X154129885Y-104229095D01*
X154095859Y-104166783D01*
X154097694Y-104141132D01*
X154764408Y-104141132D01*
X154764539Y-104142965D01*
X154768790Y-104149580D01*
X155474287Y-104855077D01*
X155486062Y-104861507D01*
X155498077Y-104852211D01*
X155533931Y-104801006D01*
X155539414Y-104791511D01*
X155631490Y-104594053D01*
X155635236Y-104583761D01*
X155691625Y-104373312D01*
X155693528Y-104362519D01*
X155712517Y-104145475D01*
X155712517Y-104134525D01*
X155693528Y-103917481D01*
X155691625Y-103906688D01*
X155635236Y-103696239D01*
X155631490Y-103685947D01*
X155539414Y-103488489D01*
X155533931Y-103478994D01*
X155497491Y-103426952D01*
X155487012Y-103418576D01*
X155473566Y-103425644D01*
X154772022Y-104127188D01*
X154764408Y-104141132D01*
X154097694Y-104141132D01*
X154100924Y-104095968D01*
X154129885Y-104050905D01*
X155115077Y-103065713D01*
X155121507Y-103053938D01*
X155112211Y-103041923D01*
X155061006Y-103006069D01*
X155051511Y-103000586D01*
X154854053Y-102908510D01*
X154843761Y-102904764D01*
X154633312Y-102848375D01*
X154622519Y-102846472D01*
X154405475Y-102827483D01*
X154394525Y-102827483D01*
X154177481Y-102846472D01*
X154166688Y-102848375D01*
X153956239Y-102904764D01*
X153945947Y-102908510D01*
X153748489Y-103000586D01*
X153738989Y-103006071D01*
X153738090Y-103006701D01*
X153737630Y-103006856D01*
X153734232Y-103008818D01*
X153733838Y-103008135D01*
X153670816Y-103029388D01*
X153601956Y-103012102D01*
X153576197Y-102989066D01*
X153574993Y-102990270D01*
X153568642Y-102983919D01*
X153563261Y-102976739D01*
X153556081Y-102971358D01*
X153556078Y-102971355D01*
X153467225Y-102904764D01*
X153446705Y-102889385D01*
X153310316Y-102838255D01*
X153248134Y-102831500D01*
X151551866Y-102831500D01*
X151489684Y-102838255D01*
X151353295Y-102889385D01*
X151236739Y-102976739D01*
X151149385Y-103093295D01*
X151098255Y-103229684D01*
X151091500Y-103291866D01*
X151091500Y-104988134D01*
X149682018Y-104988134D01*
X149753268Y-104768848D01*
X149754495Y-104765072D01*
X149813641Y-104455020D01*
X149833460Y-104140000D01*
X149813641Y-103824980D01*
X149754495Y-103514928D01*
X149661814Y-103229684D01*
X149658182Y-103218507D01*
X149658182Y-103218506D01*
X149656956Y-103214734D01*
X149603768Y-103101703D01*
X149524250Y-102932717D01*
X149524246Y-102932710D01*
X149522562Y-102929131D01*
X149353432Y-102662625D01*
X149152233Y-102419418D01*
X148922140Y-102203346D01*
X148666779Y-102017816D01*
X148456014Y-101901946D01*
X148393648Y-101867660D01*
X148393647Y-101867659D01*
X148390179Y-101865753D01*
X148386510Y-101864300D01*
X148386505Y-101864298D01*
X148100372Y-101751010D01*
X148100371Y-101751010D01*
X148096702Y-101749557D01*
X147790975Y-101671060D01*
X147477821Y-101631500D01*
X147162179Y-101631500D01*
X146849025Y-101671060D01*
X146543298Y-101749557D01*
X146539629Y-101751010D01*
X146539628Y-101751010D01*
X146253495Y-101864298D01*
X146253490Y-101864300D01*
X146249821Y-101865753D01*
X146246353Y-101867659D01*
X146246352Y-101867660D01*
X146183987Y-101901946D01*
X145973221Y-102017816D01*
X145717860Y-102203346D01*
X145487767Y-102419418D01*
X145286568Y-102662625D01*
X145117438Y-102929131D01*
X145115754Y-102932710D01*
X145115750Y-102932717D01*
X145036232Y-103101703D01*
X144983044Y-103214734D01*
X144981818Y-103218506D01*
X144981818Y-103218507D01*
X144978186Y-103229684D01*
X144885505Y-103514928D01*
X144826359Y-103824980D01*
X144806540Y-104140000D01*
X137133460Y-104140000D01*
X137116340Y-103867885D01*
X138462000Y-103867885D01*
X138466475Y-103883124D01*
X138467865Y-103884329D01*
X138475548Y-103886000D01*
X140697885Y-103886000D01*
X140713124Y-103881525D01*
X140714329Y-103880135D01*
X140716000Y-103872452D01*
X140716000Y-103867885D01*
X141224000Y-103867885D01*
X141228475Y-103883124D01*
X141229865Y-103884329D01*
X141237548Y-103886000D01*
X143459884Y-103886000D01*
X143475123Y-103881525D01*
X143476328Y-103880135D01*
X143477999Y-103872452D01*
X143477999Y-102095331D01*
X143477629Y-102088510D01*
X143472105Y-102037648D01*
X143468479Y-102022396D01*
X143423324Y-101901946D01*
X143414786Y-101886351D01*
X143338285Y-101784276D01*
X143325724Y-101771715D01*
X143223649Y-101695214D01*
X143208054Y-101686676D01*
X143087606Y-101641522D01*
X143072351Y-101637895D01*
X143021486Y-101632369D01*
X143014672Y-101632000D01*
X141242115Y-101632000D01*
X141226876Y-101636475D01*
X141225671Y-101637865D01*
X141224000Y-101645548D01*
X141224000Y-103867885D01*
X140716000Y-103867885D01*
X140716000Y-101650116D01*
X140711525Y-101634877D01*
X140710135Y-101633672D01*
X140702452Y-101632001D01*
X138925331Y-101632001D01*
X138918510Y-101632371D01*
X138867648Y-101637895D01*
X138852396Y-101641521D01*
X138731946Y-101686676D01*
X138716351Y-101695214D01*
X138614276Y-101771715D01*
X138601715Y-101784276D01*
X138525214Y-101886351D01*
X138516676Y-101901946D01*
X138471522Y-102022394D01*
X138467895Y-102037649D01*
X138462369Y-102088514D01*
X138462000Y-102095328D01*
X138462000Y-103867885D01*
X137116340Y-103867885D01*
X137113641Y-103824980D01*
X137054495Y-103514928D01*
X136961814Y-103229684D01*
X136958182Y-103218507D01*
X136958182Y-103218506D01*
X136956956Y-103214734D01*
X136903768Y-103101703D01*
X136824250Y-102932717D01*
X136824246Y-102932710D01*
X136822562Y-102929131D01*
X136653432Y-102662625D01*
X136452233Y-102419418D01*
X136222140Y-102203346D01*
X135966779Y-102017816D01*
X135756014Y-101901946D01*
X135693648Y-101867660D01*
X135693647Y-101867659D01*
X135690179Y-101865753D01*
X135686510Y-101864300D01*
X135686505Y-101864298D01*
X135400372Y-101751010D01*
X135400371Y-101751010D01*
X135396702Y-101749557D01*
X135090975Y-101671060D01*
X134777821Y-101631500D01*
X134462179Y-101631500D01*
X134149025Y-101671060D01*
X133843298Y-101749557D01*
X133839629Y-101751010D01*
X133839628Y-101751010D01*
X133553495Y-101864298D01*
X133553490Y-101864300D01*
X133549821Y-101865753D01*
X133546353Y-101867659D01*
X133546352Y-101867660D01*
X133483987Y-101901946D01*
X133273221Y-102017816D01*
X133017860Y-102203346D01*
X132787767Y-102419418D01*
X132586568Y-102662625D01*
X132417438Y-102929131D01*
X132415754Y-102932710D01*
X132415750Y-102932717D01*
X132336232Y-103101703D01*
X132283044Y-103214734D01*
X132281818Y-103218506D01*
X132281818Y-103218507D01*
X132278186Y-103229684D01*
X132185505Y-103514928D01*
X132126359Y-103824980D01*
X132106540Y-104140000D01*
X100508500Y-104140000D01*
X100508500Y-100634500D01*
X100528502Y-100566379D01*
X100582158Y-100519886D01*
X100634500Y-100508500D01*
X179365500Y-100508500D01*
X179433621Y-100528502D01*
G37*
G04 #@! TD.AperFunction*
M02*
