G04 #@! TF.GenerationSoftware,KiCad,Pcbnew,(6.0.7)*
G04 #@! TF.CreationDate,2023-09-02T21:04:06+09:00*
G04 #@! TF.ProjectId,MD_DRV8332,4d445f44-5256-4383-9333-322e6b696361,rev?*
G04 #@! TF.SameCoordinates,Original*
G04 #@! TF.FileFunction,Legend,Top*
G04 #@! TF.FilePolarity,Positive*
%FSLAX46Y46*%
G04 Gerber Fmt 4.6, Leading zero omitted, Abs format (unit mm)*
G04 Created by KiCad (PCBNEW (6.0.7)) date 2023-09-02 21:04:06*
%MOMM*%
%LPD*%
G01*
G04 APERTURE LIST*
%ADD10C,0.150000*%
%ADD11C,0.152000*%
%ADD12C,0.120000*%
%ADD13C,0.300000*%
G04 APERTURE END LIST*
D10*
X123507333Y-146153238D02*
X123364476Y-146105619D01*
X123126380Y-146105619D01*
X123031142Y-146153238D01*
X122983523Y-146200857D01*
X122935904Y-146296095D01*
X122935904Y-146391333D01*
X122983523Y-146486571D01*
X123031142Y-146534190D01*
X123126380Y-146581809D01*
X123316857Y-146629428D01*
X123412095Y-146677047D01*
X123459714Y-146724666D01*
X123507333Y-146819904D01*
X123507333Y-146915142D01*
X123459714Y-147010380D01*
X123412095Y-147058000D01*
X123316857Y-147105619D01*
X123078761Y-147105619D01*
X122935904Y-147058000D01*
X122602571Y-147105619D02*
X122364476Y-146105619D01*
X122174000Y-146819904D01*
X121983523Y-146105619D01*
X121745428Y-147105619D01*
X120840666Y-146105619D02*
X121412095Y-146105619D01*
X121126380Y-146105619D02*
X121126380Y-147105619D01*
X121221619Y-146962761D01*
X121316857Y-146867523D01*
X121412095Y-146819904D01*
X147837142Y-128912857D02*
X147884761Y-128960476D01*
X147932380Y-129103333D01*
X147932380Y-129198571D01*
X147884761Y-129341428D01*
X147789523Y-129436666D01*
X147694285Y-129484285D01*
X147503809Y-129531904D01*
X147360952Y-129531904D01*
X147170476Y-129484285D01*
X147075238Y-129436666D01*
X146980000Y-129341428D01*
X146932380Y-129198571D01*
X146932380Y-129103333D01*
X146980000Y-128960476D01*
X147027619Y-128912857D01*
X147932380Y-127960476D02*
X147932380Y-128531904D01*
X147932380Y-128246190D02*
X146932380Y-128246190D01*
X147075238Y-128341428D01*
X147170476Y-128436666D01*
X147218095Y-128531904D01*
X146932380Y-127341428D02*
X146932380Y-127246190D01*
X146980000Y-127150952D01*
X147027619Y-127103333D01*
X147122857Y-127055714D01*
X147313333Y-127008095D01*
X147551428Y-127008095D01*
X147741904Y-127055714D01*
X147837142Y-127103333D01*
X147884761Y-127150952D01*
X147932380Y-127246190D01*
X147932380Y-127341428D01*
X147884761Y-127436666D01*
X147837142Y-127484285D01*
X147741904Y-127531904D01*
X147551428Y-127579523D01*
X147313333Y-127579523D01*
X147122857Y-127531904D01*
X147027619Y-127484285D01*
X146980000Y-127436666D01*
X146932380Y-127341428D01*
X147932380Y-125102857D02*
X147456190Y-125436190D01*
X147932380Y-125674285D02*
X146932380Y-125674285D01*
X146932380Y-125293333D01*
X146980000Y-125198095D01*
X147027619Y-125150476D01*
X147122857Y-125102857D01*
X147265714Y-125102857D01*
X147360952Y-125150476D01*
X147408571Y-125198095D01*
X147456190Y-125293333D01*
X147456190Y-125674285D01*
X147932380Y-124150476D02*
X147932380Y-124721904D01*
X147932380Y-124436190D02*
X146932380Y-124436190D01*
X147075238Y-124531428D01*
X147170476Y-124626666D01*
X147218095Y-124721904D01*
X146932380Y-123531428D02*
X146932380Y-123436190D01*
X146980000Y-123340952D01*
X147027619Y-123293333D01*
X147122857Y-123245714D01*
X147313333Y-123198095D01*
X147551428Y-123198095D01*
X147741904Y-123245714D01*
X147837142Y-123293333D01*
X147884761Y-123340952D01*
X147932380Y-123436190D01*
X147932380Y-123531428D01*
X147884761Y-123626666D01*
X147837142Y-123674285D01*
X147741904Y-123721904D01*
X147551428Y-123769523D01*
X147313333Y-123769523D01*
X147122857Y-123721904D01*
X147027619Y-123674285D01*
X146980000Y-123626666D01*
X146932380Y-123531428D01*
X147932380Y-121449183D02*
X147456190Y-121782516D01*
X147932380Y-122020611D02*
X146932380Y-122020611D01*
X146932380Y-121639659D01*
X146980000Y-121544421D01*
X147027619Y-121496802D01*
X147122857Y-121449183D01*
X147265714Y-121449183D01*
X147360952Y-121496802D01*
X147408571Y-121544421D01*
X147456190Y-121639659D01*
X147456190Y-122020611D01*
X147932380Y-120496802D02*
X147932380Y-121068230D01*
X147932380Y-120782516D02*
X146932380Y-120782516D01*
X147075238Y-120877754D01*
X147170476Y-120972992D01*
X147218095Y-121068230D01*
X147932380Y-119544421D02*
X147932380Y-120115849D01*
X147932380Y-119830135D02*
X146932380Y-119830135D01*
X147075238Y-119925373D01*
X147170476Y-120020611D01*
X147218095Y-120115849D01*
X146640937Y-115664197D02*
X146593318Y-115711816D01*
X146450461Y-115759435D01*
X146355223Y-115759435D01*
X146212366Y-115711816D01*
X146117128Y-115616578D01*
X146069509Y-115521340D01*
X146021890Y-115330864D01*
X146021890Y-115188007D01*
X146069509Y-114997531D01*
X146117128Y-114902293D01*
X146212366Y-114807055D01*
X146355223Y-114759435D01*
X146450461Y-114759435D01*
X146593318Y-114807055D01*
X146640937Y-114854674D01*
X147593318Y-115759435D02*
X147021890Y-115759435D01*
X147307604Y-115759435D02*
X147307604Y-114759435D01*
X147212366Y-114902293D01*
X147117128Y-114997531D01*
X147021890Y-115045150D01*
X147974271Y-114854674D02*
X148021890Y-114807055D01*
X148117128Y-114759435D01*
X148355223Y-114759435D01*
X148450461Y-114807055D01*
X148498080Y-114854674D01*
X148545699Y-114949912D01*
X148545699Y-115045150D01*
X148498080Y-115188007D01*
X147926652Y-115759435D01*
X148545699Y-115759435D01*
X118737142Y-136342380D02*
X118403809Y-135866190D01*
X118165714Y-136342380D02*
X118165714Y-135342380D01*
X118546666Y-135342380D01*
X118641904Y-135390000D01*
X118689523Y-135437619D01*
X118737142Y-135532857D01*
X118737142Y-135675714D01*
X118689523Y-135770952D01*
X118641904Y-135818571D01*
X118546666Y-135866190D01*
X118165714Y-135866190D01*
X119689523Y-136342380D02*
X119118095Y-136342380D01*
X119403809Y-136342380D02*
X119403809Y-135342380D01*
X119308571Y-135485238D01*
X119213333Y-135580476D01*
X119118095Y-135628095D01*
X120546666Y-135342380D02*
X120356190Y-135342380D01*
X120260952Y-135390000D01*
X120213333Y-135437619D01*
X120118095Y-135580476D01*
X120070476Y-135770952D01*
X120070476Y-136151904D01*
X120118095Y-136247142D01*
X120165714Y-136294761D01*
X120260952Y-136342380D01*
X120451428Y-136342380D01*
X120546666Y-136294761D01*
X120594285Y-136247142D01*
X120641904Y-136151904D01*
X120641904Y-135913809D01*
X120594285Y-135818571D01*
X120546666Y-135770952D01*
X120451428Y-135723333D01*
X120260952Y-135723333D01*
X120165714Y-135770952D01*
X120118095Y-135818571D01*
X120070476Y-135913809D01*
X118737142Y-137612380D02*
X118403809Y-137136190D01*
X118165714Y-137612380D02*
X118165714Y-136612380D01*
X118546666Y-136612380D01*
X118641904Y-136660000D01*
X118689523Y-136707619D01*
X118737142Y-136802857D01*
X118737142Y-136945714D01*
X118689523Y-137040952D01*
X118641904Y-137088571D01*
X118546666Y-137136190D01*
X118165714Y-137136190D01*
X119689523Y-137612380D02*
X119118095Y-137612380D01*
X119403809Y-137612380D02*
X119403809Y-136612380D01*
X119308571Y-136755238D01*
X119213333Y-136850476D01*
X119118095Y-136898095D01*
X120594285Y-136612380D02*
X120118095Y-136612380D01*
X120070476Y-137088571D01*
X120118095Y-137040952D01*
X120213333Y-136993333D01*
X120451428Y-136993333D01*
X120546666Y-137040952D01*
X120594285Y-137088571D01*
X120641904Y-137183809D01*
X120641904Y-137421904D01*
X120594285Y-137517142D01*
X120546666Y-137564761D01*
X120451428Y-137612380D01*
X120213333Y-137612380D01*
X120118095Y-137564761D01*
X120070476Y-137517142D01*
X178412380Y-141970357D02*
X177936190Y-142303690D01*
X178412380Y-142541785D02*
X177412380Y-142541785D01*
X177412380Y-142160833D01*
X177460000Y-142065595D01*
X177507619Y-142017976D01*
X177602857Y-141970357D01*
X177745714Y-141970357D01*
X177840952Y-142017976D01*
X177888571Y-142065595D01*
X177936190Y-142160833D01*
X177936190Y-142541785D01*
X178412380Y-141017976D02*
X178412380Y-141589404D01*
X178412380Y-141303690D02*
X177412380Y-141303690D01*
X177555238Y-141398928D01*
X177650476Y-141494166D01*
X177698095Y-141589404D01*
X177745714Y-140160833D02*
X178412380Y-140160833D01*
X177364761Y-140398928D02*
X178079047Y-140637023D01*
X178079047Y-140017976D01*
X175872380Y-141970357D02*
X175396190Y-142303690D01*
X175872380Y-142541785D02*
X174872380Y-142541785D01*
X174872380Y-142160833D01*
X174920000Y-142065595D01*
X174967619Y-142017976D01*
X175062857Y-141970357D01*
X175205714Y-141970357D01*
X175300952Y-142017976D01*
X175348571Y-142065595D01*
X175396190Y-142160833D01*
X175396190Y-142541785D01*
X175872380Y-141017976D02*
X175872380Y-141589404D01*
X175872380Y-141303690D02*
X174872380Y-141303690D01*
X175015238Y-141398928D01*
X175110476Y-141494166D01*
X175158095Y-141589404D01*
X174872380Y-140684642D02*
X174872380Y-140065595D01*
X175253333Y-140398928D01*
X175253333Y-140256071D01*
X175300952Y-140160833D01*
X175348571Y-140113214D01*
X175443809Y-140065595D01*
X175681904Y-140065595D01*
X175777142Y-140113214D01*
X175824761Y-140160833D01*
X175872380Y-140256071D01*
X175872380Y-140541785D01*
X175824761Y-140637023D01*
X175777142Y-140684642D01*
X173332380Y-141970357D02*
X172856190Y-142303690D01*
X173332380Y-142541785D02*
X172332380Y-142541785D01*
X172332380Y-142160833D01*
X172380000Y-142065595D01*
X172427619Y-142017976D01*
X172522857Y-141970357D01*
X172665714Y-141970357D01*
X172760952Y-142017976D01*
X172808571Y-142065595D01*
X172856190Y-142160833D01*
X172856190Y-142541785D01*
X173332380Y-141017976D02*
X173332380Y-141589404D01*
X173332380Y-141303690D02*
X172332380Y-141303690D01*
X172475238Y-141398928D01*
X172570476Y-141494166D01*
X172618095Y-141589404D01*
X172427619Y-140637023D02*
X172380000Y-140589404D01*
X172332380Y-140494166D01*
X172332380Y-140256071D01*
X172380000Y-140160833D01*
X172427619Y-140113214D01*
X172522857Y-140065595D01*
X172618095Y-140065595D01*
X172760952Y-140113214D01*
X173332380Y-140684642D01*
X173332380Y-140065595D01*
X120076569Y-132889132D02*
X119975554Y-133461552D01*
X120480630Y-133293193D02*
X119773524Y-134000300D01*
X119504149Y-133730926D01*
X119470478Y-133629911D01*
X119470478Y-133562567D01*
X119504149Y-133461552D01*
X119605165Y-133360537D01*
X119706180Y-133326865D01*
X119773524Y-133326865D01*
X119874539Y-133360537D01*
X120143913Y-133629911D01*
X119739852Y-132552414D02*
X119605165Y-132417727D01*
X119504149Y-132384056D01*
X119436806Y-132384056D01*
X119268447Y-132417727D01*
X119100088Y-132518743D01*
X118830714Y-132788117D01*
X118797043Y-132889132D01*
X118797043Y-132956475D01*
X118830714Y-133057491D01*
X118965401Y-133192178D01*
X119066417Y-133225850D01*
X119133760Y-133225850D01*
X119234775Y-133192178D01*
X119403134Y-133023819D01*
X119436806Y-132922804D01*
X119436806Y-132855460D01*
X119403134Y-132754445D01*
X119268447Y-132619758D01*
X119167432Y-132586086D01*
X119100088Y-132586086D01*
X118999073Y-132619758D01*
X117772316Y-119136956D02*
X117199896Y-119035941D01*
X117368255Y-119541017D02*
X116661148Y-118833911D01*
X116930522Y-118564536D01*
X117031537Y-118530865D01*
X117098881Y-118530865D01*
X117199896Y-118564536D01*
X117300911Y-118665552D01*
X117334583Y-118766567D01*
X117334583Y-118833911D01*
X117300911Y-118934926D01*
X117031537Y-119204300D01*
X117772316Y-118328834D02*
X117671301Y-118362506D01*
X117603957Y-118362506D01*
X117502942Y-118328834D01*
X117469270Y-118295162D01*
X117435598Y-118194147D01*
X117435598Y-118126804D01*
X117469270Y-118025788D01*
X117603957Y-117891101D01*
X117704973Y-117857430D01*
X117772316Y-117857430D01*
X117873331Y-117891101D01*
X117907003Y-117924773D01*
X117940675Y-118025788D01*
X117940675Y-118093132D01*
X117907003Y-118194147D01*
X117772316Y-118328834D01*
X117738644Y-118429849D01*
X117738644Y-118497193D01*
X117772316Y-118598208D01*
X117907003Y-118732895D01*
X118008018Y-118766567D01*
X118075362Y-118766567D01*
X118176377Y-118732895D01*
X118311064Y-118598208D01*
X118344736Y-118497193D01*
X118344736Y-118429849D01*
X118311064Y-118328834D01*
X118176377Y-118194147D01*
X118075362Y-118160475D01*
X118008018Y-118160475D01*
X117907003Y-118194147D01*
X139533333Y-147612380D02*
X139200000Y-147136190D01*
X138961904Y-147612380D02*
X138961904Y-146612380D01*
X139342857Y-146612380D01*
X139438095Y-146660000D01*
X139485714Y-146707619D01*
X139533333Y-146802857D01*
X139533333Y-146945714D01*
X139485714Y-147040952D01*
X139438095Y-147088571D01*
X139342857Y-147136190D01*
X138961904Y-147136190D01*
X139866666Y-146612380D02*
X140533333Y-146612380D01*
X140104761Y-147612380D01*
X139533333Y-144437380D02*
X139200000Y-143961190D01*
X138961904Y-144437380D02*
X138961904Y-143437380D01*
X139342857Y-143437380D01*
X139438095Y-143485000D01*
X139485714Y-143532619D01*
X139533333Y-143627857D01*
X139533333Y-143770714D01*
X139485714Y-143865952D01*
X139438095Y-143913571D01*
X139342857Y-143961190D01*
X138961904Y-143961190D01*
X140390476Y-143437380D02*
X140200000Y-143437380D01*
X140104761Y-143485000D01*
X140057142Y-143532619D01*
X139961904Y-143675476D01*
X139914285Y-143865952D01*
X139914285Y-144246904D01*
X139961904Y-144342142D01*
X140009523Y-144389761D01*
X140104761Y-144437380D01*
X140295238Y-144437380D01*
X140390476Y-144389761D01*
X140438095Y-144342142D01*
X140485714Y-144246904D01*
X140485714Y-144008809D01*
X140438095Y-143913571D01*
X140390476Y-143865952D01*
X140295238Y-143818333D01*
X140104761Y-143818333D01*
X140009523Y-143865952D01*
X139961904Y-143913571D01*
X139914285Y-144008809D01*
X139533333Y-141262380D02*
X139200000Y-140786190D01*
X138961904Y-141262380D02*
X138961904Y-140262380D01*
X139342857Y-140262380D01*
X139438095Y-140310000D01*
X139485714Y-140357619D01*
X139533333Y-140452857D01*
X139533333Y-140595714D01*
X139485714Y-140690952D01*
X139438095Y-140738571D01*
X139342857Y-140786190D01*
X138961904Y-140786190D01*
X140438095Y-140262380D02*
X139961904Y-140262380D01*
X139914285Y-140738571D01*
X139961904Y-140690952D01*
X140057142Y-140643333D01*
X140295238Y-140643333D01*
X140390476Y-140690952D01*
X140438095Y-140738571D01*
X140485714Y-140833809D01*
X140485714Y-141071904D01*
X140438095Y-141167142D01*
X140390476Y-141214761D01*
X140295238Y-141262380D01*
X140057142Y-141262380D01*
X139961904Y-141214761D01*
X139914285Y-141167142D01*
X139533333Y-138087380D02*
X139200000Y-137611190D01*
X138961904Y-138087380D02*
X138961904Y-137087380D01*
X139342857Y-137087380D01*
X139438095Y-137135000D01*
X139485714Y-137182619D01*
X139533333Y-137277857D01*
X139533333Y-137420714D01*
X139485714Y-137515952D01*
X139438095Y-137563571D01*
X139342857Y-137611190D01*
X138961904Y-137611190D01*
X140390476Y-137420714D02*
X140390476Y-138087380D01*
X140152380Y-137039761D02*
X139914285Y-137754047D01*
X140533333Y-137754047D01*
X139533333Y-134912380D02*
X139200000Y-134436190D01*
X138961904Y-134912380D02*
X138961904Y-133912380D01*
X139342857Y-133912380D01*
X139438095Y-133960000D01*
X139485714Y-134007619D01*
X139533333Y-134102857D01*
X139533333Y-134245714D01*
X139485714Y-134340952D01*
X139438095Y-134388571D01*
X139342857Y-134436190D01*
X138961904Y-134436190D01*
X139866666Y-133912380D02*
X140485714Y-133912380D01*
X140152380Y-134293333D01*
X140295238Y-134293333D01*
X140390476Y-134340952D01*
X140438095Y-134388571D01*
X140485714Y-134483809D01*
X140485714Y-134721904D01*
X140438095Y-134817142D01*
X140390476Y-134864761D01*
X140295238Y-134912380D01*
X140009523Y-134912380D01*
X139914285Y-134864761D01*
X139866666Y-134817142D01*
X114188085Y-121626761D02*
X113854752Y-121150571D01*
X113616656Y-121626761D02*
X113616656Y-120626761D01*
X113997609Y-120626761D01*
X114092847Y-120674381D01*
X114140466Y-120722000D01*
X114188085Y-120817238D01*
X114188085Y-120960095D01*
X114140466Y-121055333D01*
X114092847Y-121102952D01*
X113997609Y-121150571D01*
X113616656Y-121150571D01*
X114569037Y-120722000D02*
X114616656Y-120674381D01*
X114711894Y-120626761D01*
X114949990Y-120626761D01*
X115045228Y-120674381D01*
X115092847Y-120722000D01*
X115140466Y-120817238D01*
X115140466Y-120912476D01*
X115092847Y-121055333D01*
X114521418Y-121626761D01*
X115140466Y-121626761D01*
X114119087Y-119805226D02*
X113785754Y-119329036D01*
X113547658Y-119805226D02*
X113547658Y-118805226D01*
X113928611Y-118805226D01*
X114023849Y-118852846D01*
X114071468Y-118900465D01*
X114119087Y-118995703D01*
X114119087Y-119138560D01*
X114071468Y-119233798D01*
X114023849Y-119281417D01*
X113928611Y-119329036D01*
X113547658Y-119329036D01*
X115071468Y-119805226D02*
X114500039Y-119805226D01*
X114785754Y-119805226D02*
X114785754Y-118805226D01*
X114690515Y-118948084D01*
X114595277Y-119043322D01*
X114500039Y-119090941D01*
X175590825Y-138322292D02*
X174590825Y-138322292D01*
X174590825Y-138084197D01*
X174638445Y-137941339D01*
X174733683Y-137846101D01*
X174828921Y-137798482D01*
X175019397Y-137750863D01*
X175162254Y-137750863D01*
X175352730Y-137798482D01*
X175447968Y-137846101D01*
X175543206Y-137941339D01*
X175590825Y-138084197D01*
X175590825Y-138322292D01*
X175019397Y-137179435D02*
X174971778Y-137274673D01*
X174924159Y-137322292D01*
X174828921Y-137369911D01*
X174781302Y-137369911D01*
X174686064Y-137322292D01*
X174638445Y-137274673D01*
X174590825Y-137179435D01*
X174590825Y-136988958D01*
X174638445Y-136893720D01*
X174686064Y-136846101D01*
X174781302Y-136798482D01*
X174828921Y-136798482D01*
X174924159Y-136846101D01*
X174971778Y-136893720D01*
X175019397Y-136988958D01*
X175019397Y-137179435D01*
X175067016Y-137274673D01*
X175114635Y-137322292D01*
X175209873Y-137369911D01*
X175400349Y-137369911D01*
X175495587Y-137322292D01*
X175543206Y-137274673D01*
X175590825Y-137179435D01*
X175590825Y-136988958D01*
X175543206Y-136893720D01*
X175495587Y-136846101D01*
X175400349Y-136798482D01*
X175209873Y-136798482D01*
X175114635Y-136846101D01*
X175067016Y-136893720D01*
X175019397Y-136988958D01*
X172954711Y-138437629D02*
X171954711Y-138437629D01*
X171954711Y-138199534D01*
X172002331Y-138056676D01*
X172097569Y-137961438D01*
X172192807Y-137913819D01*
X172383283Y-137866200D01*
X172526140Y-137866200D01*
X172716616Y-137913819D01*
X172811854Y-137961438D01*
X172907092Y-138056676D01*
X172954711Y-138199534D01*
X172954711Y-138437629D01*
X171954711Y-137532867D02*
X171954711Y-136866200D01*
X172954711Y-137294772D01*
X170472380Y-138383095D02*
X169472380Y-138383095D01*
X169472380Y-138145000D01*
X169520000Y-138002142D01*
X169615238Y-137906904D01*
X169710476Y-137859285D01*
X169900952Y-137811666D01*
X170043809Y-137811666D01*
X170234285Y-137859285D01*
X170329523Y-137906904D01*
X170424761Y-138002142D01*
X170472380Y-138145000D01*
X170472380Y-138383095D01*
X169472380Y-136954523D02*
X169472380Y-137145000D01*
X169520000Y-137240238D01*
X169567619Y-137287857D01*
X169710476Y-137383095D01*
X169900952Y-137430714D01*
X170281904Y-137430714D01*
X170377142Y-137383095D01*
X170424761Y-137335476D01*
X170472380Y-137240238D01*
X170472380Y-137049761D01*
X170424761Y-136954523D01*
X170377142Y-136906904D01*
X170281904Y-136859285D01*
X170043809Y-136859285D01*
X169948571Y-136906904D01*
X169900952Y-136954523D01*
X169853333Y-137049761D01*
X169853333Y-137240238D01*
X169900952Y-137335476D01*
X169948571Y-137383095D01*
X170043809Y-137430714D01*
X135435685Y-147589421D02*
X135435685Y-146589421D01*
X135673781Y-146589421D01*
X135816638Y-146637041D01*
X135911876Y-146732279D01*
X135959495Y-146827517D01*
X136007114Y-147017993D01*
X136007114Y-147160850D01*
X135959495Y-147351326D01*
X135911876Y-147446564D01*
X135816638Y-147541802D01*
X135673781Y-147589421D01*
X135435685Y-147589421D01*
X136911876Y-146589421D02*
X136435685Y-146589421D01*
X136388066Y-147065612D01*
X136435685Y-147017993D01*
X136530923Y-146970374D01*
X136769019Y-146970374D01*
X136864257Y-147017993D01*
X136911876Y-147065612D01*
X136959495Y-147160850D01*
X136959495Y-147398945D01*
X136911876Y-147494183D01*
X136864257Y-147541802D01*
X136769019Y-147589421D01*
X136530923Y-147589421D01*
X136435685Y-147541802D01*
X136388066Y-147494183D01*
X135601279Y-144484533D02*
X135601279Y-143484533D01*
X135839375Y-143484533D01*
X135982232Y-143532153D01*
X136077470Y-143627391D01*
X136125089Y-143722629D01*
X136172708Y-143913105D01*
X136172708Y-144055962D01*
X136125089Y-144246438D01*
X136077470Y-144341676D01*
X135982232Y-144436914D01*
X135839375Y-144484533D01*
X135601279Y-144484533D01*
X137029851Y-143817867D02*
X137029851Y-144484533D01*
X136791755Y-143436914D02*
X136553660Y-144151200D01*
X137172708Y-144151200D01*
X135539181Y-141276148D02*
X135539181Y-140276148D01*
X135777277Y-140276148D01*
X135920134Y-140323768D01*
X136015372Y-140419006D01*
X136062991Y-140514244D01*
X136110610Y-140704720D01*
X136110610Y-140847577D01*
X136062991Y-141038053D01*
X136015372Y-141133291D01*
X135920134Y-141228529D01*
X135777277Y-141276148D01*
X135539181Y-141276148D01*
X136443943Y-140276148D02*
X137062991Y-140276148D01*
X136729657Y-140657101D01*
X136872515Y-140657101D01*
X136967753Y-140704720D01*
X137015372Y-140752339D01*
X137062991Y-140847577D01*
X137062991Y-141085672D01*
X137015372Y-141180910D01*
X136967753Y-141228529D01*
X136872515Y-141276148D01*
X136586800Y-141276148D01*
X136491562Y-141228529D01*
X136443943Y-141180910D01*
X135539181Y-138171259D02*
X135539181Y-137171259D01*
X135777277Y-137171259D01*
X135920134Y-137218879D01*
X136015372Y-137314117D01*
X136062991Y-137409355D01*
X136110610Y-137599831D01*
X136110610Y-137742688D01*
X136062991Y-137933164D01*
X136015372Y-138028402D01*
X135920134Y-138123640D01*
X135777277Y-138171259D01*
X135539181Y-138171259D01*
X136491562Y-137266498D02*
X136539181Y-137218879D01*
X136634419Y-137171259D01*
X136872515Y-137171259D01*
X136967753Y-137218879D01*
X137015372Y-137266498D01*
X137062991Y-137361736D01*
X137062991Y-137456974D01*
X137015372Y-137599831D01*
X136443943Y-138171259D01*
X137062991Y-138171259D01*
X135546904Y-135072380D02*
X135546904Y-134072380D01*
X135785000Y-134072380D01*
X135927857Y-134120000D01*
X136023095Y-134215238D01*
X136070714Y-134310476D01*
X136118333Y-134500952D01*
X136118333Y-134643809D01*
X136070714Y-134834285D01*
X136023095Y-134929523D01*
X135927857Y-135024761D01*
X135785000Y-135072380D01*
X135546904Y-135072380D01*
X137070714Y-135072380D02*
X136499285Y-135072380D01*
X136785000Y-135072380D02*
X136785000Y-134072380D01*
X136689761Y-134215238D01*
X136594523Y-134310476D01*
X136499285Y-134358095D01*
X166504526Y-118482382D02*
X166456907Y-118530001D01*
X166314050Y-118577620D01*
X166218812Y-118577620D01*
X166075955Y-118530001D01*
X165980717Y-118434763D01*
X165933098Y-118339525D01*
X165885479Y-118149049D01*
X165885479Y-118006192D01*
X165933098Y-117815716D01*
X165980717Y-117720478D01*
X166075955Y-117625240D01*
X166218812Y-117577620D01*
X166314050Y-117577620D01*
X166456907Y-117625240D01*
X166504526Y-117672859D01*
X167456907Y-118577620D02*
X166885479Y-118577620D01*
X167171193Y-118577620D02*
X167171193Y-117577620D01*
X167075955Y-117720478D01*
X166980717Y-117815716D01*
X166885479Y-117863335D01*
X168028336Y-118006192D02*
X167933098Y-117958573D01*
X167885479Y-117910954D01*
X167837860Y-117815716D01*
X167837860Y-117768097D01*
X167885479Y-117672859D01*
X167933098Y-117625240D01*
X168028336Y-117577620D01*
X168218812Y-117577620D01*
X168314050Y-117625240D01*
X168361669Y-117672859D01*
X168409288Y-117768097D01*
X168409288Y-117815716D01*
X168361669Y-117910954D01*
X168314050Y-117958573D01*
X168218812Y-118006192D01*
X168028336Y-118006192D01*
X167933098Y-118053811D01*
X167885479Y-118101430D01*
X167837860Y-118196668D01*
X167837860Y-118387144D01*
X167885479Y-118482382D01*
X167933098Y-118530001D01*
X168028336Y-118577620D01*
X168218812Y-118577620D01*
X168314050Y-118530001D01*
X168361669Y-118482382D01*
X168409288Y-118387144D01*
X168409288Y-118196668D01*
X168361669Y-118101430D01*
X168314050Y-118053811D01*
X168218812Y-118006192D01*
X166589642Y-123055223D02*
X166542023Y-123102842D01*
X166399166Y-123150461D01*
X166303928Y-123150461D01*
X166161071Y-123102842D01*
X166065833Y-123007604D01*
X166018214Y-122912366D01*
X165970595Y-122721890D01*
X165970595Y-122579033D01*
X166018214Y-122388557D01*
X166065833Y-122293319D01*
X166161071Y-122198081D01*
X166303928Y-122150461D01*
X166399166Y-122150461D01*
X166542023Y-122198081D01*
X166589642Y-122245700D01*
X167542023Y-123150461D02*
X166970595Y-123150461D01*
X167256309Y-123150461D02*
X167256309Y-122150461D01*
X167161071Y-122293319D01*
X167065833Y-122388557D01*
X166970595Y-122436176D01*
X167875357Y-122150461D02*
X168542023Y-122150461D01*
X168113452Y-123150461D01*
X166589642Y-128295917D02*
X166542023Y-128343536D01*
X166399166Y-128391155D01*
X166303928Y-128391155D01*
X166161071Y-128343536D01*
X166065833Y-128248298D01*
X166018214Y-128153060D01*
X165970595Y-127962584D01*
X165970595Y-127819727D01*
X166018214Y-127629251D01*
X166065833Y-127534013D01*
X166161071Y-127438775D01*
X166303928Y-127391155D01*
X166399166Y-127391155D01*
X166542023Y-127438775D01*
X166589642Y-127486394D01*
X167542023Y-128391155D02*
X166970595Y-128391155D01*
X167256309Y-128391155D02*
X167256309Y-127391155D01*
X167161071Y-127534013D01*
X167065833Y-127629251D01*
X166970595Y-127676870D01*
X168399166Y-127391155D02*
X168208690Y-127391155D01*
X168113452Y-127438775D01*
X168065833Y-127486394D01*
X167970595Y-127629251D01*
X167922976Y-127819727D01*
X167922976Y-128200679D01*
X167970595Y-128295917D01*
X168018214Y-128343536D01*
X168113452Y-128391155D01*
X168303928Y-128391155D01*
X168399166Y-128343536D01*
X168446785Y-128295917D01*
X168494404Y-128200679D01*
X168494404Y-127962584D01*
X168446785Y-127867346D01*
X168399166Y-127819727D01*
X168303928Y-127772108D01*
X168113452Y-127772108D01*
X168018214Y-127819727D01*
X167970595Y-127867346D01*
X167922976Y-127962584D01*
X146408164Y-134120315D02*
X146360545Y-134167934D01*
X146217688Y-134215553D01*
X146122450Y-134215553D01*
X145979593Y-134167934D01*
X145884355Y-134072696D01*
X145836736Y-133977458D01*
X145789117Y-133786982D01*
X145789117Y-133644125D01*
X145836736Y-133453649D01*
X145884355Y-133358411D01*
X145979593Y-133263173D01*
X146122450Y-133215553D01*
X146217688Y-133215553D01*
X146360545Y-133263173D01*
X146408164Y-133310792D01*
X147360545Y-134215553D02*
X146789117Y-134215553D01*
X147074831Y-134215553D02*
X147074831Y-133215553D01*
X146979593Y-133358411D01*
X146884355Y-133453649D01*
X146789117Y-133501268D01*
X148265307Y-133215553D02*
X147789117Y-133215553D01*
X147741498Y-133691744D01*
X147789117Y-133644125D01*
X147884355Y-133596506D01*
X148122450Y-133596506D01*
X148217688Y-133644125D01*
X148265307Y-133691744D01*
X148312926Y-133786982D01*
X148312926Y-134025077D01*
X148265307Y-134120315D01*
X148217688Y-134167934D01*
X148122450Y-134215553D01*
X147884355Y-134215553D01*
X147789117Y-134167934D01*
X147741498Y-134120315D01*
X167659880Y-134240995D02*
X167612261Y-134288614D01*
X167469404Y-134336233D01*
X167374166Y-134336233D01*
X167231309Y-134288614D01*
X167136071Y-134193376D01*
X167088452Y-134098138D01*
X167040833Y-133907662D01*
X167040833Y-133764805D01*
X167088452Y-133574329D01*
X167136071Y-133479091D01*
X167231309Y-133383853D01*
X167374166Y-133336233D01*
X167469404Y-133336233D01*
X167612261Y-133383853D01*
X167659880Y-133431472D01*
X168612261Y-134336233D02*
X168040833Y-134336233D01*
X168326547Y-134336233D02*
X168326547Y-133336233D01*
X168231309Y-133479091D01*
X168136071Y-133574329D01*
X168040833Y-133621948D01*
X169469404Y-133669567D02*
X169469404Y-134336233D01*
X169231309Y-133288614D02*
X168993214Y-134002900D01*
X169612261Y-134002900D01*
X167445828Y-115658474D02*
X167398209Y-115706093D01*
X167255352Y-115753712D01*
X167160114Y-115753712D01*
X167017257Y-115706093D01*
X166922019Y-115610855D01*
X166874400Y-115515617D01*
X166826781Y-115325141D01*
X166826781Y-115182284D01*
X166874400Y-114991808D01*
X166922019Y-114896570D01*
X167017257Y-114801332D01*
X167160114Y-114753712D01*
X167255352Y-114753712D01*
X167398209Y-114801332D01*
X167445828Y-114848951D01*
X168398209Y-115753712D02*
X167826781Y-115753712D01*
X168112495Y-115753712D02*
X168112495Y-114753712D01*
X168017257Y-114896570D01*
X167922019Y-114991808D01*
X167826781Y-115039427D01*
X168731543Y-114753712D02*
X169350590Y-114753712D01*
X169017257Y-115134665D01*
X169160114Y-115134665D01*
X169255352Y-115182284D01*
X169302971Y-115229903D01*
X169350590Y-115325141D01*
X169350590Y-115563236D01*
X169302971Y-115658474D01*
X169255352Y-115706093D01*
X169160114Y-115753712D01*
X168874400Y-115753712D01*
X168779162Y-115706093D01*
X168731543Y-115658474D01*
X147306734Y-132551477D02*
X147259115Y-132599096D01*
X147116258Y-132646715D01*
X147021020Y-132646715D01*
X146878162Y-132599096D01*
X146782924Y-132503858D01*
X146735305Y-132408620D01*
X146687686Y-132218144D01*
X146687686Y-132075287D01*
X146735305Y-131884811D01*
X146782924Y-131789573D01*
X146878162Y-131694335D01*
X147021020Y-131646715D01*
X147116258Y-131646715D01*
X147259115Y-131694335D01*
X147306734Y-131741954D01*
X147782924Y-132646715D02*
X147973401Y-132646715D01*
X148068639Y-132599096D01*
X148116258Y-132551477D01*
X148211496Y-132408620D01*
X148259115Y-132218144D01*
X148259115Y-131837192D01*
X148211496Y-131741954D01*
X148163877Y-131694335D01*
X148068639Y-131646715D01*
X147878162Y-131646715D01*
X147782924Y-131694335D01*
X147735305Y-131741954D01*
X147687686Y-131837192D01*
X147687686Y-132075287D01*
X147735305Y-132170525D01*
X147782924Y-132218144D01*
X147878162Y-132265763D01*
X148068639Y-132265763D01*
X148163877Y-132218144D01*
X148211496Y-132170525D01*
X148259115Y-132075287D01*
X147394382Y-117197142D02*
X147346763Y-117244761D01*
X147203906Y-117292380D01*
X147108668Y-117292380D01*
X146965810Y-117244761D01*
X146870572Y-117149523D01*
X146822953Y-117054285D01*
X146775334Y-116863809D01*
X146775334Y-116720952D01*
X146822953Y-116530476D01*
X146870572Y-116435238D01*
X146965810Y-116340000D01*
X147108668Y-116292380D01*
X147203906Y-116292380D01*
X147346763Y-116340000D01*
X147394382Y-116387619D01*
X147965810Y-116720952D02*
X147870572Y-116673333D01*
X147822953Y-116625714D01*
X147775334Y-116530476D01*
X147775334Y-116482857D01*
X147822953Y-116387619D01*
X147870572Y-116340000D01*
X147965810Y-116292380D01*
X148156287Y-116292380D01*
X148251525Y-116340000D01*
X148299144Y-116387619D01*
X148346763Y-116482857D01*
X148346763Y-116530476D01*
X148299144Y-116625714D01*
X148251525Y-116673333D01*
X148156287Y-116720952D01*
X147965810Y-116720952D01*
X147870572Y-116768571D01*
X147822953Y-116816190D01*
X147775334Y-116911428D01*
X147775334Y-117101904D01*
X147822953Y-117197142D01*
X147870572Y-117244761D01*
X147965810Y-117292380D01*
X148156287Y-117292380D01*
X148251525Y-117244761D01*
X148299144Y-117197142D01*
X148346763Y-117101904D01*
X148346763Y-116911428D01*
X148299144Y-116816190D01*
X148251525Y-116768571D01*
X148156287Y-116720952D01*
X167774032Y-132563545D02*
X167726413Y-132611164D01*
X167583556Y-132658783D01*
X167488318Y-132658783D01*
X167345460Y-132611164D01*
X167250222Y-132515926D01*
X167202603Y-132420688D01*
X167154984Y-132230212D01*
X167154984Y-132087355D01*
X167202603Y-131896879D01*
X167250222Y-131801641D01*
X167345460Y-131706403D01*
X167488318Y-131658783D01*
X167583556Y-131658783D01*
X167726413Y-131706403D01*
X167774032Y-131754022D01*
X168107365Y-131658783D02*
X168774032Y-131658783D01*
X168345460Y-132658783D01*
X167433266Y-117215243D02*
X167385647Y-117262862D01*
X167242790Y-117310481D01*
X167147552Y-117310481D01*
X167004694Y-117262862D01*
X166909456Y-117167624D01*
X166861837Y-117072386D01*
X166814218Y-116881910D01*
X166814218Y-116739053D01*
X166861837Y-116548577D01*
X166909456Y-116453339D01*
X167004694Y-116358101D01*
X167147552Y-116310481D01*
X167242790Y-116310481D01*
X167385647Y-116358101D01*
X167433266Y-116405720D01*
X168290409Y-116310481D02*
X168099933Y-116310481D01*
X168004694Y-116358101D01*
X167957075Y-116405720D01*
X167861837Y-116548577D01*
X167814218Y-116739053D01*
X167814218Y-117120005D01*
X167861837Y-117215243D01*
X167909456Y-117262862D01*
X168004694Y-117310481D01*
X168195171Y-117310481D01*
X168290409Y-117262862D01*
X168338028Y-117215243D01*
X168385647Y-117120005D01*
X168385647Y-116881910D01*
X168338028Y-116786672D01*
X168290409Y-116739053D01*
X168195171Y-116691434D01*
X168004694Y-116691434D01*
X167909456Y-116739053D01*
X167861837Y-116786672D01*
X167814218Y-116881910D01*
X136316938Y-128903757D02*
X136316938Y-128971100D01*
X136249594Y-129105787D01*
X136182251Y-129173131D01*
X136047563Y-129240474D01*
X135912876Y-129240474D01*
X135811861Y-129206803D01*
X135643502Y-129105787D01*
X135542487Y-129004772D01*
X135441472Y-128836413D01*
X135407800Y-128735398D01*
X135407800Y-128600711D01*
X135475144Y-128466024D01*
X135542487Y-128398680D01*
X135677174Y-128331337D01*
X135744518Y-128331337D01*
X136316938Y-127624230D02*
X135980220Y-127960948D01*
X136283266Y-128331337D01*
X136283266Y-128263993D01*
X136316938Y-128162978D01*
X136485296Y-127994619D01*
X136586312Y-127960948D01*
X136653655Y-127960948D01*
X136754670Y-127994619D01*
X136923029Y-128162978D01*
X136956701Y-128263993D01*
X136956701Y-128331337D01*
X136923029Y-128432352D01*
X136754670Y-128600711D01*
X136653655Y-128634383D01*
X136586312Y-128634383D01*
X131958997Y-134569389D02*
X131958997Y-134636732D01*
X131891653Y-134771419D01*
X131824310Y-134838763D01*
X131689622Y-134906106D01*
X131554935Y-134906106D01*
X131453920Y-134872435D01*
X131285561Y-134771419D01*
X131184546Y-134670404D01*
X131083531Y-134502045D01*
X131049859Y-134401030D01*
X131049859Y-134266343D01*
X131117203Y-134131656D01*
X131184546Y-134064312D01*
X131319233Y-133996969D01*
X131386577Y-133996969D01*
X132161027Y-133559236D02*
X132632432Y-134030641D01*
X131723294Y-133458221D02*
X132060012Y-134131656D01*
X132497745Y-133693923D01*
X116042534Y-128010772D02*
X116042534Y-128078115D01*
X115975190Y-128212802D01*
X115907847Y-128280146D01*
X115773159Y-128347489D01*
X115638472Y-128347489D01*
X115537457Y-128313818D01*
X115369098Y-128212802D01*
X115268083Y-128111787D01*
X115167068Y-127943428D01*
X115133396Y-127842413D01*
X115133396Y-127707726D01*
X115200740Y-127573039D01*
X115268083Y-127505695D01*
X115402770Y-127438352D01*
X115470114Y-127438352D01*
X115638472Y-127135306D02*
X116076205Y-126697573D01*
X116109877Y-127202650D01*
X116210892Y-127101634D01*
X116311908Y-127067963D01*
X116379251Y-127067963D01*
X116480266Y-127101634D01*
X116648625Y-127269993D01*
X116682297Y-127371008D01*
X116682297Y-127438352D01*
X116648625Y-127539367D01*
X116446595Y-127741398D01*
X116345579Y-127775070D01*
X116278236Y-127775070D01*
X131191044Y-114602535D02*
X131258387Y-114602535D01*
X131393074Y-114669879D01*
X131460418Y-114737223D01*
X131527761Y-114871910D01*
X131527761Y-115006597D01*
X131494090Y-115107612D01*
X131393074Y-115275971D01*
X131292059Y-115376986D01*
X131123700Y-115478001D01*
X131022685Y-115511673D01*
X130887998Y-115511673D01*
X130753311Y-115444329D01*
X130685967Y-115376986D01*
X130618624Y-115242299D01*
X130618624Y-115174955D01*
X130349250Y-114905581D02*
X130281906Y-114905581D01*
X130180891Y-114871910D01*
X130012532Y-114703551D01*
X129978861Y-114602535D01*
X129978861Y-114535192D01*
X130012532Y-114434177D01*
X130079876Y-114366833D01*
X130214563Y-114299490D01*
X131022685Y-114299490D01*
X130584952Y-113861757D01*
X137677142Y-124626666D02*
X137724761Y-124674285D01*
X137772380Y-124817142D01*
X137772380Y-124912380D01*
X137724761Y-125055238D01*
X137629523Y-125150476D01*
X137534285Y-125198095D01*
X137343809Y-125245714D01*
X137200952Y-125245714D01*
X137010476Y-125198095D01*
X136915238Y-125150476D01*
X136820000Y-125055238D01*
X136772380Y-124912380D01*
X136772380Y-124817142D01*
X136820000Y-124674285D01*
X136867619Y-124626666D01*
X137772380Y-123674285D02*
X137772380Y-124245714D01*
X137772380Y-123960000D02*
X136772380Y-123960000D01*
X136915238Y-124055238D01*
X137010476Y-124150476D01*
X137058095Y-124245714D01*
X113592380Y-138763333D02*
X114306666Y-138763333D01*
X114449523Y-138810952D01*
X114544761Y-138906190D01*
X114592380Y-139049047D01*
X114592380Y-139144285D01*
X113925714Y-137858571D02*
X114592380Y-137858571D01*
X113544761Y-138096666D02*
X114259047Y-138334761D01*
X114259047Y-137715714D01*
X174926666Y-128634380D02*
X174926666Y-129348666D01*
X174879047Y-129491523D01*
X174783809Y-129586761D01*
X174640952Y-129634380D01*
X174545714Y-129634380D01*
X175307619Y-128634380D02*
X175974285Y-128634380D01*
X175545714Y-129634380D01*
X107242380Y-134953333D02*
X107956666Y-134953333D01*
X108099523Y-135000952D01*
X108194761Y-135096190D01*
X108242380Y-135239047D01*
X108242380Y-135334285D01*
X107242380Y-134572380D02*
X107242380Y-133953333D01*
X107623333Y-134286666D01*
X107623333Y-134143809D01*
X107670952Y-134048571D01*
X107718571Y-134000952D01*
X107813809Y-133953333D01*
X108051904Y-133953333D01*
X108147142Y-134000952D01*
X108194761Y-134048571D01*
X108242380Y-134143809D01*
X108242380Y-134429523D01*
X108194761Y-134524761D01*
X108147142Y-134572380D01*
X140696666Y-114242380D02*
X140696666Y-114956666D01*
X140649047Y-115099523D01*
X140553809Y-115194761D01*
X140410952Y-115242380D01*
X140315714Y-115242380D01*
X141696666Y-115242380D02*
X141125238Y-115242380D01*
X141410952Y-115242380D02*
X141410952Y-114242380D01*
X141315714Y-114385238D01*
X141220476Y-114480476D01*
X141125238Y-114528095D01*
X146986666Y-100694380D02*
X146986666Y-101408666D01*
X146939047Y-101551523D01*
X146843809Y-101646761D01*
X146700952Y-101694380D01*
X146605714Y-101694380D01*
X147605714Y-101122952D02*
X147510476Y-101075333D01*
X147462857Y-101027714D01*
X147415238Y-100932476D01*
X147415238Y-100884857D01*
X147462857Y-100789619D01*
X147510476Y-100742000D01*
X147605714Y-100694380D01*
X147796190Y-100694380D01*
X147891428Y-100742000D01*
X147939047Y-100789619D01*
X147986666Y-100884857D01*
X147986666Y-100932476D01*
X147939047Y-101027714D01*
X147891428Y-101075333D01*
X147796190Y-101122952D01*
X147605714Y-101122952D01*
X147510476Y-101170571D01*
X147462857Y-101218190D01*
X147415238Y-101313428D01*
X147415238Y-101503904D01*
X147462857Y-101599142D01*
X147510476Y-101646761D01*
X147605714Y-101694380D01*
X147796190Y-101694380D01*
X147891428Y-101646761D01*
X147939047Y-101599142D01*
X147986666Y-101503904D01*
X147986666Y-101313428D01*
X147939047Y-101218190D01*
X147891428Y-101170571D01*
X147796190Y-101122952D01*
X152757142Y-100747142D02*
X152709523Y-100794761D01*
X152566666Y-100842380D01*
X152471428Y-100842380D01*
X152328571Y-100794761D01*
X152233333Y-100699523D01*
X152185714Y-100604285D01*
X152138095Y-100413809D01*
X152138095Y-100270952D01*
X152185714Y-100080476D01*
X152233333Y-99985238D01*
X152328571Y-99890000D01*
X152471428Y-99842380D01*
X152566666Y-99842380D01*
X152709523Y-99890000D01*
X152757142Y-99937619D01*
X153709523Y-100842380D02*
X153138095Y-100842380D01*
X153423809Y-100842380D02*
X153423809Y-99842380D01*
X153328571Y-99985238D01*
X153233333Y-100080476D01*
X153138095Y-100128095D01*
X154661904Y-100842380D02*
X154090476Y-100842380D01*
X154376190Y-100842380D02*
X154376190Y-99842380D01*
X154280952Y-99985238D01*
X154185714Y-100080476D01*
X154090476Y-100128095D01*
X107099166Y-122392380D02*
X107099166Y-123106666D01*
X107051547Y-123249523D01*
X106956309Y-123344761D01*
X106813452Y-123392380D01*
X106718214Y-123392380D01*
X107527738Y-122487619D02*
X107575357Y-122440000D01*
X107670595Y-122392380D01*
X107908690Y-122392380D01*
X108003928Y-122440000D01*
X108051547Y-122487619D01*
X108099166Y-122582857D01*
X108099166Y-122678095D01*
X108051547Y-122820952D01*
X107480119Y-123392380D01*
X108099166Y-123392380D01*
X174926666Y-113394380D02*
X174926666Y-114108666D01*
X174879047Y-114251523D01*
X174783809Y-114346761D01*
X174640952Y-114394380D01*
X174545714Y-114394380D01*
X175879047Y-113394380D02*
X175402857Y-113394380D01*
X175355238Y-113870571D01*
X175402857Y-113822952D01*
X175498095Y-113775333D01*
X175736190Y-113775333D01*
X175831428Y-113822952D01*
X175879047Y-113870571D01*
X175926666Y-113965809D01*
X175926666Y-114203904D01*
X175879047Y-114299142D01*
X175831428Y-114346761D01*
X175736190Y-114394380D01*
X175498095Y-114394380D01*
X175402857Y-114346761D01*
X175355238Y-114299142D01*
X174926666Y-121014380D02*
X174926666Y-121728666D01*
X174879047Y-121871523D01*
X174783809Y-121966761D01*
X174640952Y-122014380D01*
X174545714Y-122014380D01*
X175831428Y-121014380D02*
X175640952Y-121014380D01*
X175545714Y-121062000D01*
X175498095Y-121109619D01*
X175402857Y-121252476D01*
X175355238Y-121442952D01*
X175355238Y-121823904D01*
X175402857Y-121919142D01*
X175450476Y-121966761D01*
X175545714Y-122014380D01*
X175736190Y-122014380D01*
X175831428Y-121966761D01*
X175879047Y-121919142D01*
X175926666Y-121823904D01*
X175926666Y-121585809D01*
X175879047Y-121490571D01*
X175831428Y-121442952D01*
X175736190Y-121395333D01*
X175545714Y-121395333D01*
X175450476Y-121442952D01*
X175402857Y-121490571D01*
X175355238Y-121585809D01*
X140160476Y-100694380D02*
X140160476Y-101408666D01*
X140112857Y-101551523D01*
X140017619Y-101646761D01*
X139874761Y-101694380D01*
X139779523Y-101694380D01*
X141160476Y-101694380D02*
X140589047Y-101694380D01*
X140874761Y-101694380D02*
X140874761Y-100694380D01*
X140779523Y-100837238D01*
X140684285Y-100932476D01*
X140589047Y-100980095D01*
X141779523Y-100694380D02*
X141874761Y-100694380D01*
X141970000Y-100742000D01*
X142017619Y-100789619D01*
X142065238Y-100884857D01*
X142112857Y-101075333D01*
X142112857Y-101313428D01*
X142065238Y-101503904D01*
X142017619Y-101599142D01*
X141970000Y-101646761D01*
X141874761Y-101694380D01*
X141779523Y-101694380D01*
X141684285Y-101646761D01*
X141636666Y-101599142D01*
X141589047Y-101503904D01*
X141541428Y-101313428D01*
X141541428Y-101075333D01*
X141589047Y-100884857D01*
X141636666Y-100789619D01*
X141684285Y-100742000D01*
X141779523Y-100694380D01*
X134286666Y-100694380D02*
X134286666Y-101408666D01*
X134239047Y-101551523D01*
X134143809Y-101646761D01*
X134000952Y-101694380D01*
X133905714Y-101694380D01*
X134810476Y-101694380D02*
X135000952Y-101694380D01*
X135096190Y-101646761D01*
X135143809Y-101599142D01*
X135239047Y-101456285D01*
X135286666Y-101265809D01*
X135286666Y-100884857D01*
X135239047Y-100789619D01*
X135191428Y-100742000D01*
X135096190Y-100694380D01*
X134905714Y-100694380D01*
X134810476Y-100742000D01*
X134762857Y-100789619D01*
X134715238Y-100884857D01*
X134715238Y-101122952D01*
X134762857Y-101218190D01*
X134810476Y-101265809D01*
X134905714Y-101313428D01*
X135096190Y-101313428D01*
X135191428Y-101265809D01*
X135239047Y-101218190D01*
X135286666Y-101122952D01*
D11*
X165236071Y-126572657D02*
X166161357Y-126572657D01*
X166270214Y-126518228D01*
X166324642Y-126463800D01*
X166379071Y-126354942D01*
X166379071Y-126137228D01*
X166324642Y-126028371D01*
X166270214Y-125973942D01*
X166161357Y-125919514D01*
X165236071Y-125919514D01*
X165344928Y-125429657D02*
X165290500Y-125375228D01*
X165236071Y-125266371D01*
X165236071Y-124994228D01*
X165290500Y-124885371D01*
X165344928Y-124830942D01*
X165453785Y-124776514D01*
X165562642Y-124776514D01*
X165725928Y-124830942D01*
X166379071Y-125484085D01*
X166379071Y-124776514D01*
D10*
X120841436Y-119378932D02*
X121413856Y-119951352D01*
X121514871Y-119985024D01*
X121582215Y-119985024D01*
X121683230Y-119951352D01*
X121817917Y-119816665D01*
X121851589Y-119715650D01*
X121851589Y-119648306D01*
X121817917Y-119547291D01*
X121245497Y-118974871D01*
X122659711Y-118974871D02*
X122255650Y-119378932D01*
X122457680Y-119176902D02*
X121750574Y-118469795D01*
X121784245Y-118638154D01*
X121784245Y-118772841D01*
X121750574Y-118873856D01*
D12*
X124850000Y-145440000D02*
X116450000Y-145440000D01*
X116450000Y-145440000D02*
X116450000Y-139040000D01*
X116450000Y-139040000D02*
X124850000Y-139040000D01*
X124850000Y-139040000D02*
X124850000Y-145440000D01*
X146560000Y-128123733D02*
X146560000Y-128416267D01*
X145540000Y-128123733D02*
X145540000Y-128416267D01*
X146572500Y-124205276D02*
X146572500Y-124714724D01*
X145527500Y-124205276D02*
X145527500Y-124714724D01*
X146572500Y-120551602D02*
X146572500Y-121061050D01*
X145527500Y-120551602D02*
X145527500Y-121061050D01*
X150567428Y-114773230D02*
X150274894Y-114773230D01*
X150567428Y-115793230D02*
X150274894Y-115793230D01*
X115328629Y-134994913D02*
X115838077Y-134994913D01*
X115328629Y-136039913D02*
X115838077Y-136039913D01*
X115315276Y-136637500D02*
X115824724Y-136637500D01*
X115315276Y-137682500D02*
X115824724Y-137682500D01*
X177052500Y-141072776D02*
X177052500Y-141582224D01*
X176007500Y-141072776D02*
X176007500Y-141582224D01*
X174512500Y-141072776D02*
X174512500Y-141582224D01*
X173467500Y-141072776D02*
X173467500Y-141582224D01*
X171972500Y-141072776D02*
X171972500Y-141582224D01*
X170927500Y-141072776D02*
X170927500Y-141582224D01*
X120460654Y-132629580D02*
X120100420Y-132269346D01*
X121199580Y-131890654D02*
X120839346Y-131530420D01*
X119389866Y-120158570D02*
X119029632Y-120518804D01*
X118650940Y-119419644D02*
X118290706Y-119779878D01*
X139445276Y-148067500D02*
X139954724Y-148067500D01*
X139445276Y-149112500D02*
X139954724Y-149112500D01*
X139445276Y-144892500D02*
X139954724Y-144892500D01*
X139445276Y-145937500D02*
X139954724Y-145937500D01*
X139445276Y-141717500D02*
X139954724Y-141717500D01*
X139445276Y-142762500D02*
X139954724Y-142762500D01*
X139445276Y-138542500D02*
X139954724Y-138542500D01*
X139445276Y-139587500D02*
X139954724Y-139587500D01*
X139445276Y-135367500D02*
X139954724Y-135367500D01*
X139445276Y-136412500D02*
X139954724Y-136412500D01*
X111491922Y-120541485D02*
X112001370Y-120541485D01*
X111491922Y-121586485D02*
X112001370Y-121586485D01*
X111505276Y-118857500D02*
X112014724Y-118857500D01*
X111505276Y-119902500D02*
X112014724Y-119902500D01*
X177303445Y-139244197D02*
X177303445Y-136784197D01*
X175833445Y-139244197D02*
X177303445Y-139244197D01*
X175833445Y-136784197D02*
X175833445Y-139244197D01*
X174667331Y-139359534D02*
X174667331Y-136899534D01*
X173197331Y-139359534D02*
X174667331Y-139359534D01*
X173197331Y-136899534D02*
X173197331Y-139359534D01*
X172185000Y-139305000D02*
X172185000Y-136845000D01*
X170715000Y-139305000D02*
X172185000Y-139305000D01*
X170715000Y-136845000D02*
X170715000Y-139305000D01*
X137945000Y-147855000D02*
X135485000Y-147855000D01*
X137945000Y-149325000D02*
X137945000Y-147855000D01*
X135485000Y-149325000D02*
X137945000Y-149325000D01*
X137945000Y-144680000D02*
X135485000Y-144680000D01*
X137945000Y-146150000D02*
X137945000Y-144680000D01*
X135485000Y-146150000D02*
X137945000Y-146150000D01*
X137945000Y-141505000D02*
X135485000Y-141505000D01*
X137945000Y-142975000D02*
X137945000Y-141505000D01*
X135485000Y-142975000D02*
X137945000Y-142975000D01*
X137945000Y-138330000D02*
X135485000Y-138330000D01*
X137945000Y-139800000D02*
X137945000Y-138330000D01*
X135485000Y-139800000D02*
X137945000Y-139800000D01*
X137945000Y-135155000D02*
X135485000Y-135155000D01*
X137945000Y-136625000D02*
X137945000Y-135155000D01*
X135485000Y-136625000D02*
X137945000Y-136625000D01*
X167086233Y-118870000D02*
X167378767Y-118870000D01*
X167086233Y-119890000D02*
X167378767Y-119890000D01*
X167086233Y-123618081D02*
X167378767Y-123618081D01*
X167086233Y-124638081D02*
X167378767Y-124638081D01*
X167086233Y-129878775D02*
X167378767Y-129878775D01*
X167086233Y-128858775D02*
X167378767Y-128858775D01*
X150473385Y-134273173D02*
X150180851Y-134273173D01*
X150473385Y-133253173D02*
X150180851Y-133253173D01*
X164922252Y-133277309D02*
X165214786Y-133277309D01*
X164922252Y-134297309D02*
X165214786Y-134297309D01*
X164792676Y-114809434D02*
X165085210Y-114809434D01*
X164792676Y-115829434D02*
X165085210Y-115829434D01*
X150486267Y-132590000D02*
X150193733Y-132590000D01*
X150486267Y-131570000D02*
X150193733Y-131570000D01*
X150580267Y-116330000D02*
X150287733Y-116330000D01*
X150580267Y-117350000D02*
X150287733Y-117350000D01*
X164953733Y-131570000D02*
X165246267Y-131570000D01*
X164953733Y-132590000D02*
X165246267Y-132590000D01*
X164731801Y-116330000D02*
X165024335Y-116330000D01*
X164731801Y-117350000D02*
X165024335Y-117350000D01*
X135635139Y-127779403D02*
X135428286Y-127986256D01*
X134913890Y-127058154D02*
X134707037Y-127265007D01*
X131277198Y-133445035D02*
X131070345Y-133651888D01*
X130555949Y-132723786D02*
X130349096Y-132930639D01*
X118380857Y-125618765D02*
X118174004Y-125825618D01*
X117659608Y-124897516D02*
X117452755Y-125104369D01*
X130066690Y-115284335D02*
X130273543Y-115491188D01*
X129345441Y-116005584D02*
X129552294Y-116212437D01*
X136400000Y-124313733D02*
X136400000Y-124606267D01*
X135380000Y-124313733D02*
X135380000Y-124606267D01*
X108930000Y-145990000D02*
X113050000Y-145990000D01*
X107930000Y-144990000D02*
X108930000Y-145990000D01*
X113050000Y-145990000D02*
X113050000Y-130870000D01*
X113050000Y-130870000D02*
X107930000Y-130870000D01*
X107630000Y-130570000D02*
X107630000Y-132980000D01*
X110040000Y-130570000D02*
X107630000Y-130570000D01*
X107930000Y-130870000D02*
X107930000Y-144990000D01*
X177510000Y-132080000D02*
G75*
G03*
X177510000Y-132080000I-2250000J0D01*
G01*
X103690000Y-123010000D02*
X101280000Y-123010000D01*
X106700000Y-145930000D02*
X106700000Y-123310000D01*
X101580000Y-123310000D02*
X101580000Y-144930000D01*
X106700000Y-123310000D02*
X101580000Y-123310000D01*
X102580000Y-145930000D02*
X106700000Y-145930000D01*
X101280000Y-123010000D02*
X101280000Y-125420000D01*
X101580000Y-144930000D02*
X102580000Y-145930000D01*
X147640000Y-108280000D02*
X145230000Y-108280000D01*
X147340000Y-108580000D02*
X135720000Y-108580000D01*
X134720000Y-109580000D02*
X134720000Y-113700000D01*
X147340000Y-113700000D02*
X147340000Y-108580000D01*
X135720000Y-108580000D02*
X134720000Y-109580000D01*
X134720000Y-113700000D02*
X147340000Y-113700000D01*
X147640000Y-110690000D02*
X147640000Y-108280000D01*
X149570000Y-104140000D02*
G75*
G03*
X149570000Y-104140000I-2250000J0D01*
G01*
X155001000Y-102105000D02*
X155001000Y-103100000D01*
X153960000Y-101620000D02*
X153960000Y-103100000D01*
X155121000Y-105180000D02*
X155121000Y-106077000D01*
X153800000Y-101590000D02*
X153800000Y-103100000D01*
X153920000Y-101612000D02*
X153920000Y-103100000D01*
X154241000Y-101698000D02*
X154241000Y-103100000D01*
X155201000Y-102276000D02*
X155201000Y-103100000D01*
X154521000Y-101811000D02*
X154521000Y-103100000D01*
X153560000Y-105180000D02*
X153560000Y-106716000D01*
X154281000Y-105180000D02*
X154281000Y-106568000D01*
X155961000Y-103622000D02*
X155961000Y-104658000D01*
X154761000Y-101940000D02*
X154761000Y-103100000D01*
X155721000Y-102962000D02*
X155721000Y-105318000D01*
X154601000Y-105180000D02*
X154601000Y-106430000D01*
X153960000Y-105180000D02*
X153960000Y-106660000D01*
X155881000Y-103335000D02*
X155881000Y-104945000D01*
X154201000Y-105180000D02*
X154201000Y-106595000D01*
X153800000Y-105180000D02*
X153800000Y-106690000D01*
X153920000Y-105180000D02*
X153920000Y-106668000D01*
X153880000Y-101604000D02*
X153880000Y-103100000D01*
X155321000Y-105180000D02*
X155321000Y-105883000D01*
X156001000Y-103856000D02*
X156001000Y-104424000D01*
X153480000Y-105180000D02*
X153480000Y-106719000D01*
X154000000Y-101629000D02*
X154000000Y-103100000D01*
X154401000Y-105180000D02*
X154401000Y-106522000D01*
X153840000Y-105180000D02*
X153840000Y-106683000D01*
X154000000Y-105180000D02*
X154000000Y-106651000D01*
X155401000Y-105180000D02*
X155401000Y-105793000D01*
X155241000Y-105180000D02*
X155241000Y-105966000D01*
X154361000Y-105180000D02*
X154361000Y-106538000D01*
X153640000Y-101571000D02*
X153640000Y-103100000D01*
X154801000Y-105180000D02*
X154801000Y-106315000D01*
X155841000Y-103225000D02*
X155841000Y-105055000D01*
X154401000Y-101758000D02*
X154401000Y-103100000D01*
X155081000Y-102169000D02*
X155081000Y-103100000D01*
X154201000Y-101685000D02*
X154201000Y-103100000D01*
X155041000Y-102136000D02*
X155041000Y-103100000D01*
X154841000Y-101991000D02*
X154841000Y-103100000D01*
X154561000Y-101830000D02*
X154561000Y-103100000D01*
X154281000Y-101712000D02*
X154281000Y-103100000D01*
X153760000Y-101584000D02*
X153760000Y-103100000D01*
X154681000Y-101893000D02*
X154681000Y-103100000D01*
X153400000Y-105180000D02*
X153400000Y-106720000D01*
X153440000Y-101560000D02*
X153440000Y-103100000D01*
X154561000Y-105180000D02*
X154561000Y-106450000D01*
X153880000Y-105180000D02*
X153880000Y-106676000D01*
X153640000Y-105180000D02*
X153640000Y-106709000D01*
X154841000Y-105180000D02*
X154841000Y-106289000D01*
X155561000Y-102697000D02*
X155561000Y-105583000D01*
X155761000Y-103042000D02*
X155761000Y-105238000D01*
X154681000Y-105180000D02*
X154681000Y-106387000D01*
X154521000Y-105180000D02*
X154521000Y-106469000D01*
X150595225Y-102665000D02*
X151095225Y-102665000D01*
X155601000Y-102757000D02*
X155601000Y-105523000D01*
X155161000Y-102239000D02*
X155161000Y-103100000D01*
X154961000Y-105180000D02*
X154961000Y-106205000D01*
X154121000Y-105180000D02*
X154121000Y-106620000D01*
X154761000Y-105180000D02*
X154761000Y-106340000D01*
X154241000Y-105180000D02*
X154241000Y-106582000D01*
X155921000Y-103463000D02*
X155921000Y-104817000D01*
X154481000Y-101792000D02*
X154481000Y-103100000D01*
X154441000Y-101775000D02*
X154441000Y-103100000D01*
X154321000Y-105180000D02*
X154321000Y-106554000D01*
X153520000Y-105180000D02*
X153520000Y-106718000D01*
X155121000Y-102203000D02*
X155121000Y-103100000D01*
X155361000Y-105180000D02*
X155361000Y-105839000D01*
X155361000Y-102441000D02*
X155361000Y-103100000D01*
X154161000Y-101672000D02*
X154161000Y-103100000D01*
X155401000Y-102487000D02*
X155401000Y-103100000D01*
X154040000Y-105180000D02*
X154040000Y-106641000D01*
X153520000Y-101562000D02*
X153520000Y-103100000D01*
X153760000Y-105180000D02*
X153760000Y-106696000D01*
X153720000Y-101579000D02*
X153720000Y-103100000D01*
X155801000Y-103129000D02*
X155801000Y-105151000D01*
X155321000Y-102397000D02*
X155321000Y-103100000D01*
X150845225Y-102415000D02*
X150845225Y-102915000D01*
X154921000Y-102045000D02*
X154921000Y-103100000D01*
X155201000Y-105180000D02*
X155201000Y-106004000D01*
X153680000Y-101575000D02*
X153680000Y-103100000D01*
X153840000Y-101597000D02*
X153840000Y-103100000D01*
X154881000Y-105180000D02*
X154881000Y-106262000D01*
X154361000Y-101742000D02*
X154361000Y-103100000D01*
X155041000Y-105180000D02*
X155041000Y-106144000D01*
X155441000Y-102535000D02*
X155441000Y-105745000D01*
X153400000Y-101560000D02*
X153400000Y-103100000D01*
X154921000Y-105180000D02*
X154921000Y-106235000D01*
X154321000Y-101726000D02*
X154321000Y-103100000D01*
X155521000Y-102640000D02*
X155521000Y-105640000D01*
X153600000Y-101567000D02*
X153600000Y-103100000D01*
X154881000Y-102018000D02*
X154881000Y-103100000D01*
X155081000Y-105180000D02*
X155081000Y-106111000D01*
X155681000Y-102889000D02*
X155681000Y-105391000D01*
X155001000Y-105180000D02*
X155001000Y-106175000D01*
X154080000Y-101649000D02*
X154080000Y-103100000D01*
X154641000Y-105180000D02*
X154641000Y-106408000D01*
X154601000Y-101850000D02*
X154601000Y-103100000D01*
X154121000Y-101660000D02*
X154121000Y-103100000D01*
X155281000Y-102355000D02*
X155281000Y-103100000D01*
X153440000Y-105180000D02*
X153440000Y-106720000D01*
X153720000Y-105180000D02*
X153720000Y-106701000D01*
X155481000Y-102586000D02*
X155481000Y-105694000D01*
X155161000Y-105180000D02*
X155161000Y-106041000D01*
X154801000Y-101965000D02*
X154801000Y-103100000D01*
X155641000Y-102821000D02*
X155641000Y-105459000D01*
X155281000Y-105180000D02*
X155281000Y-105925000D01*
X154961000Y-102075000D02*
X154961000Y-103100000D01*
X154040000Y-101639000D02*
X154040000Y-103100000D01*
X153600000Y-105180000D02*
X153600000Y-106713000D01*
X154641000Y-101872000D02*
X154641000Y-103100000D01*
X154441000Y-105180000D02*
X154441000Y-106505000D01*
X154721000Y-101916000D02*
X154721000Y-103100000D01*
X154161000Y-105180000D02*
X154161000Y-106608000D01*
X153480000Y-101561000D02*
X153480000Y-103100000D01*
X153680000Y-105180000D02*
X153680000Y-106705000D01*
X154721000Y-105180000D02*
X154721000Y-106364000D01*
X154481000Y-105180000D02*
X154481000Y-106488000D01*
X155241000Y-102314000D02*
X155241000Y-103100000D01*
X154080000Y-105180000D02*
X154080000Y-106631000D01*
X153560000Y-101564000D02*
X153560000Y-103100000D01*
X156020000Y-104140000D02*
G75*
G03*
X156020000Y-104140000I-2620000J0D01*
G01*
X109377500Y-113810000D02*
X100257500Y-113810000D01*
X100257500Y-101470000D02*
X109377500Y-101470000D01*
X109377500Y-122050000D02*
X100257500Y-122050000D01*
X109377500Y-101470000D02*
X109377500Y-122050000D01*
X100257500Y-122050000D02*
X100257500Y-101470000D01*
X115997500Y-116340000D02*
X114997500Y-116840000D01*
X114997500Y-116840000D02*
X115997500Y-117340000D01*
X109377500Y-109710000D02*
X100257500Y-109710000D01*
X115997500Y-117340000D02*
X115997500Y-116340000D01*
X177510000Y-116840000D02*
G75*
G03*
X177510000Y-116840000I-2250000J0D01*
G01*
X177510000Y-124460000D02*
G75*
G03*
X177510000Y-124460000I-2250000J0D01*
G01*
X143170000Y-106340000D02*
X138770000Y-106340000D01*
X138770000Y-101940000D02*
X143170000Y-101940000D01*
X138770000Y-106340000D02*
X138770000Y-101940000D01*
X143170000Y-101940000D02*
X143170000Y-106340000D01*
X136870000Y-104140000D02*
G75*
G03*
X136870000Y-104140000I-2250000J0D01*
G01*
D11*
X162551000Y-132486000D02*
X152409000Y-132486000D01*
X152409000Y-132486000D02*
X152409000Y-116434000D01*
X162551000Y-116434000D02*
X162551000Y-132486000D01*
X152409000Y-116434000D02*
X162551000Y-116434000D01*
D13*
X151054000Y-118301000D02*
G75*
G03*
X151054000Y-118301000I-150000J0D01*
G01*
X153311000Y-118935000D02*
G75*
G03*
X153311000Y-118935000I-150000J0D01*
G01*
D12*
X126328249Y-117905120D02*
X127000000Y-117233369D01*
X120445120Y-125131751D02*
X119497597Y-126079275D01*
X120445120Y-123788249D02*
X119773369Y-124460000D01*
X133554880Y-125131751D02*
X134226631Y-124460000D01*
X119773369Y-124460000D02*
X120445120Y-125131751D01*
X127671751Y-131014880D02*
X127000000Y-131686631D01*
X134226631Y-124460000D02*
X133554880Y-123788249D01*
X127000000Y-117233369D02*
X127671751Y-117905120D01*
X127000000Y-131686631D02*
X126328249Y-131014880D01*
M02*
